<svg xmlns="http://www.w3.org/2000/svg" xmlns:xlink="http://www.w3.org/1999/xlink" width="108" height="108" viewBox="0 0 108 108">
  <defs>
    <filter id="Trazado_904820" x="0" y="0" width="108" height="108" filterUnits="userSpaceOnUse">
      <feOffset dy="3" input="SourceAlpha"/>
      <feGaussianBlur stdDeviation="3" result="blur"/>
      <feFlood flood-opacity="0.161"/>
      <feComposite operator="in" in2="blur"/>
      <feComposite in="SourceGraphic"/>
    </filter>
  </defs>
  <g id="Grupo_1144478" data-name="Grupo 1144478" transform="translate(-201.999 -3012)">
    <g transform="matrix(1, 0, 0, 1, 202, 3012)" filter="url(#Trazado_904820)">
      <g id="Trazado_904820-2" data-name="Trazado 904820" transform="translate(9 6)" fill="#ecf4fa">
        <path d="M 45 88.5 C 39.12687683105469 88.5 33.43022537231445 87.35007476806641 28.06830024719238 85.08217620849609 C 22.88852500915527 82.89131164550781 18.23629951477051 79.75458526611328 14.2408504486084 75.75914764404297 C 10.24541282653809 71.76370239257812 7.108687400817871 67.11147308349609 4.917825222015381 61.93170166015625 C 2.649924993515015 56.56977462768555 1.5 50.87312316894531 1.5 45 C 1.5 39.12687683105469 2.649924993515015 33.43022537231445 4.917825222015381 28.06830024719238 C 7.108687400817871 22.88852500915527 10.24541282653809 18.23629951477051 14.2408504486084 14.2408504486084 C 18.23629951477051 10.24541282653809 22.88852500915527 7.108687400817871 28.06830024719238 4.917825222015381 C 33.43022537231445 2.649924993515015 39.12687683105469 1.5 45 1.5 C 50.87312316894531 1.5 56.56977462768555 2.649924993515015 61.93170166015625 4.917825222015381 C 67.11147308349609 7.108687400817871 71.76370239257812 10.24541282653809 75.75914764404297 14.2408504486084 C 79.75458526611328 18.23629951477051 82.89131164550781 22.88852500915527 85.08217620849609 28.06830024719238 C 87.35007476806641 33.43022537231445 88.5 39.12687683105469 88.5 45 C 88.5 50.87312316894531 87.35007476806641 56.56977462768555 85.08217620849609 61.93170166015625 C 82.89131164550781 67.11147308349609 79.75458526611328 71.76370239257812 75.75914764404297 75.75914764404297 C 71.76370239257812 79.75458526611328 67.11147308349609 82.89131164550781 61.93170166015625 85.08217620849609 C 56.56977462768555 87.35007476806641 50.87312316894531 88.5 45 88.5 Z" stroke="none"/>
        <path d="M 45 3 C 39.32871246337891 3 33.82865524291992 4.110054016113281 28.65262985229492 6.299339294433594 C 23.65165710449219 8.414573669433594 19.15968322753906 11.44334411621094 15.301513671875 15.301513671875 C 11.44334411621094 19.15968322753906 8.414573669433594 23.65165710449219 6.299339294433594 28.65262985229492 C 4.110054016113281 33.82865524291992 3 39.32871246337891 3 45 C 3 50.67128753662109 4.110054016113281 56.17134475708008 6.299339294433594 61.34737396240234 C 8.414573669433594 66.34834289550781 11.44334411621094 70.84031677246094 15.301513671875 74.698486328125 C 19.15968322753906 78.55665588378906 23.65165710449219 81.58542633056641 28.65262985229492 83.70066070556641 C 33.82865524291992 85.88994598388672 39.32871246337891 87 45 87 C 50.67128753662109 87 56.17134475708008 85.88994598388672 61.34737396240234 83.70066070556641 C 66.34834289550781 81.58542633056641 70.84031677246094 78.55665588378906 74.698486328125 74.698486328125 C 78.55665588378906 70.84031677246094 81.58542633056641 66.34834289550781 83.70066070556641 61.34737396240234 C 85.88994598388672 56.17134475708008 87 50.67128753662109 87 45 C 87 39.32871246337891 85.88994598388672 33.82865524291992 83.70066070556641 28.65262985229492 C 81.58542633056641 23.65165710449219 78.55665588378906 19.15968322753906 74.698486328125 15.301513671875 C 70.84031677246094 11.44334411621094 66.34834289550781 8.414573669433594 61.34737396240234 6.299339294433594 C 56.17134475708008 4.110054016113281 50.67128753662109 3 45 3 M 45 0 C 69.85281372070312 0 90 20.14718627929688 90 45 C 90 69.85281372070312 69.85281372070312 90 45 90 C 20.14718627929688 90 0 69.85281372070312 0 45 C 0 20.14718627929688 20.14718627929688 0 45 0 Z" stroke="none" fill="#2a5673"/>
      </g>
    </g>
    <g id="Grupo_1144477" data-name="Grupo 1144477" transform="translate(222.007 3025.297)">
      <g id="Grupo_1144475" data-name="Grupo 1144475" transform="translate(1.6 4.013)">
        <path id="Trazado_979270" data-name="Trazado 979270" d="M225.822,210.626a.628.628,0,0,0,0-.9.646.646,0,0,0-.9,0,.635.635,0,1,0,.9.9Z" transform="translate(-168.003 -157.288)"/>
        <g id="Grupo_1144474" data-name="Grupo 1144474" transform="translate(0)">
          <path id="Trazado_979271" data-name="Trazado 979271" d="M83.772,28.1H77.314V47.2a2.231,2.231,0,0,0-1.8.648L72.18,51.179H49.6l-3.338-3.333a2.231,2.231,0,0,0-1.8-.648V28.1H38.01L60.891,6.5Z" transform="translate(-28.752 -5.868)" fill="#f0c020"/>
          <g id="Grupo_1144465" data-name="Grupo 1144465" transform="translate(26.819 11.912)">
            <path id="Trazado_979272" data-name="Trazado 979272" d="M117,55.03l-4.6,4.6-4.6-4.6a2.442,2.442,0,0,1,0-3.453h0a2.442,2.442,0,0,1,3.453,0l1.151,1.151,1.151-1.151A2.442,2.442,0,0,1,117,55.03Z" transform="translate(-107.079 -50.862)" fill="#fc5d3d"/>
          </g>
          <g id="Grupo_1144466" data-name="Grupo 1144466" transform="translate(52.074 24.917)">
            <path id="Trazado_979273" data-name="Trazado 979273" d="M212.553,105.181c-.948-.312-1.689-.514-2.184-2.65a.677.677,0,0,0-1.317,0c-.485,2.088-1.161,2.312-2.184,2.65a.677.677,0,0,0,0,1.284c1.7.562,1.893,1.392,2.184,2.65a.676.676,0,0,0,1.318,0c.484-2.088,1.2-2.324,2.184-2.65A.677.677,0,0,0,212.553,105.181Z" transform="translate(-206.404 -102.01)"/>
            <path id="Trazado_979274" data-name="Trazado 979274" d="M217.415,113.66a3.352,3.352,0,0,0-1,1.129,3.505,3.505,0,0,0-1.06-1.119,3.339,3.339,0,0,0,1.048-1.18A3.457,3.457,0,0,0,217.415,113.66Z" transform="translate(-213.079 -109.825)" fill="#f0c020"/>
          </g>
          <g id="Grupo_1144467" data-name="Grupo 1144467" transform="translate(5.592 24.917)">
            <path id="Trazado_979275" data-name="Trazado 979275" d="M29.743,105.181c-.948-.312-1.689-.514-2.184-2.65a.677.677,0,0,0-1.317,0c-.485,2.088-1.161,2.312-2.184,2.65a.677.677,0,0,0,0,1.284c1.7.562,1.893,1.392,2.184,2.65a.676.676,0,0,0,1.318,0c.484-2.088,1.2-2.324,2.184-2.65A.677.677,0,0,0,29.743,105.181Z" transform="translate(-23.594 -102.01)"/>
            <path id="Trazado_979276" data-name="Trazado 979276" d="M34.6,113.66a3.352,3.352,0,0,0-1,1.129,3.505,3.505,0,0,0-1.06-1.119,3.339,3.339,0,0,0,1.048-1.18A3.457,3.457,0,0,0,34.6,113.66Z" transform="translate(-30.269 -109.825)" fill="#f0c020"/>
          </g>
          <path id="Trazado_979277" data-name="Trazado 979277" d="M98.863,86.744a4.075,4.075,0,0,0,.432-1.821v-1.1a4.1,4.1,0,1,0-8.209,0v1.1a4.072,4.072,0,0,0,.432,1.821q-.2.158-.386.332A3.9,3.9,0,0,0,83.517,85.9a6.014,6.014,0,0,0-.574-.516,4.075,4.075,0,0,0,.432-1.821v-1.1a4.1,4.1,0,1,0-8.209,0v1.1a4.072,4.072,0,0,0,.432,1.821,5.931,5.931,0,0,0-2.267,4.663v8.06a1.78,1.78,0,0,0,1.78,1.78H99.35a1.78,1.78,0,0,0,1.78-1.78v-6.7A5.928,5.928,0,0,0,98.863,86.744Z" transform="translate(-55.092 -59.456)" fill="#e8a61e"/>
          <g id="Grupo_1144470" data-name="Grupo 1144470" transform="translate(0.636 32.09)">
            <path id="Trazado_979278" data-name="Trazado 979278" d="M170.143,159.523v1.785a2.231,2.231,0,0,0-1.8.648l-3.338,3.333h-2.52l4.6-4.592A3.986,3.986,0,0,1,170.143,159.523Z" transform="translate(-122.217 -152.068)" fill="#e8a61e"/>
            <path id="Trazado_979279" data-name="Trazado 979279" d="M175.17,132.684l-.086,11.03a2.7,2.7,0,0,1-.791,1.912l-12.517,12.517a2.39,2.39,0,0,0-.7,1.691v1.04H149.009c0-.119,0-7.617,0-7.508a9.211,9.211,0,0,1,2.694-6.675l3.252-3.249,3.338-3.333a2.239,2.239,0,0,1,3.206.036,2.272,2.272,0,0,1-.069,3.163l-3.12,3.117a2.47,2.47,0,0,0,.031,3.516,2.555,2.555,0,0,0,3.516-.086l7.681-7.684a2.1,2.1,0,0,0,.62-1.49c.046-4.218.028-2.443.086-8a2.461,2.461,0,1,1,4.923,0Z" transform="translate(-112.164 -130.22)" fill="#ffb69f"/>
            <g id="Grupo_1144469" data-name="Grupo 1144469">
              <g id="Grupo_1144468" data-name="Grupo 1144468">
                <path id="Trazado_979280" data-name="Trazado 979280" d="M71.063,165.29h-2.52l-3.338-3.333a2.231,2.231,0,0,0-1.8-.648v-1.785a3.989,3.989,0,0,1,3.056,1.177Z" transform="translate(-48.33 -152.068)" fill="#e8a61e"/>
                <path id="Trazado_979281" data-name="Trazado 979281" d="M30.261,160.874H18.2v-1.04a2.39,2.39,0,0,0-.7-1.691L4.977,145.626a2.7,2.7,0,0,1-.791-1.912L4.1,132.684a2.461,2.461,0,1,1,4.923,0c.058,5.551.041,3.776.086,8a2.1,2.1,0,0,0,.62,1.49l7.681,7.684a2.555,2.555,0,0,0,3.516.086,2.47,2.47,0,0,0,.031-3.516l-3.12-3.117a2.273,2.273,0,0,1-.069-3.163,2.239,2.239,0,0,1,3.206-.036l3.338,3.333,3.252,3.249a9.242,9.242,0,0,1,2.693,6.809c0,.087,0,7.286,0,7.374Z" transform="translate(-4.1 -130.22)" fill="#ffb69f"/>
              </g>
            </g>
          </g>
          <g id="Grupo_1144471" data-name="Grupo 1144471" transform="translate(20.019 20.684)">
            <path id="Trazado_979282" data-name="Trazado 979282" d="M89.874,91.11a2.324,2.324,0,0,1-2.324-2.324v-1.1a2.324,2.324,0,1,1,4.649,0v1.1A2.324,2.324,0,0,1,89.874,91.11Z" transform="translate(-85.715 -85.361)" fill="#feb69f"/>
            <path id="Trazado_979283" data-name="Trazado 979283" d="M88.651,120.19H80.332v-8.06a4.16,4.16,0,1,1,8.319,0Z" transform="translate(-80.332 -102.221)" fill="#72c2e9"/>
            <path id="Trazado_979284" data-name="Trazado 979284" d="M152.49,96.454a2.324,2.324,0,0,1-2.324-2.324v-1.1a2.324,2.324,0,1,1,4.649,0v1.1A2.325,2.325,0,0,1,152.49,96.454Z" transform="translate(-132.41 -89.346)" fill="#feb69f"/>
            <path id="Trazado_979285" data-name="Trazado 979285" d="M151.267,124.176h-8.319v-6.7a4.16,4.16,0,0,1,8.319,0Z" transform="translate(-127.027 -106.207)" fill="#fc5d3d"/>
            <path id="Trazado_979286" data-name="Trazado 979286" d="M121.767,109.646a2.124,2.124,0,0,1-2.124-2.124v-1.005a2.124,2.124,0,1,1,4.248,0v1.005A2.124,2.124,0,0,1,121.767,109.646Z" transform="translate(-109.648 -99.554)" fill="#feb69f"/>
            <path id="Trazado_979287" data-name="Trazado 979287" d="M120.65,132.93h-7.6v-4.074a3.8,3.8,0,0,1,7.6,0v4.074Z" transform="translate(-104.729 -114.962)" fill="#efefef"/>
          </g>
          <g id="Grupo_1144472" data-name="Grupo 1144472" transform="translate(39.572 48.549)">
            <path id="Trazado_979288" data-name="Trazado 979288" d="M157.87,207.057a.636.636,0,0,1-.636-.636v-.762a.636.636,0,0,1,1.271,0v.762A.636.636,0,0,1,157.87,207.057Zm0-3.3h0a.636.636,0,0,1-.635-.636c0-.21,0,.679,0-1.645a7.17,7.17,0,0,1,2.082-5.032l1.3-1.3a.636.636,0,0,1,.9.9l-1.3,1.3a5.891,5.891,0,0,0-1.71,4.133s0-.079,0,1.646A.635.635,0,0,1,157.871,203.755Z" transform="translate(-157.234 -194.953)" fill="#fae0e1"/>
          </g>
          <g id="Grupo_1144473" data-name="Grupo 1144473" transform="translate(20.235 48.549)">
            <path id="Trazado_979289" data-name="Trazado 979289" d="M85.017,207.058a.636.636,0,0,1-.636-.636v-.763a.636.636,0,0,1,1.271,0v.763A.636.636,0,0,1,85.017,207.058Zm0-3.305a.636.636,0,0,1-.636-.636c0-1.475,0-.943-.013-1.449a5.856,5.856,0,0,0-1.694-4.325l-1.305-1.3a.636.636,0,0,1,.9-.9l1.306,1.3a7.172,7.172,0,0,1,2.066,5.178c.018.464.014.071.014,1.495A.636.636,0,0,1,85.017,203.752Z" transform="translate(-81.182 -194.954)" fill="#fae0e1"/>
          </g>
          <path id="Trazado_979290" data-name="Trazado 979290" d="M115.585,49.266a3.081,3.081,0,0,0-4.351,0l-.7.7-.7-.7a3.078,3.078,0,0,0-4.352,4.353l4.6,4.6a.636.636,0,0,0,.9,0l4.6-4.6a3.075,3.075,0,0,0,0-4.353Zm-.9,3.453-4.155,4.155-4.154-4.153a1.807,1.807,0,0,1,2.555-2.555l1.15,1.151a.636.636,0,0,0,.9,0l1.151-1.151a1.806,1.806,0,0,1,2.554,2.554Z" transform="translate(-78.394 -37.089)"/>
          <path id="Trazado_979291" data-name="Trazado 979291" d="M79.668,85.823v1.1a2.949,2.949,0,0,0,.928,2.147,4.8,4.8,0,0,0-2.764,4.337v8.06a.636.636,0,0,0,.636.636h24.24a.636.636,0,0,0,.636-.636v-6.7a4.8,4.8,0,0,0-2.764-4.337,2.949,2.949,0,0,0,.928-2.147v-1.1a2.96,2.96,0,1,0-5.92,0v1.1a2.949,2.949,0,0,0,.928,2.147,4.8,4.8,0,0,0-2.741,3.886,4.449,4.449,0,0,0-1.235-.9,2.751,2.751,0,0,0,.807-1.948V90.462a2.76,2.76,0,0,0-5.52,0v1.005a2.751,2.751,0,0,0,.807,1.948,4.454,4.454,0,0,0-1.211.873v-.881a4.8,4.8,0,0,0-2.764-4.337,2.949,2.949,0,0,0,.928-2.147v-1.1a2.96,2.96,0,1,0-5.919,0Zm17.192,2.459v-1.1a1.689,1.689,0,1,1,3.378,0v1.1a1.689,1.689,0,0,1-3.378,0Zm-1.836,6.484a3.524,3.524,0,1,1,7.048,0v6.065H95.024c0-3.375,0-2.643,0-6.065Zm-5.925-3.3V90.461a1.488,1.488,0,1,1,2.977,0v1.005a1.488,1.488,0,1,1-2.977,0Zm1.488,2.76a3.169,3.169,0,0,1,3.166,3.166v3.439h-6.33V97.363A3.169,3.169,0,0,1,90.587,94.226Zm-4.435-.82v3.956c0,.01,0,.02,0,.029v3.439H79.1V93.406a3.524,3.524,0,0,1,7.048,0Zm-1.836-7.584v1.1a1.689,1.689,0,0,1-3.378,0v-1.1a1.689,1.689,0,0,1,3.378,0Z" transform="translate(-58.449 -62.814)"/>
          <path id="Trazado_979292" data-name="Trazado 979292" d="M195.231,225.3v-1.04a1.746,1.746,0,0,1,.511-1.237l.005,0,5.324-5.327a.632.632,0,0,0,0-.9.646.646,0,0,0-.9,0l-5.327,5.324-.01.012a3.007,3.007,0,0,0-.877,2.128v1.04a.636.636,0,1,0,1.271,0Z" transform="translate(-145.05 -162.56)"/>
          <path id="Trazado_979293" data-name="Trazado 979293" d="M88.074,35.467a3.1,3.1,0,0,0-3.1,3.093c-.039,3.736-.035,3.292-.086,8a1.456,1.456,0,0,1-.434,1.041l-7.681,7.684a1.932,1.932,0,0,1-2.625.08,1.834,1.834,0,0,1-.024-2.611l3.12-3.118a2.91,2.91,0,0,0,.08-4.05,2.862,2.862,0,0,0-1.236-.763V26.886H81.91a.636.636,0,0,0,.437-1.1L59.466,4.183a.647.647,0,0,0-.874,0L48.653,13.57a.635.635,0,0,0,.872.923l9.5-8.973L80.311,25.615H75.452a.636.636,0,0,0-.636.636V44.728a2.886,2.886,0,0,0-1.608.813l-3.152,3.148H48l-3.151-3.146a2.9,2.9,0,0,0-1.61-.815V26.25a.636.636,0,0,0-.636-.636H37.749l8.079-7.63a.635.635,0,0,0,.025-.9.649.649,0,0,0-.9-.025l-9.245,8.726a.638.638,0,0,0,.437,1.1h5.823V44.826a2.855,2.855,0,0,0-1.234.761,2.914,2.914,0,0,0,.079,4.052l3.119,3.116a1.834,1.834,0,0,1-.022,2.61,1.932,1.932,0,0,1-2.622-.076l0,0L39,53a.65.65,0,0,0-.9,0,.637.637,0,0,0,0,.9l2.288,2.291.016.013a3.2,3.2,0,0,0,4.393.08,3.106,3.106,0,0,0,.037-4.423l-3.12-3.117a1.637,1.637,0,0,1-.057-2.276,1.6,1.6,0,0,1,2.3-.024l6.59,6.582a8.751,8.751,0,0,1,2.509,6.452v7.282a.636.636,0,1,0,1.271,0c0-.048,0-7.376,0-7.423a9.884,9.884,0,0,0-2.879-7.209L49.274,49.96H68.784l-2.167,2.165a9.883,9.883,0,0,0-2.881,7.081s0,7.533,0,7.551a.636.636,0,0,0,1.271,0c0-3.253,0-7.468,0-7.468a8.607,8.607,0,0,1,2.506-6.265l6.592-6.584a1.6,1.6,0,0,1,2.3.027,1.634,1.634,0,0,1-.059,2.273l-3.121,3.118a3.1,3.1,0,0,0,.039,4.423,3.2,3.2,0,0,0,4.407-.094l7.68-7.682a2.713,2.713,0,0,0,.808-1.934c.049-4.476.046-4.178.086-8a1.826,1.826,0,1,1,3.651-.005L89.81,49.6a2.061,2.061,0,0,1-.6,1.459l0,0-3.6,3.6a.635.635,0,0,0,.9.9l3.6-3.6.007-.009a3.323,3.323,0,0,0,.97-2.349l.086-11.035A3.1,3.1,0,0,0,88.074,35.467Z" transform="translate(-26.89 -4.013)"/>
          <path id="Trazado_979294" data-name="Trazado 979294" d="M2.663,144.21l12.517,12.517a1.745,1.745,0,0,1,.515,1.241v1.04a.636.636,0,1,0,1.271,0v-1.04a3.007,3.007,0,0,0-.888-2.14L3.563,143.312a2.065,2.065,0,0,1-.606-1.469l-.086-11.025a1.826,1.826,0,1,1,3.651.007c.042,3.967.038,3.556.086,7.99a2.717,2.717,0,0,0,.794,1.926l.012.014,1.8,1.8a.636.636,0,1,0,.9-.9l-1.8-1.8,0,0a1.459,1.459,0,0,1-.431-1.044c-.051-4.642-.045-4.087-.086-7.99a3.1,3.1,0,1,0-6.194,0l.087,11.025a3.326,3.326,0,0,0,.977,2.362Z" transform="translate(-1.6 -96.265)"/>
          <path id="Trazado_979295" data-name="Trazado 979295" d="M80.209,48.891a.635.635,0,0,0,.026-.9.649.649,0,0,0-.9-.025.635.635,0,1,0,.872.923Z" transform="translate(-59.423 -36.667)"/>
          <path id="Trazado_979296" data-name="Trazado 979296" d="M38.065,189.069a.636.636,0,1,0,.9,0A.65.65,0,0,0,38.065,189.069Z" transform="translate(-28.655 -141.881)"/>
        </g>
      </g>
      <g id="Grupo_1144476" data-name="Grupo 1144476" transform="translate(33.103 7.507)">
        <path id="Trazado_979297" data-name="Trazado 979297" d="M142.184,34.416l-.555-.524a.636.636,0,1,1,.872-.924l.555.524a.636.636,0,1,1-.872.924Zm-2.4-2.269L125.7,18.851a.636.636,0,0,1,.873-.924l14.081,13.3a.636.636,0,0,1-.873.925Z" transform="translate(-125.499 -17.753)" fill="#f8e5b0"/>
      </g>
    </g>
  </g>
</svg>
