<svg xmlns="http://www.w3.org/2000/svg" xmlns:xlink="http://www.w3.org/1999/xlink" width="496.758" height="225.462" viewBox="0 0 496.758 225.462">
  <defs>
    <clipPath id="clip-path">
      <rect id="Rect치ngulo_405198" data-name="Rect치ngulo 405198" width="496.758" height="225.463" fill="none"/>
    </clipPath>
  </defs>
  <g id="Grupo_1144418" data-name="Grupo 1144418" transform="translate(0 -0.003)">
    <g id="Grupo_1144417" data-name="Grupo 1144417" transform="translate(0 0.003)" clip-path="url(#clip-path)">
      <path id="Trazado_978835" data-name="Trazado 978835" d="M496.7,135.42c-.54,18.279-4.631,44.025-12.765,63.4q-.4.949-.81,1.879a78.671,78.671,0,0,1-5.239,9.978q-.793,1.266-1.625,2.451a36.427,36.427,0,0,1-8.689,9.048,22.606,22.606,0,0,1-3.3,1.938.152.152,0,0,1-.037.018c-.026.014-.051.026-.077.038s-.081.037-.12.055q-.822.384-1.662.686l-30.634.164-43.359.231-9.681.051-106.712-.309-153.748-.44-.619,0-84.208-.24S12.166,210.783,3.56,186.364c-.221-.629-.436-1.266-.639-1.909A61.582,61.582,0,0,1,.015,164.331C.545,139.957,7.62,88.5,81.75,76.477,151.275,65.2,132.789-6.561,235.305.489c40.451,2.782,58.4,30.4,89.662,23.041,83.65-19.685,125.962-.986,148.273,31.31v0l.156.223q1.112,1.627,2.163,3.295a111.736,111.736,0,0,1,7.662,14.533q2.342,5.323,4.237,10.89.278.813.548,1.631l.012.035a.012.012,0,0,1,0,.008c1.66,5.024,3.08,10.164,4.306,15.357q.313,1.328.609,2.66v0q.438,1.961.84,3.925v0q.293,1.422.568,2.843.29,1.5.562,3,.6,3.3,1.12,6.6a58.884,58.884,0,0,1,.6,6.134c.148,2.819.171,6,.071,9.438" transform="translate(0 -0.003)" fill="#ebf3fa"/>
      <path id="Trazado_978836" data-name="Trazado 978836" d="M2281.382,370.795s3.711-8.308,12.585-7.385c0,0,12.884-13.847,26.624-1.846,0,0,14.6-2.974,25.421,2.575,7.211,3.7,9.593,7.58,9.593,7.58Z" transform="translate(-1906.648 -298.084)" fill="#f8fcff"/>
      <path id="Trazado_978837" data-name="Trazado 978837" d="M1236.406,199.191a14.974,14.974,0,0,1,14.535-7.445s14.88-13.961,30.748-1.861c0,0,16.867-3,29.359,2.6,8.328,3.729,11.079,7.642,11.079,7.642Z" transform="translate(-1033.317 -154.572)" fill="#f8fcff"/>
      <path id="Trazado_978838" data-name="Trazado 978838" d="M1620.858,357.085a9.9,9.9,0,0,1,9.61-4.922s9.837-9.229,20.328-1.23c0,0,11.151-1.982,19.41,1.716,5.506,2.466,7.324,5.052,7.324,5.052Z" transform="translate(-1354.62 -290.563)" fill="#f8fcff"/>
      <path id="Trazado_978839" data-name="Trazado 978839" d="M129.273,1172.811l-79.057-.241s-19.944-13.587-28.023-38.007c29.133,8.258,39.368,30.041,49.562,26.524,10.844-3.741,56.557-3.745,57.519,11.724" transform="translate(-18.548 -948.203)" fill="#a8d29f"/>
      <path id="Trazado_978840" data-name="Trazado 978840" d="M2126.634,451.234c-.4,4.476-.968,9.849-1.639,15.789-.335,2.975-.7,6.092-1.082,9.31-2.277,19.1-5.286,41.78-7.69,59.43-.278,2.049-.55,4.03-.811,5.929a73.552,73.552,0,0,1-6.863,12.429,36.435,36.435,0,0,1-8.689,9.048,22.6,22.6,0,0,1-3.3,1.938h-53.268l-20.838,0h-69.162s-3.24-12.483,17.291-13.08c36.168-1.053,15.943-18,37.931-18.553a62.039,62.039,0,0,1,6.753.248,29.65,29.65,0,0,0,7.187-.26q.772-.121,1.53-.284c.441-.095.879-.2,1.313-.314.053-.012.109-.026.162-.041.763-.2,1.518-.434,2.259-.694.152-.053.306-.106.456-.162a33.051,33.051,0,0,0,3.194-1.366q1.37-.668,2.682-1.457.651-.39,1.287-.806c.162-.1.322-.211.481-.319s.312-.211.467-.319a43.17,43.17,0,0,0,3.421-2.648c.087-.073.172-.148.256-.223s.17-.146.252-.219q.355-.314.7-.633.574-.526,1.128-1.069,1.265-1.236,2.439-2.553.926-1.032,1.791-2.106a61.6,61.6,0,0,0,4.878-7c5.9-9.846,8.394-20.109,6.521-24.368-.01-.024-.022-.049-.032-.073,0,0,0,0,0,0a3.057,3.057,0,0,0-2.839-1.962,56.155,56.155,0,0,1-8.525-.765c-10.156-1.8-20.336-7.62-16.954-26.209,4.367-24,23.281-18.839,29.5-29.153s14.776-22.781,37.107-20.417c8.167.864,14.667,2.612,19.584,5.58q2.343,5.324,4.237,10.89.278.813.548,1.631l.012.035a.011.011,0,0,1,0,.008c1.66,5.024,3.08,10.164,4.306,15.357q.314,1.328.609,2.66v0q.438,1.961.84,3.925v0q.293,1.422.568,2.843" transform="translate(-1632.291 -340.991)" fill="#a8d29f"/>
      <path id="Trazado_978841" data-name="Trazado 978841" d="M2520.323,768v98.078h50.051c.039-.018.081-.036.12-.055s.051-.024.077-.038h3.34v-.018h-3.3a22.6,22.6,0,0,0,3.3-1.938,36.419,36.419,0,0,0,8.689-9.048,73.552,73.552,0,0,0,6.864-12.429q.411-.929.81-1.879V768Z" transform="translate(-2106.341 -641.847)" fill="#f9ddbf"/>
      <path id="Trazado_978842" data-name="Trazado 978842" d="M2958.946,776.4c-.54,18.279-4.631,44.025-12.765,63.4V767.133l.742-.008,8.03-.109,3.922-.053c.148,2.82.171,6,.071,9.438" transform="translate(-2462.249 -640.984)" fill="#fff3e9"/>
      <path id="Trazado_978843" data-name="Trazado 978843" d="M2574.158,535.34q.313,1.328.609,2.66v0l-.519,1.067-10.5,21.609-2.39,4.919-.739,1.52v0H2491l4.817-6.24.156-.2,31.142-40.746.185.173,20.989-.063,11.857-.037,9.706-.03a.012.012,0,0,1,0,.008c1.661,5.024,3.08,10.164,4.306,15.357" transform="translate(-2081.832 -434.529)" fill="#ed9f4a"/>
      <path id="Trazado_978844" data-name="Trazado 978844" d="M2589.582,542.187v0l-9.1,18.741-.006.008-.736,1.516v0l-2.391,4.921h-69.629l2.068-2.68,0,0,2.9-3.758,29.906-38.731,1.424-1.844,18.25-.055,11.856-.036,9.7-.03c1.66,5.024,3.08,10.164,4.306,15.357q.313,1.328.609,2.66v0q.437,1.961.84,3.926" transform="translate(-2095.807 -434.789)" fill="#f9ddbf"/>
      <path id="Trazado_978845" data-name="Trazado 978845" d="M2762.211,560.508a59.007,59.007,0,0,0-.6-6.134q-.524-3.3-1.12-6.6-.273-1.5-.562-3-.276-1.423-.568-2.843v0q-.4-1.966-.84-3.925v0q-.3-1.331-.609-2.66c-1.226-5.193-2.646-10.333-4.306-15.357a.012.012,0,0,0,0-.008l-.012-.035-21.694,0-21.032-.006.156.211,1.354,1.8,29.05,38.731,3.691,4.919,1.14,1.52,1.966,2.618,1.3.02,7.689.116,5.075.075c.1-3.442.077-6.619-.071-9.438" transform="translate(-2265.585 -434.529)" fill="#ed9f4a"/>
      <path id="Trazado_978846" data-name="Trazado 978846" d="M2615.868,701.445h-1a6.174,6.174,0,0,0-6.174,6.174v15.69h13.152v-15.89a5.974,5.974,0,0,0-5.974-5.974" transform="translate(-2180.193 -586.228)" fill="#efcdaf"/>
      <path id="Trazado_978847" data-name="Trazado 978847" d="M2613.924,699.118h-1a6.565,6.565,0,0,0-6.558,6.556v16.073h13.918V705.475a6.363,6.363,0,0,0-6.356-6.357m5.589,21.862h-5.836V706.644h5.836Zm-12.386-14.336h5.566V720.98h-5.566Zm12.386-.964h-12.386v-.006a5.8,5.8,0,0,1,5.792-5.791h1a5.6,5.6,0,0,1,5.589,5.592Z" transform="translate(-2178.248 -584.283)" fill="#fff3e9"/>
      <path id="Trazado_978848" data-name="Trazado 978848" d="M2740.136,701.445h-1a6.174,6.174,0,0,0-6.174,6.174v15.69h13.152v-15.89a5.974,5.974,0,0,0-5.974-5.974" transform="translate(-2284.049 -586.228)" fill="#efcdaf"/>
      <path id="Trazado_978849" data-name="Trazado 978849" d="M2738.184,699.118h-1a6.565,6.565,0,0,0-6.558,6.556v16.073h13.92V705.475a6.365,6.365,0,0,0-6.358-6.357m5.592,21.862h-5.837V706.644h5.837Zm-12.386-14.336h5.564V720.98h-5.564Zm12.386-.964h-12.386v-.006a5.8,5.8,0,0,1,5.791-5.791h1a5.6,5.6,0,0,1,5.592,5.592Z" transform="translate(-2282.097 -584.283)" fill="#fff3e9"/>
      <path id="Trazado_978850" data-name="Trazado 978850" d="M2347.271,887.437l-16.317,33.594h-49.572l25.844-33.471Z" transform="translate(-1906.648 -741.669)" fill="#ed9f4a"/>
      <path id="Trazado_978851" data-name="Trazado 978851" d="M2356.313,887.437,2340,921.031h-49.572l25.845-33.471Z" transform="translate(-1914.205 -741.669)" fill="#f9ddbf"/>
      <path id="Trazado_978852" data-name="Trazado 978852" d="M2339.892,1091.954v44.774l-49.464.1v-44.871Z" transform="translate(-1914.209 -912.593)" fill="#f9ddbf"/>
      <path id="Trazado_978853" data-name="Trazado 978853" d="M2633.448,1091.957v42.817a22.626,22.626,0,0,1-3.3,1.938h3.3v.017h-41.886v-44.772Z" transform="translate(-2165.878 -912.595)" fill="#fff3e9"/>
      <path id="Trazado_978854" data-name="Trazado 978854" d="M2510.314,923.636h-45l-26.6-35.458,13.4,0,30.82.007Z" transform="translate(-2038.142 -742.288)" fill="#ed9f4a"/>
      <path id="Trazado_978855" data-name="Trazado 978855" d="M2396.132,1085.22v37.412h-20.839v-37.068a10.593,10.593,0,0,1,10.591-10.592,10.251,10.251,0,0,1,10.248,10.248" transform="translate(-1985.133 -898.4)" fill="#efcdaf"/>
      <path id="Trazado_978856" data-name="Trazado 978856" d="M2652.365,923.647h-2.935l-40.74-35.456,16.3.007Z" transform="translate(-2180.193 -742.299)" fill="#e58638"/>
      <path id="Trazado_978857" data-name="Trazado 978857" d="M2393.621,1082.954h0a9,9,0,0,0-9,9v35.87h17.715v-36.162a8.709,8.709,0,0,0-8.708-8.709" transform="translate(-1992.924 -905.071)" fill="#fff3e9"/>
      <path id="Trazado_978858" data-name="Trazado 978858" d="M2407.42,1098.4v.313H2392.1v-.059a7.784,7.784,0,0,1,7.784-7.784h0a7.53,7.53,0,0,1,7.53,7.53" transform="translate(-1999.182 -911.683)" fill="#f9ddbf"/>
      <path id="Trazado_978859" data-name="Trazado 978859" d="M2405.485,1093.673a7.894,7.894,0,0,0-4.466-4.255,7.765,7.765,0,0,0-2.75-.5,8.028,8.028,0,0,0-2.8.5,8.113,8.113,0,0,0-5.305,7.6v.379h15.954v-.633a7.8,7.8,0,0,0-.636-3.1m-14.677,3.089a7.45,7.45,0,0,1,2.39-5.213c.156-.144.317-.282.485-.412a7.429,7.429,0,0,1,4.59-1.579,7.186,7.186,0,0,1,4.29,1.418c.171.128.336.264.495.4h0v0a7.2,7.2,0,0,1,2.423,5.38Zm14.34-3.07a.123.123,0,0,1-.01-.024c-.051-.11-.1-.219-.16-.327-.045-.089-.091-.175-.14-.26-.015-.03-.036-.061-.053-.093s-.035-.061-.053-.091l-.015-.027s0,0,0-.006c-.026-.044-.053-.087-.083-.13-.041-.067-.085-.134-.13-.2s-.09-.13-.138-.2c-.03-.041-.061-.083-.093-.124-.043-.059-.089-.116-.136-.174s-.087-.106-.132-.16-.093-.108-.14-.16-.09-.1-.138-.148-.065-.069-.1-.1c-.052-.051-.1-.1-.158-.154s-.087-.083-.132-.122c-.028-.026-.055-.052-.083-.075l-.191.258v0a7.226,7.226,0,0,1,1.916,2.733c.087-.073.172-.148.256-.223-.027-.067-.055-.134-.085-.2" transform="translate(-1997.564 -910.056)" fill="#efcdaf"/>
      <path id="Trazado_978860" data-name="Trazado 978860" d="M2470.469,1249.1a.546.546,0,1,1,.546.547.546.546,0,0,1-.546-.547" transform="translate(-2064.676 -1043.472)" fill="#efcdaf"/>
      <path id="Trazado_978861" data-name="Trazado 978861" d="M2417.593,1100.288l-.2.275-4.024,5.381-.477.638h-.306l-.55-.638-4.5-5.212-.214-.247.482-.416.217.25,4.7,5.436,4.184-5.6.19-.254Z" transform="translate(-2011.894 -919.238)" fill="#efcdaf"/>
      <rect id="Rect치ngulo_405197" data-name="Rect치ngulo 405197" width="19.618" height="1.457" transform="translate(391.189 188.15)" fill="#efcdaf"/>
      <path id="Trazado_978862" data-name="Trazado 978862" d="M2392.6,1193.063h15.156v-30.405H2392.6Zm14.994-.16h-14.833V1162.82H2407.6Z" transform="translate(-1999.602 -971.683)" fill="#efcdaf"/>
      <path id="Trazado_978863" data-name="Trazado 978863" d="M2674.561,1274.645q-.792,1.266-1.625,2.451a36.431,36.431,0,0,1-8.689,9.048,22.652,22.652,0,0,1-3.3,1.938.15.15,0,0,1-.037.017c-.025.014-.051.026-.077.038s-.081.037-.12.055q-.823.384-1.662.686l-30.633.164a16.977,16.977,0,0,1,8.352-11.434s0,0,0,0a23.637,23.637,0,0,1,2.476-1.266h0c.264-.118.53-.233.8-.341.465-.189.936-.366,1.421-.534h0q.612-.213,1.244-.4c.939-.284,1.911-.534,2.908-.751a62.4,62.4,0,0,1,13.125-1.234c2.758,0,5.58.126,8.411.345a44.585,44.585,0,0,1,7.4,1.222" transform="translate(-2196.678 -1063.966)" fill="#82b378"/>
      <path id="Trazado_978864" data-name="Trazado 978864" d="M2665.118,1221.065s-5.2-19.032-9.17-18.029,9.17,18.029,9.17,18.029" transform="translate(-2219.063 -1005.397)" fill="#82b378"/>
      <path id="Trazado_978865" data-name="Trazado 978865" d="M2640.127,1262.666s-13.426-14.456-16.481-11.727,16.481,11.727,16.481,11.727" transform="translate(-2192.422 -1045.177)" fill="#82b378"/>
      <path id="Trazado_978866" data-name="Trazado 978866" d="M2711.141,1241.976s.859-19.711-3.229-19.968,3.229,19.968,3.229,19.968" transform="translate(-2262.08 -1021.282)" fill="#82b378"/>
      <path id="Trazado_978867" data-name="Trazado 978867" d="M969.8,561.419s12.387,21.646,9.9,29.112-10.8,7.942-10.8,7.942Z" transform="translate(-809.755 -469.202)" fill="#f9ddbf"/>
      <path id="Trazado_978868" data-name="Trazado 978868" d="M923.044,1324.112H905.75c-1.239-.84.334-9.055.334-9.055s4.72-1.791,5.535,1.851,6.012,4.8,8.761,5.24a2.96,2.96,0,0,1,2.664,1.964" transform="translate(-756.576 -1098.681)" fill="#233862"/>
      <path id="Trazado_978869" data-name="Trazado 978869" d="M766.9,1324.112H749.606c-1.239-.84.334-9.055.334-9.055s4.72-1.791,5.535,1.851,6.012,4.8,8.761,5.24a2.959,2.959,0,0,1,2.664,1.964" transform="translate(-626.08 -1098.681)" fill="#233862"/>
      <path id="Trazado_978870" data-name="Trazado 978870" d="M874.626,855.372s-.777,9.7-1.691,21.355c-1.242,15.836-4.591,55.1-4.591,55.1s-2.2,1.873-7.059.848a153.7,153.7,0,0,1-5.378-29q-.029-.38-.058-.764c-1.151-15.738-2.942-48.877-2.942-48.877Z" transform="translate(-712.812 -713.748)" fill="#2b478b"/>
      <path id="Trazado_978871" data-name="Trazado 978871" d="M874.891,841.807s-1.043,13.049-1.956,24.706l-17.027,26.942c-.019-.254-.038-.509-.058-.764-1.151-15.738-2.942-48.877-2.942-48.877Z" transform="translate(-712.812 -703.534)" fill="#233862"/>
      <path id="Trazado_978872" data-name="Trazado 978872" d="M782.936,811.586s-12.349,30.74-16.3,42.393c-2.812,8.3-10.743,37.418-10.743,37.418a7.969,7.969,0,0,1-6.347-.979s-2.951-29.748,3.009-38.137c3.162-4.45.786-46.261,13.607-46.619s16.771,5.925,16.771,5.925" transform="translate(-625.82 -673.313)" fill="#2b478b"/>
      <path id="Trazado_978873" data-name="Trazado 978873" d="M870.137,504.469a7.709,7.709,0,0,1-5.32.716,11.037,11.037,0,0,1-3.6-1.521,10.644,10.644,0,0,1-1.454-1.1s.064-.092.171-.273c.557-.953,2.246-4.378,1.495-9.881a3.907,3.907,0,0,1,1.359.225c2.451.58,7.377,1.977,7.595,2.039h.008s.06,1.157.263,3.232c.017.183.035.374.055.572.025.243.05.5.08.767a17.158,17.158,0,0,1-.647,5.22" transform="translate(-718.536 -411.513)" fill="#ffb27d"/>
      <path id="Trazado_978874" data-name="Trazado 978874" d="M879.669,499.173c-3.658.839-9.118-4.562-9.118-4.562a5.751,5.751,0,0,1,1.251-.71c2.451.58,7.377,1.977,7.595,2.04h.008s.06,1.157.263,3.232" transform="translate(-727.557 -412.775)" fill="#ed975d"/>
      <path id="Trazado_978875" data-name="Trazado 978875" d="M835.4,581.992c-.266,3.524-1.011,6.046-2.643,6.046a54.828,54.828,0,0,1-15.926,2.623,39.987,39.987,0,0,1-6.086-.652c-2.033-.344-3.643-.691-3.643-.691-1.744-.4-3.668-1.479-3.41-3.467.136-1.058.236-2.417.3-3.991,0-.1.009-.2.014-.3.191-4.606.161-10.95.184-17.024.017-3.731.053-7.357.179-10.417,0,0-1.712-12.016.188-13.988,2.227-2.307,8.765-3.015,9.174-2.926.122-.026.246-.057.372-.078,0,0,5.685,3.1,9.823.781,0,0,6.034,1.374,7.77,3.21a16.133,16.133,0,0,1,3.056,8.771c.09,5.939-.142,12.686-.142,12.688.063.965.167,2.209.28,3.628.121,1.513.255,3.221.369,5,.057.9.109,1.814.151,2.73a69.812,69.812,0,0,1-.012,8.058" transform="translate(-671.659 -448.897)" fill="#f9ddbf"/>
      <path id="Trazado_978876" data-name="Trazado 978876" d="M865.145,537.635s6.162,6.355,10.567,5.053c0,0,.587-.858-1.4-1.133s-4.126-.163-9.17-3.92" transform="translate(-723.039 -449.325)" fill="#f2ccaa"/>
      <path id="Trazado_978877" data-name="Trazado 978877" d="M865.826,428.116a18.6,18.6,0,0,1-3.422.8c-2.8.379-6.492.155-7.651-3.238-1.951-5.711-4.444-9.136,1.3-11.468,3.074-1.249,5.041-1.315,6.376-.838a4.62,4.62,0,0,1,2.363,2.045c1.115,1.748,3.358,11.7,1.035,12.7" transform="translate(-712.471 -345.243)" fill="#ffb27d"/>
      <path id="Trazado_978878" data-name="Trazado 978878" d="M841.368,392.536a1.865,1.865,0,0,1,.646,3.208c-2.213,1.523-4.918.925-5.915,1.369-1.428.635-1.685,3.03-1.71,3.79s-.126,1.4-2.065.948a.943.943,0,0,0-.7.042c-.8.477.224,2.791.534,3.292,0,0,.446,1.657-.544,2.464-.12.1-2.065.947-6.753-6.228a6.663,6.663,0,0,1-.3-6.106,10.406,10.406,0,0,1,8.871-5.468c3.338,0,5.2,2.022,7.944,2.689" transform="translate(-688.613 -325.812)" fill="#163560"/>
      <path id="Trazado_978879" data-name="Trazado 978879" d="M917.073,482.087s.12.739-1.6,1.329c0,0-1.443.5-1.707-.263a4.9,4.9,0,0,1,3.305-1.067" transform="translate(-763.674 -402.901)" fill="#fff"/>
      <path id="Trazado_978880" data-name="Trazado 978880" d="M896.022,771.027s4.635,3.058,6.424,3.254c1.217.133,6.025-.063,6.051-.671.037-.858-2.937-1.765-3.707-2.11s-1.373-.742-1.368-1.075,2.98.768,2.659.043-3.069-1.989-3.733-2.11-2.805.6-3.638.22-2.689,2.448-2.689,2.448" transform="translate(-748.844 -642.139)" fill="#ed975d"/>
      <path id="Trazado_978881" data-name="Trazado 978881" d="M822.558,714.559c.616,1.156-2.034,2.683-2.034,2.683a48.735,48.735,0,0,1-14.838,4.075c0-.1.009-.2.014-.3.191-4.606.161-10.95.183-17.024,0,0,15.659,8.664,16.675,10.571" transform="translate(-673.346 -588.353)" fill="#f2ccaa"/>
      <path id="Trazado_978882" data-name="Trazado 978882" d="M752.135,548.612s-3.174,1.341-6.947,8.391-7.342,21.978-5.812,24.4,14.411,7.984,25.64,6.5c0,0,2.785-2.537,2.224-3.515,0,0-18.828-7.676-18.839-8.593s6.717-8.828,7.1-12.766-3.364-14.424-3.364-14.424" transform="translate(-617.625 -458.499)" fill="#f9ddbf"/>
      <path id="Trazado_978883" data-name="Trazado 978883" d="M931.807,657.176a13.5,13.5,0,0,0,0,3.041c.224.626,6.636.767,6.8.179s.4-2.37,0-2.683-6.8-.537-6.8-.537" transform="translate(-778.668 -549.231)" fill="#ffb27d"/>
      <path id="Trazado_978884" data-name="Trazado 978884" d="M917.725,688.742h-1.441a6.509,6.509,0,0,1-6.49-6.49v-6.218c0-3.57.078-6.741,3.915-7.919l6.746.509c5.828,1.609,3.759,3.841,3.759,7.41v6.218a6.509,6.509,0,0,1-6.49,6.49" transform="translate(-760.354 -558.373)" fill="#ffb27d"/>
      <path id="Trazado_978885" data-name="Trazado 978885" d="M973.739,642.055a4.3,4.3,0,0,0,2.727-.22c1.639-.9,3.6-1.411,3.943-1.825.581-.7,3.41-3.582,3.41-3.582l1.359.908s-1.309,5.324-2.37,6.274-2.959,4.327-6.159,4.8c-1.662.248-2.91-6.361-2.91-6.361" transform="translate(-813.795 -531.891)" fill="#ffb27d"/>
      <path id="Trazado_978886" data-name="Trazado 978886" d="M1033.837,625.168s-.5-1.339-.087-1.514.649.8.649.8,1.067-2.215,2.153-1.258-1.356,2.881-1.356,2.881Z" transform="translate(-863.814 -520.63)" fill="#ffb27d"/>
      <path id="Trazado_978887" data-name="Trazado 978887" d="M873.939,639.93a4.3,4.3,0,0,1-2.727-.22c-1.639-.9-3.6-1.411-3.943-1.825-.581-.7-3.41-3.582-3.41-3.582l-1.36.908s1.309,5.324,2.37,6.274,2.959,4.327,6.159,4.8c1.663.248,2.91-6.361,2.91-6.361" transform="translate(-720.828 -530.115)" fill="#ffb27d"/>
      <path id="Trazado_978888" data-name="Trazado 978888" d="M855.547,623.043s.5-1.339.087-1.514-.649.8-.649.8-1.068-2.215-2.153-1.259,1.356,2.881,1.356,2.881Z" transform="translate(-712.516 -518.854)" fill="#ffb27d"/>
      <path id="Trazado_978889" data-name="Trazado 978889" d="M972.479,738.651s3.775,1.655,5.766,2.241a13.629,13.629,0,0,1,4.2,2.06c.048.211.072,2.054-.869,2.415s-11.156,1.822-12.672,1.227c0,0,1.089-7.323,3.574-7.942" transform="translate(-809.755 -617.323)" fill="#ffb27d"/>
      <path id="Trazado_978890" data-name="Trazado 978890" d="M1021.535,741.481a4.42,4.42,0,0,0-2.859,1.448,1.088,1.088,0,0,1-1.2.328,3.818,3.818,0,0,0-1.028,5.224s3.817-.238,4.36-.75.728-6.251.728-6.251" transform="translate(-848.986 -619.688)" fill="#fff"/>
      <path id="Trazado_978891" data-name="Trazado 978891" d="M1036.509,747.719a3.116,3.116,0,0,0,2.25-2.359c.344-1.908-.011-3.713-1.266-3.872a2.125,2.125,0,0,0-2.393,1.43c-.344.91-1.354,4.891,1.41,4.8" transform="translate(-864.687 -619.675)" fill="#afcdfb"/>
      <path id="Trazado_978892" data-name="Trazado 978892" d="M916.357,578.758a5.6,5.6,0,0,1,5.257,3.448c1.451,3.618,1.736,9.841-1.629,10.821a11.08,11.08,0,0,1-6.982-.651c-1.17-.448-1.568-1.434-2.236-2.214-4.293-5.009-2.907-10.957,5.591-11.4" transform="translate(-759.193 -483.692)" fill="#ffb27d"/>
      <path id="Trazado_978893" data-name="Trazado 978893" d="M903.3,733.175a37.936,37.936,0,0,0,14.412,0,13.744,13.744,0,0,1,.895,1.755c.218.857-.175,2.263-1.716,4.053-2.267,2.633-10.014,4.6-12.732,2.914-2.382-1.476-2.918-6.5-.859-8.721" transform="translate(-753.859 -612.746)" fill="#fff"/>
      <path id="Trazado_978894" data-name="Trazado 978894" d="M925.412,749.314a40.212,40.212,0,0,1,5.219,2.621,13.641,13.641,0,0,1,3.641,2.938c0,.216-.384,2.019-1.382,2.163s-11.282-.692-12.629-1.607A2.617,2.617,0,0,1,918.5,753.2c-.293-2.586.977-5.957,6.909-3.891" transform="translate(-767.599 -625.699)" fill="#ffb27d"/>
      <path id="Trazado_978895" data-name="Trazado 978895" d="M984.9,763.289a4.419,4.419,0,0,0-3.108.78,1.089,1.089,0,0,1-1.244.054,3.818,3.818,0,0,0-2.158,4.868s3.775.612,4.418.234,2.093-5.935,2.093-5.935" transform="translate(-817.52 -637.886)" fill="#fff"/>
      <path id="Trazado_978896" data-name="Trazado 978896" d="M998.975,768.956a3.115,3.115,0,0,0,2.716-1.8c.757-1.785.811-3.623-.379-4.056a2.124,2.124,0,0,0-2.65.865c-.537.811-2.4,4.47.313,4.993" transform="translate(-833.684 -637.619)" fill="#afcdfb"/>
      <path id="Trazado_978897" data-name="Trazado 978897" d="M966.084,640.771a1.789,1.789,0,0,0,1.777.576,1.848,1.848,0,0,0,1.165-1.426,6.517,6.517,0,0,0-2.942.85" transform="translate(-807.397 -534.81)" fill="#fff"/>
      <path id="Trazado_978898" data-name="Trazado 978898" d="M926.19,627.5s-1.476-1.294-1.945-.355.6,2.314,1.476,2.331,1.05-1.562.47-1.976" transform="translate(-772.335 -523.844)" fill="#ed975d"/>
      <path id="Trazado_978899" data-name="Trazado 978899" d="M930,628.027s-1.127-.988-1.485-.271.461,1.767,1.127,1.78.8-1.193.359-1.509" transform="translate(-775.927 -524.425)" fill="#ffb27d"/>
      <path id="Trazado_978900" data-name="Trazado 978900" d="M929.139,578.474a6.957,6.957,0,0,0,5.667,2.392,3.467,3.467,0,0,0,2.149-1.195,3.74,3.74,0,0,1-1.852.281s3.62-.553,3.574-1.521-1.945-2.053-3.332-2.219c-1.1-.132-4.439-.11-5.449.443s-1.04,1.5-.757,1.819" transform="translate(-776.392 -481.509)" fill="#ff9843"/>
      <path id="Trazado_978901" data-name="Trazado 978901" d="M914.319,577.566s-4.19.681-4.935,4.021a7.834,7.834,0,0,0,.334,3.3s-.084-3.976,3.265-4.142c2.438-.121,4.035-.369,4.035-.369Z" transform="translate(-759.943 -482.697)" fill="#ff9843"/>
      <path id="Trazado_978902" data-name="Trazado 978902" d="M940.95,698.166a.252.252,0,1,1-.252-.252.252.252,0,0,1,.252.252" transform="translate(-785.972 -583.277)" fill="#ed975d"/>
      <path id="Trazado_978903" data-name="Trazado 978903" d="M979.306,698.166a.252.252,0,1,1-.252-.252.251.251,0,0,1,.252.252" transform="translate(-818.027 -583.277)" fill="#ed975d"/>
      <path id="Trazado_978904" data-name="Trazado 978904" d="M963.215,709.837a2.6,2.6,0,0,0-1.429-1.694,16.635,16.635,0,0,0-2.744-1.076c-.943-.171-2.872-1.306-3.03-.717s1.361,1.272,1.369,1.922-4.265,2.239-4.151,2.913a2.623,2.623,0,0,0,2.987,1.779c1.655-.4,5.768-1.366,6.717-1.633.5-.141.452-.84.281-1.494" transform="translate(-796.653 -590.187)" fill="#ed975d"/>
      <path id="Trazado_978905" data-name="Trazado 978905" d="M1270.962,1287.7a3.243,3.243,0,0,0-.159,2.562,3.529,3.529,0,0,1,.087,2.489.828.828,0,0,1-1.466.175l-3.957-5.964a1.029,1.029,0,0,1,.377-1.48c.471-.249,1.017-.544,1.425-.785a3.048,3.048,0,0,1,2.156-.125Z" transform="translate(-1057.46 -1073.453)" fill="#2c3a64"/>
      <path id="Trazado_978906" data-name="Trazado 978906" d="M1268.323,1108.214c-1.049,3.292-10.634,13.641-10.634,13.641s-4.1-3.011-4-5.19c0,0,5.05-9.4,5.1-10.554a13.7,13.7,0,0,0-1.437-2.975q-.177-.321-.372-.664h0c-1.513-2.687-3.691-6.372-5.4-9.445-.041-.074-.081-.147-.121-.22-1.528-2.765-2.642-4.99-2.488-5.467.448-1.391,13.592-3.266,13.592-3.266s6.8,20.849,5.757,24.14" transform="translate(-1043.809 -906.007)" fill="#35488b"/>
      <path id="Trazado_978907" data-name="Trazado 978907" d="M1269.71,1126.648c-1.513-2.687-3.691-6.372-5.4-9.445l-.121-.22.006-3.284,4.555-.7Z" transform="translate(-1056.539 -930.184)" fill="#2c3a64"/>
      <path id="Trazado_978908" data-name="Trazado 978908" d="M1166.112,1317.845s-.718,2.982.011,4.228a3.53,3.53,0,0,1,.477,2.444.828.828,0,0,1-1.421.4l-4.845-5.268a1.029,1.029,0,0,1,.14-1.521c.426-.32.919-.7,1.284-1a3.048,3.048,0,0,1,2.11-.462Z" transform="translate(-969.513 -1100.375)" fill="#2c3a64"/>
      <path id="Trazado_978909" data-name="Trazado 978909" d="M1187.61,1089.407s-5.1,17.741-7,22.2c-1.322,3.106-7.7,17.459-7.7,17.459s-6.368-1.942-5.938-3.906c0,0,4.065-14.719,4.794-16.382.945-2.159.351-16.855,3.943-19.5s11.9.128,11.9.128" transform="translate(-975.269 -909.401)" fill="#35488b"/>
      <path id="Trazado_978910" data-name="Trazado 978910" d="M1292.547,842.788s8.059-8.482,8.5-9.592,2.123-10.849,2.123-10.849l2.095.082s.55,11.466-.139,13.765-10.155,12.618-10.155,12.618Z" transform="translate(-1080.236 -687.271)" fill="#ffb27d"/>
      <path id="Trazado_978911" data-name="Trazado 978911" d="M1238.024,892.921a4.752,4.752,0,0,1-.576-1.236,8.9,8.9,0,0,1-.328-2.842,10.215,10.215,0,0,1,.111-1.237l-5.551-2.286a17.318,17.318,0,0,1,.174,3.744,13.939,13.939,0,0,1-.867,4.239l.1.251q-.928.175-1.972.408l7.18,3.793,4.152-4.315a5.235,5.235,0,0,0-2.417-.519" transform="translate(-1027.219 -739.9)" fill="#ffb27d"/>
      <path id="Trazado_978912" data-name="Trazado 978912" d="M1251.409,909.607c-3.035.17-5.594-2.621-5.594-2.621l5.266-.221a8.889,8.889,0,0,0,.328,2.842" transform="translate(-1041.181 -757.823)" fill="#ea9c68"/>
      <path id="Trazado_978913" data-name="Trazado 978913" d="M1129.842,847.735s-6.677-7.311-9.814-9.492c0,0-4.834-9.568-5.214-10.193s-2.366.743-2.366.743,2.271,9.5,4.062,12.226,7.406,11.9,10.839,11.974,2.492-5.258,2.492-5.258" transform="translate(-929.72 -691.901)" fill="#ffb27d"/>
      <path id="Trazado_978914" data-name="Trazado 978914" d="M1238.917,851s-5.908,2.094-8.389-2.536c-2.677-5-.523-8.978,1.507-9.4,4.048-.846,6.553.517,7.408,2.106s2.736,8.706-.526,9.832" transform="translate(-1027.36 -701.02)" fill="#ffb27d"/>
      <path id="Trazado_978915" data-name="Trazado 978915" d="M1270.25,892.746a2.041,2.041,0,0,0,2.257.382s1.427-.382,1.006-1.337a4.939,4.939,0,0,0-3.263.955" transform="translate(-1061.602 -745.297)" fill="#fff"/>
      <path id="Trazado_978916" data-name="Trazado 978916" d="M1210.494,828.382a11.247,11.247,0,0,1-.888-3.137s-1.742-1.88-.865-2.453,1.471.575,1.662.324.193-4.227,1.319-4.195,5.357.97,7.037-.74-3.213-7.441-10.455-4.472-5.04,11.112,2.189,14.672" transform="translate(-1006.108 -679.352)" fill="#2c3a64"/>
      <path id="Trazado_978917" data-name="Trazado 978917" d="M1209.113,830.8a2.624,2.624,0,0,1-.118-1.724,2.759,2.759,0,0,0,.524,1.395c.424.408-.407.33-.407.33" transform="translate(-1010.318 -692.891)" fill="#2c3a64"/>
      <path id="Trazado_978918" data-name="Trazado 978918" d="M1204.221,835.214a1.488,1.488,0,0,0-1.3.715,1.186,1.186,0,0,1,1.305-.081Z" transform="translate(-1005.329 -698.024)" fill="#2c3a64"/>
      <path id="Trazado_978919" data-name="Trazado 978919" d="M1212.578,959.473c-7.123,2.382-16.478,2.151-18.786,2.051-.344-.014-.532-.027-.532-.027a1.639,1.639,0,0,1-1.479-1.433,1.523,1.523,0,0,1,.005-.285l1.262-10.974-1.172-5.36-.667-3.056-1.523-6.979a29.485,29.485,0,0,1,8.329-3.234,6.9,6.9,0,0,0,5.314,1.585c1.633-.331,1.943-1.136,1.844-1.981a19.579,19.579,0,0,1,5.364.961l4.34,25.186a3.233,3.233,0,0,1-2.3,3.546" transform="translate(-994.272 -777.056)" fill="#f99746"/>
      <path id="Trazado_978920" data-name="Trazado 978920" d="M1167.491,926.663s4.484,2.562,4.981,4.838c0,0,6.214-4.967,6.994-9.35a9.209,9.209,0,0,0-2.964.634,4.858,4.858,0,0,0-1.7-.258l-3.442-2.349s-3.7,1.3-3.869,6.485" transform="translate(-975.722 -769.032)" fill="#f99746"/>
      <path id="Trazado_978921" data-name="Trazado 978921" d="M1283.976,912.272a12.417,12.417,0,0,1,2.473-.2,2.077,2.077,0,0,1,1.063-.381l3.732-2.855a7.836,7.836,0,0,1,2.471,6.252s-3.107,2.265-3.1,2.758.089,3.29.089,3.29Z" transform="translate(-1073.073 -759.549)" fill="#f99746"/>
      <path id="Trazado_978922" data-name="Trazado 978922" d="M1353.956,792.419a4.74,4.74,0,0,0-.386-1.634c-.353-.732-.344-2.71.035-2.63s.273.8.681.682.883-2.454,1.44-2.291,1.012.9.984,2.571a11.916,11.916,0,0,1-.659,3.385Z" transform="translate(-1131.02 -657.343)" fill="#ffb27d"/>
      <path id="Trazado_978923" data-name="Trazado 978923" d="M1103.371,800.215a5.323,5.323,0,0,1-.2-1.878c.1-.909-.642-3-1.016-2.779s.008.949-.469.977-1.851-2.277-2.381-1.9-.741,1.33-.088,3.1a13.4,13.4,0,0,0,1.958,3.348Z" transform="translate(-918.324 -664.077)" fill="#ffb27d"/>
      <path id="Trazado_978924" data-name="Trazado 978924" d="M1525.583,895.322a12.551,12.551,0,0,0-4.159.946c-1.2.746-2.294,1.032-2.079,1.377s2.323-.387,2.366,0-1.861,1.549-2.393,1.635-1.737.258-1.521.946,2.255.9,3.88.946,5.584-2.581,5.584-2.581Z" transform="translate(-1268.466 -748.259)" fill="#ffb27d"/>
      <path id="Trazado_978925" data-name="Trazado 978925" d="M1563,688.841c2.991,0,12.858-6.594,16.174-9.257a9.907,9.907,0,0,0,.82-.717c1.236-1.26,5.5-7.475,8.526-13.011,1.742-3.188,3.074-6.151,3.18-7.81.377-5.926-2.74-14.213-2.74-14.213-9.221,3.209-10.191,10.572-10.191,10.572l-4.726,17.588a4.691,4.691,0,0,1-1.531,2.39l-12.494,10.387c-.422,1.779,1.985,4.073,2.983,4.073" transform="translate(-1303.732 -538.078)" fill="#f9ddbf"/>
      <path id="Trazado_978926" data-name="Trazado 978926" d="M1676.892,747.489a9.832,9.832,0,0,0,.82-.717c1.236-1.26,5.5-7.475,8.526-13.011.392-3.346.123-6.484-1.256-8.677,0,0-7.839,13.793-8.09,22.405" transform="translate(-1401.45 -605.984)" fill="#f2ccaa"/>
      <path id="Trazado_978927" data-name="Trazado 978927" d="M1709.234,1178.944l1.568,6.537.97,4.046L1715,1203a10.833,10.833,0,0,0,5.638,0,49.128,49.128,0,0,0,1.094-10.015,33.611,33.611,0,0,0-1.1-9.148,21.008,21.008,0,0,0-1.346-3.577c-4.556-9.306-10.054-1.311-10.054-1.311" transform="translate(-1428.479 -982.625)" fill="#ffb27d"/>
      <path id="Trazado_978928" data-name="Trazado 978928" d="M1692.941,1337.807h15.177a12.9,12.9,0,0,0-.429-4.493,7.708,7.708,0,0,0-.36-.965,15.379,15.379,0,0,1-6.31,0,25.284,25.284,0,0,1-4.408,3.057c-1.659.718-3.495.328-3.67,2.4" transform="translate(-1414.863 -1113.501)" fill="#2b478b"/>
      <path id="Trazado_978929" data-name="Trazado 978929" d="M1718.777,1221.892l.97,4.046a23.4,23.4,0,0,0,9.962,3.452,33.616,33.616,0,0,0-1.1-9.148,6.715,6.715,0,0,0-4.027-.868,11.521,11.521,0,0,0-5.805,2.517" transform="translate(-1436.455 -1019.035)" fill="#e8945b"/>
      <path id="Trazado_978930" data-name="Trazado 978930" d="M1740.931,1342.716h7.294a12.9,12.9,0,0,0-.429-4.493c-1.831.57-5.557,2-6.866,4.493" transform="translate(-1454.97 -1118.41)" fill="#1f396d"/>
      <path id="Trazado_978931" data-name="Trazado 978931" d="M1782.889,1178.944l1.568,6.537.97,4.046,3.23,13.468a10.833,10.833,0,0,0,5.638,0,49.108,49.108,0,0,0,1.094-10.015,33.6,33.6,0,0,0-1.1-9.148,20.987,20.987,0,0,0-1.346-3.577c-4.556-9.306-10.053-1.311-10.053-1.311" transform="translate(-1490.036 -982.625)" fill="#ffb27d"/>
      <path id="Trazado_978932" data-name="Trazado 978932" d="M1780.984,1332.347a15.367,15.367,0,0,1-6.311,0,25.3,25.3,0,0,1-4.408,3.057c-1.66.717-3.5.327-3.67,2.4h15.177a12.11,12.11,0,0,0-.789-5.459" transform="translate(-1476.42 -1113.5)" fill="#2b478b"/>
      <path id="Trazado_978933" data-name="Trazado 978933" d="M1792.433,1221.892l.97,4.046a23.393,23.393,0,0,0,9.962,3.452,33.611,33.611,0,0,0-1.1-9.148,6.713,6.713,0,0,0-4.026-.868,11.521,11.521,0,0,0-5.805,2.517" transform="translate(-1498.012 -1019.035)" fill="#e8945b"/>
      <path id="Trazado_978934" data-name="Trazado 978934" d="M1689.362,943.451c5.669,3.6,29.285,1.025,29.478-2.459,0,0-1.168-8.728-1.566-12.384a16.4,16.4,0,0,1-.146-3.369c2.457-16.253,4.518-35.4,4.268-39.057-.035-.515-.06-.781-.06-.781s-1.772-.149-4.468-.254c-7.837-.309-23.481-.256-26.08,4.869-2.648,5.221-2.713,35.55-2.713,35.55a157.382,157.382,0,0,0,1.288,17.885" transform="translate(-1410.795 -739.667)" fill="#f99746"/>
      <path id="Trazado_978935" data-name="Trazado 978935" d="M1829.719,929.14a16.414,16.414,0,0,1-.146-3.369c2.456-16.253,4.518-35.4,4.268-39.058-.035-.515-.061-.781-.061-.781s-1.772-.149-4.468-.254a22.988,22.988,0,0,0-6.693,6.457s.817,30.416,7.1,37" transform="translate(-1523.241 -740.199)" fill="#ed7d2b"/>
      <path id="Trazado_978936" data-name="Trazado 978936" d="M1760.877,481.166a3.517,3.517,0,0,0-3.56-3.786c-1.719-.107-4.1.936-4.1,3.05s1.714,4.564,3.828,4.564a3.828,3.828,0,0,0,3.828-3.828" transform="translate(-1465.241 -398.961)" fill="#bbd2ef"/>
      <path id="Trazado_978937" data-name="Trazado 978937" d="M1708.178,510.1s9.2-8.288,2.122-14.656a5.317,5.317,0,0,0-2.423-1.241c-2.477-.54-7.982-1.3-10.766,1.777-3,3.312-4.183,5.832-1.684,8.852s12.75,5.267,12.75,5.267" transform="translate(-1415.808 -412.609)" fill="#d5e5fb"/>
      <path id="Trazado_978938" data-name="Trazado 978938" d="M1851.667,918.73a11.508,11.508,0,0,0-.243,3.491c.237,2.667.724,4.13,2.454,5,0,0,2,1.367,2.3-.409s-.3-1.838.182-4.329.118-4.385-1.314-5.507Z" transform="translate(-1547.28 -766.353)" fill="#ffb27d"/>
      <path id="Trazado_978939" data-name="Trazado 978939" d="M1729.447,581.336s.125,1.366.357,3.211c.113.9.25,1.919.413,2.947.115.738.244,1.482.384,2.194l3.135,10.589,7.363-11.914s-1.73-1.431-4.075-9.19c-.022-.082-.038-.127-.038-.127Z" transform="translate(-1445.372 -483.934)" fill="#ffb27d"/>
      <path id="Trazado_978940" data-name="Trazado 978940" d="M1677.933,680.982c-.1,1.19.206,1.406.206,1.406s4.527,1.641,15.913,1.074q1.848-.092,3.476-.189c7.338-.432,11.262-.885,11.262-.885s6.01-13.872-5.281-30.962a54.8,54.8,0,0,0-4.527-5.905c-1.828-2.085-2.232-4.876-2.924-7.528-.2-.76.375-.928.089-1.645,0,0-2.059-.582-2.272-.582-1.169,1.03-2.712,3.033-6.541,3.429a3.505,3.505,0,0,1-3.97-2.063,31.336,31.336,0,0,0-2.847,1.375,13.138,13.138,0,0,0-7.575,9.79s6.376,20.964,6.771,23.582c.177,1.164-1.286,2.974-1.78,9.1" transform="translate(-1398.149 -531.337)" fill="#f9ddbf"/>
      <path id="Trazado_978941" data-name="Trazado 978941" d="M1731.618,584.547c.113.9.25,1.919.413,2.947,8.042-3.13,7.019-7.512,6.807-8.321-.022-.083-.038-.127-.038-.127s-4.125,2.928-7.182,5.5" transform="translate(-1447.187 -483.934)" fill="#e8945b"/>
      <path id="Trazado_978942" data-name="Trazado 978942" d="M1706.972,541.838s9,.289,9.1-5.321,1.319-9.352-4.426-9.773-6.9,1.7-7.385,3.566.373,11.309,2.713,11.529" transform="translate(-1424.212 -440.177)" fill="#ffb27d"/>
      <path id="Trazado_978943" data-name="Trazado 978943" d="M1716.656,517.242s.565,10.69,11.542,9.685c0,0-.233-14.3-11.542-9.685" transform="translate(-1434.682 -431.516)" fill="#d5e5fb"/>
      <path id="Trazado_978944" data-name="Trazado 978944" d="M1703.512,527.571a10.863,10.863,0,0,0-4.265,5.169s-3.629-5.057,4.265-5.169" transform="translate(-1419.437 -440.914)" fill="#d5e5fb"/>
      <path id="Trazado_978945" data-name="Trazado 978945" d="M1820.968,762.948c7.338-.432,11.262-.885,11.262-.885s6.01-13.872-5.281-30.962c-2.286,5.328-7.677,19.568-5.981,31.847" transform="translate(-1521.589 -611.013)" fill="#f2ccaa"/>
      <path id="Trazado_978946" data-name="Trazado 978946" d="M1790.293,635.766s8.711,1.787,12.592,6.282c2.974,3.444,6.227,20.279,6.227,23.062,0,2.658-3.056,16.792-4.963,19.5a.631.631,0,0,1-.582.268l-4.906-.52a.721.721,0,0,1-.637-.827l2.757-17.867-9.675-17.16s-5.705-6.762-.812-12.739" transform="translate(-1494.567 -531.337)" fill="#f9ddbf"/>
      <path id="Trazado_978947" data-name="Trazado 978947" d="M1847.785,934.788s-1.291,3.713-.947,4.057,1.248-1.161,1.248-1.161Z" transform="translate(-1543.433 -781.243)" fill="#ffb27d"/>
      <path id="Trazado_978948" data-name="Trazado 978948" d="M1714.638,595.582s.267.918.7,1a3.172,3.172,0,0,0,1.721,0,1.327,1.327,0,0,0,.774-.717,7.291,7.291,0,0,0-3.192-.287" transform="translate(-1432.996 -497.704)" fill="#fff"/>
      <path id="Trazado_978949" data-name="Trazado 978949" d="M663.638,744.3l-2.374.439s-6.5-10.017-6.684-13.071c-.18-2.917-6.035-15.681.819-23.65a12.793,12.793,0,0,1,1.01-1.052.433.433,0,0,1,.039-.037l.034.056a15.339,15.339,0,0,1,1.322,3.392c1,3.4,2.235,9.712,2.526,20.613,0,0,1.595,9.333,3.308,13.31" transform="translate(-544.97 -590.814)" fill="#f4a671"/>
      <path id="Trazado_978950" data-name="Trazado 978950" d="M705.513,921.528s2.163,2.406,2.229,3.285c.088,1.163-.813,3.079-1.4,2.893s-.659-1.129-.829-1.85-.941-1.5-.9-1.169.5,1.608.357,1.814-.309.167-.643-.447c-.4-.738-1.265-1.767-1.152-2.527a3.236,3.236,0,0,0-.171-1.979c-.308-.985-.825-2.168-.825-2.168l1.834-.391Z" transform="translate(-586.845 -768.039)" fill="#f4a671"/>
      <path id="Trazado_978951" data-name="Trazado 978951" d="M346.975,1219.584l-2.835,1.469a47.663,47.663,0,0,1-3.211-4.878,17.748,17.748,0,0,1-2.272-5.681c-.579-4.169-4.992-11.02-4.533-12.187s9.211-3.185,9.211-3.185,1.711,11.713,2.849,19.285c.332,2.21.614,4.067.793,5.177" transform="translate(-279.213 -998.816)" fill="#ffb27d"/>
      <path id="Trazado_978952" data-name="Trazado 978952" d="M381.771,1317.7l-2.835,1.47a47.654,47.654,0,0,1-3.211-4.878,11.238,11.238,0,0,0,5.254-1.768c.332,2.21.614,4.067.793,5.177" transform="translate(-314.009 -1096.936)" fill="#fff"/>
      <path id="Trazado_978953" data-name="Trazado 978953" d="M288.249,1197.578a46.9,46.9,0,0,0-5.753,12.159c-.51,1.674-2.25,3.758-4.01,5.609-1.706,1.8-3.431,3.375-4.068,4.151l-2.888-1.389a38.558,38.558,0,0,1,2.517-5.554,15.7,15.7,0,0,1,1.845-2.672c.92-1.03.617-14.031,1.533-14.888s10.824,2.583,10.824,2.583" transform="translate(-226.93 -998.595)" fill="#ffb27d"/>
      <path id="Trazado_978954" data-name="Trazado 978954" d="M323.826,1070.255l.014.008c-.012.006-.014-.008-.014-.008" transform="translate(-270.635 -894.458)" fill="#ffb27d"/>
      <path id="Trazado_978955" data-name="Trazado 978955" d="M331.3,1050.387l-7.39-4.459a6.737,6.737,0,0,0,.743-1.838,8.92,8.92,0,0,0,.422-1.742c.006-.047.012-.092.016-.137a4.757,4.757,0,0,0,.02-1.074l1.619.585,2.994,1.085a3.706,3.706,0,0,0,.234,1.66,1.333,1.333,0,0,0,1.14.9Z" transform="translate(-270.708 -870.123)" fill="#ffb27d"/>
      <path id="Trazado_978956" data-name="Trazado 978956" d="M335.48,1047.444a5.552,5.552,0,0,1-4.883-2.118c-.053-.07-.08-.109-.08-.109l.1-.029c.235-.069.874-.262,1.639-.489l2.994,1.085a3.707,3.707,0,0,0,.233,1.66" transform="translate(-276.227 -873.101)" fill="#ed985f"/>
      <path id="Trazado_978957" data-name="Trazado 978957" d="M327.345,1002.046s-6.429.706-6.561-3.641-1.082-6.336,3.366-6.724,5.5,1.215,5.761,2.686c.819,4.595-.755,7.484-2.567,7.679" transform="translate(-267.947 -828.741)" fill="#ffb27d"/>
      <path id="Trazado_978958" data-name="Trazado 978958" d="M287.832,963.547c-.09-.2-.154-.332-.154-.332a1.077,1.077,0,0,1,.154.332" transform="translate(-240.425 -805)" fill="#d35c2b"/>
      <path id="Trazado_978959" data-name="Trazado 978959" d="M374.2,997.2s6.165-4.736,6.823-6.3,3.488-7.308,4.219-7.893c0,0,1.533-.2,1.752.864s-1.46,7.357-2.629,9.258-6.775,8.346-8.616,9.281Z" transform="translate(-312.731 -821.528)" fill="#ffb27d"/>
      <path id="Trazado_978960" data-name="Trazado 978960" d="M445.338,958.2a3.365,3.365,0,0,1-.59,1.443c-.346.407-.895,1.22-1.24,1.748-.223.325-.366.569-.366.569l-1.748-.854s-.041-2.968,1.118-3.6c.041-.02.061-.041.1-.041a7.261,7.261,0,0,1,1.362-.569,1.767,1.767,0,0,1,1.22-.02c.224.122.264.711.142,1.321" transform="translate(-368.892 -799.623)" fill="#ffb27d"/>
      <path id="Trazado_978961" data-name="Trazado 978961" d="M310.009,974.56c-2.275-.576-1.405,3.454-1.98,3.179-.643-.309-1.748-.3-1.574.472a14.953,14.953,0,0,0,.557,1.539c.131.485,0,1.445-.53,1.251s-5.449-5.811-1.975-10.187,13.832-1.68,10.57,2.9c-.574.8-3.449,1.259-5.069.849" transform="translate(-253.46 -809.497)" fill="#2b478b"/>
      <path id="Trazado_978962" data-name="Trazado 978962" d="M304.358,1092.849s-6.325,1.326-9.339.918c-4.06-.55-7.659-.643-11.458-2.693,0,0,2.019-10.029,2.143-10.516.178-.7,1.47-6.09,2.663-11.077,1.091-4.559,2.1-8.782,2.1-8.782s3.011,2.14,4.766,1.385,1.53-1.609,1.53-1.609a3.621,3.621,0,0,1,1.686-.292c.538.17,2.066-.7,2.066-.7a5.447,5.447,0,0,1,1.752,4.1,7.664,7.664,0,0,1-.088,1.344l-1.218,1.4s2.75,16.793,3.4,26.51" transform="translate(-236.984 -885.459)" fill="#f99746"/>
      <path id="Trazado_978963" data-name="Trazado 978963" d="M397.727,1345.516h-8.466a10.721,10.721,0,0,1,.033-2.555.72.72,0,0,1,.209-.386,3.056,3.056,0,0,0,2.034,0,4.184,4.184,0,0,0,1.5-.932c.088.085,1.837,1.752,2.645,1.752a1.9,1.9,0,0,1,2.047,2.125" transform="translate(-325.27 -1121.265)" fill="#aa443e"/>
      <path id="Trazado_978964" data-name="Trazado 978964" d="M278.487,1305.385c-1.706,1.8-3.431,3.375-4.068,4.151l-2.888-1.389a38.553,38.553,0,0,1,2.517-5.554,6.177,6.177,0,0,0,4.44,2.792" transform="translate(-226.93 -1088.634)" fill="#fff"/>
      <path id="Trazado_978965" data-name="Trazado 978965" d="M265.766,1334.338s-.106,1.838.507,2.082,1.755.846,1.755,2.012h-4.241s-2.925-1.439-3.315-2.05,1.948-3.22,1.948-3.22a3.832,3.832,0,0,0,3.345,1.175" transform="translate(-217.652 -1114.181)" fill="#aa443e"/>
      <path id="Trazado_978966" data-name="Trazado 978966" d="M334.116,1157.843s1.857-.347,2.583.129.941,1.219.418,1.523a3.384,3.384,0,0,1-3.3-.1Z" transform="translate(-278.985 -967.557)" fill="#ffb27d"/>
      <path id="Trazado_978967" data-name="Trazado 978967" d="M285.065,1070.405s-5.719,1.211-7.975,10.1a2.7,2.7,0,0,0,.609,2.465c1.037,1.149,3.323,2.83,8.64,3.449.58.068.659-1.405.659-1.405a38.14,38.14,0,0,1-5.124-3.593.834.834,0,0,1-.065-1.028,24.169,24.169,0,0,0,1.657-2.821c.421-1.01,3.2-6.71,1.6-7.168" transform="translate(-231.507 -894.583)" fill="#ffb27d"/>
      <path id="Trazado_978968" data-name="Trazado 978968" d="M294.549,1066.865a9.183,9.183,0,0,0-6.1,3.895,6.653,6.653,0,0,0,5.283,4.26s2.685-6.055.821-8.155" transform="translate(-241.066 -891.625)" fill="#f99746"/>
      <path id="Trazado_978969" data-name="Trazado 978969" d="M272.929,973.158a5.752,5.752,0,0,0-5.41,1.481c-2.175,2.361.993,6.69-2.048,9.06s-1.839,4.139-.6,4.716c2.778,1.3,7.023-.318,6.16-2.508a7.935,7.935,0,0,1,.8-7.418Z" transform="translate(-220.266 -813.175)" fill="#2b478b"/>
      <path id="Trazado_978970" data-name="Trazado 978970" d="M587.161,953.477c0,.028.006.055.009.081.006.049.012.093.013.131a58.725,58.725,0,0,0,1.858,9.382,77.56,77.56,0,0,0,5.273,13.741l2.58-.239a73.193,73.193,0,0,1-1.533-14.15,59.411,59.411,0,0,1,2.558-18.93c1.227-3.793,2.2-7.4,2.966-10.788a104.807,104.807,0,0,0,2.762-24.118c-.03-2.209-.152-3.416-.152-3.416l-14.5,2.047-.677.1c.1,6.682.142,15.756.161,22.851,0,1.71.007,3.307.01,4.726,0,1.969,0,3.6,0,4.726v1.71a19.342,19.342,0,0,0-1.447,6.276,33.688,33.688,0,0,0,.118,5.874" transform="translate(-490.552 -756.49)" fill="#f99746"/>
      <path id="Trazado_978971" data-name="Trazado 978971" d="M603.3,1265.367c-.063-.338-.153-.766-.255-1.235a79.565,79.565,0,0,1-3.431-9.762c3.653.305,5.453-.186,6.319-.649a79.057,79.057,0,0,0,.566,8.293,14.943,14.943,0,0,0,1.884,4.664,14.232,14.232,0,0,0,4.382,3.689,16.448,16.448,0,0,1-6.52,1.419c-2.27-.238-4.146-.641-3.938-2.046a5.758,5.758,0,0,1,.4-1.453,5.229,5.229,0,0,0,.6-2.92" transform="translate(-501.123 -1047.788)" fill="#ffb27d"/>
      <path id="Trazado_978972" data-name="Trazado 978972" d="M587.161,1128.743c-.23-2.658,4.308-11.839,4.308-11.839l-2.979-2.021v1.71a19.342,19.342,0,0,0-1.447,6.276,33.686,33.686,0,0,0,.118,5.874" transform="translate(-490.552 -931.756)" fill="#e07d32"/>
      <path id="Trazado_978973" data-name="Trazado 978973" d="M619.255,1351.364c2.28-.12,1.642.415,4.808.659s4.324-.735,4.506-1.178c.162-.393-1.343-.827-2.95-1.328l-.021.029a8.9,8.9,0,0,1-4.7.539c-2.114-.347-4.228-1.372-5.685-1.624a5.555,5.555,0,0,0-.243,1.461c.015,1.42,2.008,1.561,4.288,1.441" transform="translate(-513.954 -1126.968)" fill="#1c468a"/>
      <path id="Trazado_978974" data-name="Trazado 978974" d="M595.184,907.314c.1,6.682.142,15.756.161,22.851,0,1.71,2.991,10.053,2.994,11.472,2.415-3.441,4.5-27.234,7.849-33.254-.03-2.209,4.176-3.213,4.176-3.213l-14.5,2.047Z" transform="translate(-497.421 -756.49)" fill="#e07d32"/>
      <path id="Trazado_978975" data-name="Trazado 978975" d="M541.031,524.6c-.086-.3-1.178-3.69-6.465-2.565,0,0,2.647-.333,3.373.686,0,0-2.1-.961-3.412-.157s-1.53,3.51-1.333,4.334,1.647,3.275,2.608,3.275a2.845,2.845,0,0,0,1.1-.272,12.719,12.719,0,0,0-.39,1.428c-1.02,4.8,2.173,8.452,3.824,7.55,1.059-.579,1.86,1.275,1.86,1.275l8.788-11.649s-6.124-7.358-9.949-3.906" transform="translate(-445.56 -436.098)" fill="#233862"/>
      <path id="Trazado_978976" data-name="Trazado 978976" d="M501.076,664.258c-3.987-12.746.382-15.517-.033-21.9s-5.354-13.237-5.354-13.237-.251-.025-.678-.064c-.331-.174-.42-1.561-.416-3.025,0-1.756.139-3.62.139-3.62l-5.923-1.173-.352-.07c.015,4.122-1.071,6.829-1.857,7.459a25.842,25.842,0,0,0-5.839,1.295,2.753,2.753,0,0,0-1.488,1.1c-1.626,3.576-3.25,12.6-4.391,19.04-.636,3.588-1.121,6.374-1.374,6.964-.706,1.647-2.863,10.707-4.707,15.178l1.672,2.054s8.448-14.232,9.154-17.584c.23-1.091.8-3.276,1.454-5.723.1-.37.2-.747.3-1.126,1.164,3.156,1.758,4.616,1.725,5.979-.046,1.94-1.361,3.684-4.111,9.851-1.519,3.408,26.146,11.617,22.075-1.4" transform="translate(-391.799 -519.143)" fill="#ffb27d"/>
      <path id="Trazado_978977" data-name="Trazado 978977" d="M596.538,628.487s-.135,1.864-.139,3.62c-3.314-.094-5.066-3.117-5.784-4.792Z" transform="translate(-493.602 -524.274)" fill="#e8945b"/>
      <path id="Trazado_978978" data-name="Trazado 978978" d="M575.675,561.473a17.416,17.416,0,0,1-2.154-5.091c-.3-1.675.555-7.885,6.8-6.991a8.477,8.477,0,0,1,3.516,1.329c1.355.915,3.31,2.891,1.124,8.309l-.568,1.831Z" transform="translate(-479.274 -459.077)" fill="#233862"/>
      <path id="Trazado_978979" data-name="Trazado 978979" d="M593.038,577.255s-7.841.129-7.847-4.755-1.021-8.157,3.985-8.446,5.981,1.574,6.379,3.2-.478,9.838-2.518,10" transform="translate(-488.995 -471.379)" fill="#ffb27d"/>
      <path id="Trazado_978980" data-name="Trazado 978980" d="M493.486,930.2c-.5.934-5.432,6.866-10.389,13.434-.425.561-.865,1.167-1.316,1.8-2.921,4.114-6.283,9.477-8.293,12.088-1.827,2.374-3.468-.6-2.546-2.719,1.454-3.345,2.686-9.194,4.094-13.5a27.83,27.83,0,0,1,1.008-2.689,41.761,41.761,0,0,1,7.663-11.811c.623-.637-4.812-14.831-4.423-26.569.153-4.652.8-8.743,2.283-11.237l14.753.731s2.018,31.354-2.834,40.465" transform="translate(-393.366 -742.978)" fill="#f99746"/>
      <path id="Trazado_978981" data-name="Trazado 978981" d="M582.495,559.468c-1.21-1.467-2.125-1.148-2.639-.707a5.562,5.562,0,0,0-7.05,1.13,9.33,9.33,0,0,1-3.052,5.512s1.429.883,4.724.036a5.6,5.6,0,0,0,2.667-1.839A18.3,18.3,0,0,1,574,567.442c3.936-1.819,5.516-7.293,5.673-7.872a6.144,6.144,0,0,1,1.71,2.279c.391,1.244.567,3.8,1.313,3.717,0,0,1.618-3.895-.2-6.1" transform="translate(-476.168 -466.306)" fill="#233862"/>
      <path id="Trazado_978982" data-name="Trazado 978982" d="M457.158,929.312a6.135,6.135,0,0,1-1.461,2.157,2.311,2.311,0,0,0-1.014,2.355c.2.9-.2,2.469.74,2.469s3.138-4.158,3.412-4.942.51-.941.51-.941Z" transform="translate(-379.96 -776.666)" fill="#ffb27d"/>
      <path id="Trazado_978983" data-name="Trazado 978983" d="M504.33,709.916a3.648,3.648,0,0,0,.091,1.2c.314,1.009,1.392,1.468,4,1.193,1.593-.169,2.3-2.9,2.62-5.221q1.435,4.991,4.027,5.587c2.527.574,16.178,1.539,17.012-4.648.918-6.8-2.737-18.237-2.888-24.734a32.836,32.836,0,0,0,.462-6.021c-.106-4.628-1.436-7.222-2.459-8.267a3.443,3.443,0,0,0-1.742-.572c-.594-.1-1.417-.223-2.584-.38a4.88,4.88,0,0,0-.491-.048c.216.393,2.535,3.881,2.31,5.029-.236,1.2-9.154,1.028-9.86.367s-2.548-5.643-2.548-5.643-3.625.4-5.4,1.721l.019.023a1.515,1.515,0,0,0-.466.5c-1.892,3.678-3.781,12.962-5.11,19.584a9.267,9.267,0,0,0,6.907,1.034c-1.141,7.626-3.73,15.815-3.9,19.289" transform="translate(-418.976 -558.078)" fill="#fff"/>
      <path id="Trazado_978984" data-name="Trazado 978984" d="M619.693,624.947s.149.6,1.648.491c0,0,1.258-.093,1.212-.755a4.054,4.054,0,0,0-2.86.264" transform="translate(-517.904 -521.955)" fill="#fff"/>
      <path id="Trazado_978985" data-name="Trazado 978985" d="M481.782,1211.567c-2.921,4.114-6.283,9.477-8.293,12.089-1.827,2.374-3.468-.6-2.546-2.719,1.454-3.345,2.686-9.194,4.094-13.5.946,1.438,2.877,3.295,6.745,4.128" transform="translate(-393.366 -1009.109)" fill="#ffb27d"/>
      <path id="Trazado_978986" data-name="Trazado 978986" d="M474.053,939.531a5.788,5.788,0,0,1,.118,2.453c-.313.586-.1,1.349-.732,1.134s.614-3.587.614-3.587" transform="translate(-395.524 -785.207)" fill="#ffb27d"/>
      <path id="Trazado_978987" data-name="Trazado 978987" d="M447.6,1260.885c-1.19.775-.238,2.532,1.088,4.39s.532,1.608,2.028,4.409,2.943,3.252,3.414,3.168c.419-.075-.023-1.577-.465-3.2-.056-.2-.11-.41-.165-.616-.481-1.841.138-3.578.431-5.542.277-1.86,2.964-5.546,2.964-5.546l-1.924-3.892s-2.361,3.389-3.428,4.761a5.228,5.228,0,0,1-2.581,1.489,5.561,5.561,0,0,0-1.363.581" transform="translate(-373.625 -1048.067)" fill="#ffb27d"/>
      <path id="Trazado_978988" data-name="Trazado 978988" d="M448.688,1297.076c1.326,1.859.532,1.608,2.028,4.409s2.943,3.252,3.414,3.168c.419-.074-.024-1.577-.465-3.2l-.036,0a8.9,8.9,0,0,1-2.982-3.676c-.843-1.969-1.115-4.3-1.685-5.667a5.556,5.556,0,0,0-1.363.58c-1.19.775-.238,2.532,1.088,4.39" transform="translate(-373.625 -1079.868)" fill="#1c468a"/>
      <path id="Trazado_978989" data-name="Trazado 978989" d="M650.794,672.731s2.362-.011,4.013,3.165,4.136,13.5,4.136,13.5-2.9,3.233-6.3,2.495-1.853-19.158-1.853-19.158" transform="translate(-543.603 -562.23)" fill="#fff"/>
      <path id="Trazado_978990" data-name="Trazado 978990" d="M1926.781,967.485l-.247-72.733s-.555-5.242-5.125-5.269c-4.876-.029-5.187,5.207-5.187,5.207a.554.554,0,0,0,.568.456.59.59,0,0,0,.613-.449s.24-4.037,4-4.015c3.523.021,3.951,4.062,3.951,4.062l-.432,72.729Z" transform="translate(-1601.468 -743.379)" fill="#233862"/>
      <path id="Trazado_978991" data-name="Trazado 978991" d="M1965.364,1345.682l3.033.018-.251-3.173s.029-.44-.584-.469c-.569-.027-1.693-.114-1.8.229-.1.3-.4,3.394-.4,3.394" transform="translate(-1642.538 -1121.59)" fill="#233862"/>
      <path id="Trazado_978992" data-name="Trazado 978992" d="M1914.035,866.018l-.213,1.039a6.665,6.665,0,0,0-6.377,5.453s-.34,2.291,1.316,1.811,1.406-1.651,3.751-2.278,3.873-1.109,4.238-2.811l.394-1.894Z" transform="translate(-1594.108 -723.769)" fill="#ffb27d"/>
      <path id="Trazado_978993" data-name="Trazado 978993" d="M1964.237,592.143s-1.392,5.343-2.594,10.229c-.484,1.968-.937,3.861-1.257,5.3a12.251,12.251,0,0,0-.445,2.593c1.01,1.662-.913,11.747-2.409,15.4-.132.324-.313.7-.531,1.126-2.085,4.029-7.62,11.927-7.62,11.927a6.863,6.863,0,0,1-2.559-.235,3.378,3.378,0,0,1-1.414-1.361c.5-.787,2.537-10.106,5.123-15.322,1.106-2.231,2.84-22.986,4.973-25.77,1.78-2.321,8.733-3.891,8.733-3.891" transform="translate(-1625.86 -494.88)" fill="#f99746"/>
      <path id="Trazado_978994" data-name="Trazado 978994" d="M2015.905,679.479c1.01,1.662-.913,11.747-2.409,15.4-.132.324-.313.7-.531,1.126-1.918-8.725,1.42-21.05,1.42-21.05a4.046,4.046,0,0,1,1.965,1.927,12.27,12.27,0,0,0-.445,2.593" transform="translate(-1681.824 -564.092)" fill="#ed7d2b"/>
      <path id="Trazado_978995" data-name="Trazado 978995" d="M2025.273,1304.443s.477,7.889-1.013,7.991c-.2.014-7.553-.03-7.553-.03l-9.488-.057a3.243,3.243,0,0,1,2.921-2.778c2.747-.462,7.353-2.364,9.037-5.981,1.772-3.806,6.1.855,6.1.855" transform="translate(-1677.518 -1088.215)" fill="#0f2949"/>
      <path id="Trazado_978996" data-name="Trazado 978996" d="M2112.148,1304.959s.477,7.889-1.013,7.991c-.2.013-7.554-.03-7.554-.03l-9.487-.057a3.243,3.243,0,0,1,2.921-2.777c2.747-.462,7.353-2.364,9.037-5.981,1.772-3.806,6.1.855,6.1.855" transform="translate(-1750.123 -1088.647)" fill="#163560"/>
      <path id="Trazado_978997" data-name="Trazado 978997" d="M2038.4,899.693a103.032,103.032,0,0,1,.472,11.491c-.27,5.4-.468,9.96-.468,9.96-3.571,1.191-10.1-.318-10.1-.318s-2.238-13.672-4.083-24.587c-.828-4.891-1.514-9.121-1.768-11.118-.821-6.456,1.157-40.743,1.157-40.743s9.679-6.123,13.644-2.913,6.4,6.337-.229,41.2c-.5,2.645.9,9.556,1.375,17.029" transform="translate(-1690.081 -702.47)" fill="#2b478b"/>
      <path id="Trazado_978998" data-name="Trazado 978998" d="M2038.4,899.693a123.812,123.812,0,0,1,.42,12.54c-3.332-3.568-9.893-11.092-14.6-15.994-.828-4.891-1.514-9.121-1.768-11.118-.821-6.456,1.157-40.743,1.157-40.743s9.679-6.123,13.644-2.913,6.4,6.337-.229,41.2c-.5,2.645.9,9.556,1.375,17.029" transform="translate(-1690.081 -702.47)" fill="#233862"/>
      <path id="Trazado_978999" data-name="Trazado 978999" d="M2083.534,844.753s.662,34.338,1.977,40.712,8.2,35.556,8.2,35.556,6.616.642,10.084-.819c0,0-.14-13.5-1.267-21.433-1.052-7.414-2.979-14.2-2.681-16.874,3.928-35.267,1.261-38.2-2.939-41.095s-13.379,3.952-13.379,3.952" transform="translate(-1741.298 -702.096)" fill="#2b478b"/>
      <path id="Trazado_979000" data-name="Trazado 979000" d="M2159.97,878.809a6.665,6.665,0,0,0,2.067,8.132s1.9,1.319,2.207-.379-.039-1.108.437-3.487-.1-4.848-1.464-5.929Z" transform="translate(-1804.667 -733.07)" fill="#ffb27d"/>
      <path id="Trazado_979001" data-name="Trazado 979001" d="M2047.421,528.707s2.59,4.2,2.04,7.955l3.895,9.3,6.946-10.681a26.658,26.658,0,0,1-4.885-9.717Z" transform="translate(-1711.117 -439.236)" fill="#ffb27d"/>
      <path id="Trazado_979002" data-name="Trazado 979002" d="M2023.715,486.505s9.638.475,9.847-5.311,2.838-9.621-4.37-10.172c-5.927-.453-7.913,2.007-8.452,3.922s-.6,11.23,2.975,11.562" transform="translate(-1688.593 -393.608)" fill="#ffb27d"/>
      <path id="Trazado_979003" data-name="Trazado 979003" d="M2027.494,632.626c-2.072.181-4.925.4-8.386.6q-1.037.059-2.145.115c-10.449.523-14.591-1.194-14.591-1.194s-.276-.225-.181-1.451c.491-6.315,1.844-8.172,1.689-9.374-.347-2.7-6.763-24.757-6.763-24.757s-.084-6.956,7.67-10.174a18.329,18.329,0,0,1,2.654-.865,3.191,3.191,0,0,0,3.63,2.148,12.418,12.418,0,0,0,7.1-3.5c.194,0,.271.008.271.008a21.225,21.225,0,0,1,.634,2.3c.618,2.738.972,5.616,2.637,7.776a58.847,58.847,0,0,1,4.245,6.29,52.106,52.106,0,0,1,2.578,5.022c6.758,15.175,1.391,26.844-1.047,27.058" transform="translate(-1669.076 -488.22)" fill="#f99746"/>
      <path id="Trazado_979004" data-name="Trazado 979004" d="M2138.969,712.78c-2.072.181-4.925.4-8.386.6-.908-17.009,6.117-33.3,6.117-33.3a6.058,6.058,0,0,1,.738.619,10.765,10.765,0,0,1,2.578,5.022c2.018,7.722.216,20.237-1.047,27.058" transform="translate(-1780.551 -568.373)" fill="#ed7d2b"/>
      <path id="Trazado_979005" data-name="Trazado 979005" d="M2018.583,530.072s-1.921,7.434,1.258,8.5,11.638.278,11.689-8.85c0,0-4.453,2.62-6.572,2.54s-3.48-1.311-5.444-.367c0,0-.716-.052-.931-1.825" transform="translate(-1686.535 -442.713)" fill="#d5e5fb"/>
      <path id="Trazado_979006" data-name="Trazado 979006" d="M2115.743,584.217s6.738.192,10.271,4.845c2.707,3.566,5.478,22.63,5.461,25.5s-3.183,18.677-4.912,20.386a6.481,6.481,0,0,1-2.6-.015,5.255,5.255,0,0,1-2.5-1.231s.961-17.616.97-19.269c.014-2.393-7.38-17.085-7.38-17.085s-3.838-6.994.687-13.129" transform="translate(-1766.372 -488.255)" fill="#f99746"/>
      <path id="Trazado_979007" data-name="Trazado 979007" d="M2045.407,463.779a1.673,1.673,0,0,0-.885-.906,10.308,10.308,0,0,0-9.4.167c3.354-4.447,11.38-3.462,13.048.578,2.723,6.6-2.338,7.935-2.338,7.935s-5.032-2.15-2.095-4.79a4.759,4.759,0,0,0,1.605-2.335,2.324,2.324,0,0,0,.061-.647" transform="translate(-1700.84 -384.542)" fill="#d5e5fb"/>
      <path id="Trazado_979008" data-name="Trazado 979008" d="M2031.1,549.438a2.169,2.169,0,0,0,1.746.968,2.044,2.044,0,0,0,1.633-.968,9.513,9.513,0,0,0-3.379,0" transform="translate(-1697.479 -459.056)" fill="#fff"/>
      <path id="Trazado_979009" data-name="Trazado 979009" d="M520.776,1366.454H34.664a.536.536,0,0,1-.534-.535v-.143a.536.536,0,0,1,.534-.535H520.776a.536.536,0,0,1,.535.535v.143a.536.536,0,0,1-.535.535" transform="translate(-28.524 -1140.991)" fill="#2e3552"/>
    </g>
  </g>
</svg>
