<svg xmlns="http://www.w3.org/2000/svg" xmlns:xlink="http://www.w3.org/1999/xlink" width="108" height="108" viewBox="0 0 108 108">
  <defs>
    <filter id="Trazado_904820" x="0" y="0" width="108" height="108" filterUnits="userSpaceOnUse">
      <feOffset dy="3" input="SourceAlpha"/>
      <feGaussianBlur stdDeviation="3" result="blur"/>
      <feFlood flood-opacity="0.161"/>
      <feComposite operator="in" in2="blur"/>
      <feComposite in="SourceGraphic"/>
    </filter>
  </defs>
  <g id="Grupo_1144481" data-name="Grupo 1144481" transform="translate(-200.999 -965)">
    <g transform="matrix(1, 0, 0, 1, 201, 965)" filter="url(#Trazado_904820)">
      <g id="Trazado_904820-2" data-name="Trazado 904820" transform="translate(9 6)" fill="#ecf4fa">
        <path d="M 45 88.5 C 39.12687683105469 88.5 33.43022537231445 87.35007476806641 28.06830024719238 85.08217620849609 C 22.88852500915527 82.89131164550781 18.23629951477051 79.75458526611328 14.2408504486084 75.75914764404297 C 10.24541282653809 71.76370239257812 7.108687400817871 67.11147308349609 4.917825222015381 61.93170166015625 C 2.649924993515015 56.56977462768555 1.5 50.87312316894531 1.5 45 C 1.5 39.12687683105469 2.649924993515015 33.43022537231445 4.917825222015381 28.06830024719238 C 7.108687400817871 22.88852500915527 10.24541282653809 18.23629951477051 14.2408504486084 14.2408504486084 C 18.23629951477051 10.24541282653809 22.88852500915527 7.108687400817871 28.06830024719238 4.917825222015381 C 33.43022537231445 2.649924993515015 39.12687683105469 1.5 45 1.5 C 50.87312316894531 1.5 56.56977462768555 2.649924993515015 61.93170166015625 4.917825222015381 C 67.11147308349609 7.108687400817871 71.76370239257812 10.24541282653809 75.75914764404297 14.2408504486084 C 79.75458526611328 18.23629951477051 82.89131164550781 22.88852500915527 85.08217620849609 28.06830024719238 C 87.35007476806641 33.43022537231445 88.5 39.12687683105469 88.5 45 C 88.5 50.87312316894531 87.35007476806641 56.56977462768555 85.08217620849609 61.93170166015625 C 82.89131164550781 67.11147308349609 79.75458526611328 71.76370239257812 75.75914764404297 75.75914764404297 C 71.76370239257812 79.75458526611328 67.11147308349609 82.89131164550781 61.93170166015625 85.08217620849609 C 56.56977462768555 87.35007476806641 50.87312316894531 88.5 45 88.5 Z" stroke="none"/>
        <path d="M 45 3 C 39.32871246337891 3 33.82865524291992 4.110054016113281 28.65262985229492 6.299339294433594 C 23.65165710449219 8.414573669433594 19.15968322753906 11.44334411621094 15.301513671875 15.301513671875 C 11.44334411621094 19.15968322753906 8.414573669433594 23.65165710449219 6.299339294433594 28.65262985229492 C 4.110054016113281 33.82865524291992 3 39.32871246337891 3 45 C 3 50.67128753662109 4.110054016113281 56.17134475708008 6.299339294433594 61.34737396240234 C 8.414573669433594 66.34834289550781 11.44334411621094 70.84031677246094 15.301513671875 74.698486328125 C 19.15968322753906 78.55665588378906 23.65165710449219 81.58542633056641 28.65262985229492 83.70066070556641 C 33.82865524291992 85.88994598388672 39.32871246337891 87 45 87 C 50.67128753662109 87 56.17134475708008 85.88994598388672 61.34737396240234 83.70066070556641 C 66.34834289550781 81.58542633056641 70.84031677246094 78.55665588378906 74.698486328125 74.698486328125 C 78.55665588378906 70.84031677246094 81.58542633056641 66.34834289550781 83.70066070556641 61.34737396240234 C 85.88994598388672 56.17134475708008 87 50.67128753662109 87 45 C 87 39.32871246337891 85.88994598388672 33.82865524291992 83.70066070556641 28.65262985229492 C 81.58542633056641 23.65165710449219 78.55665588378906 19.15968322753906 74.698486328125 15.301513671875 C 70.84031677246094 11.44334411621094 66.34834289550781 8.414573669433594 61.34737396240234 6.299339294433594 C 56.17134475708008 4.110054016113281 50.67128753662109 3 45 3 M 45 0 C 69.85281372070312 0 90 20.14718627929688 90 45 C 90 69.85281372070312 69.85281372070312 90 45 90 C 20.14718627929688 90 0 69.85281372070312 0 45 C 0 20.14718627929688 20.14718627929688 0 45 0 Z" stroke="none" fill="#2a5673"/>
      </g>
    </g>
    <g id="Grupo_1144480" data-name="Grupo 1144480" transform="translate(207 967.991)">
      <circle id="Elipse_11567" data-name="Elipse 11567" cx="6.089" cy="6.089" r="6.089" transform="translate(26.269 30.994) rotate(-88.224)" fill="#eac0ac"/>
      <path id="Trazado_979298" data-name="Trazado 979298" d="M39.54,157.3a13.612,13.612,0,0,1,13.54,12.219H26A13.612,13.612,0,0,1,39.54,157.3Z" transform="translate(-6.993 -121.733)" fill="#3d8e95" fill-rule="evenodd"/>
      <circle id="Elipse_11568" data-name="Elipse 11568" cx="6.089" cy="6.089" r="6.089" transform="translate(53.538 19.016)" fill="#eac0ac"/>
      <path id="Trazado_979299" data-name="Trazado 979299" d="M254.375,157.3a13.612,13.612,0,0,0-13.54,12.219h27.08a13.612,13.612,0,0,0-13.54-12.22Z" transform="translate(-194.748 -121.733)" fill="#3d8e95" fill-rule="evenodd"/>
      <circle id="Elipse_11569" data-name="Elipse 11569" cx="4.414" cy="4.414" r="4.414" transform="matrix(0.188, -0.982, 0.982, 0.188, 40.934, 34.866)" fill="#eac0ac"/>
      <path id="Trazado_979300" data-name="Trazado 979300" d="M172.789,183.97a9.867,9.867,0,0,0-9.815,8.857H182.6A9.867,9.867,0,0,0,172.789,183.97Z" transform="translate(-126.702 -145.041)" fill="#54c4cc" fill-rule="evenodd"/>
      <rect id="Rect치ngulo_405247" data-name="Rect치ngulo 405247" width="26.339" height="6.585" rx="3.292" transform="translate(37.483 70.416)" fill="#ffb229"/>
      <rect id="Rect치ngulo_405248" data-name="Rect치ngulo 405248" width="26.339" height="6.585" rx="3.292" transform="translate(37.483 63.831)" fill="#8192a5"/>
      <path id="Trazado_979301" data-name="Trazado 979301" d="M290.222,277.05a13.169,13.169,0,1,1-13.169,13.169,13.169,13.169,0,0,1,13.169-13.169Zm0,3.824a9.345,9.345,0,1,0,9.345,9.345,9.345,9.345,0,0,0-9.345-9.345Z" transform="translate(-226.4 -226.388)" fill="#b47316" fill-rule="evenodd"/>
      <circle id="Elipse_11570" data-name="Elipse 11570" cx="9.345" cy="9.345" r="9.345" transform="translate(51.628 68.896) rotate(-67.486)" fill="#ffb229"/>
      <g id="Grupo_1144479" data-name="Grupo 1144479" transform="translate(17.998 18.009)">
        <path id="Trazado_979302" data-name="Trazado 979302" d="M36.928,296.8C26.062,292.363,21.615,277.05,31.5,277.05a5.982,5.982,0,0,1,5.433,4.441,5.982,5.982,0,0,1,5.433-4.441C52.242,277.05,47.8,292.363,36.928,296.8Z" transform="translate(-24.994 -244.397)" fill="#f54747" fill-rule="evenodd"/>
        <path id="Trazado_979303" data-name="Trazado 979303" d="M61.509,61.493c0,.758.441,1,2.482,1.344,1.656.281,4.16.707,4.16,3.332,0,1.607-1.4,2.916-3.32,3.258v.988a1.008,1.008,0,0,1-2.017,0v-.988c-1.926-.343-3.321-1.651-3.321-3.258a1.008,1.008,0,0,1,2.017,0c0,.628.99,1.329,2.313,1.329s2.312-.7,2.312-1.329c0-.758-.441-1-2.482-1.344-1.656-.281-4.16-.707-4.16-3.332,0-1.607,1.4-2.916,3.321-3.257v-.99a1.008,1.008,0,1,1,2.017,0v.99c1.925.341,3.32,1.65,3.32,3.257a1.008,1.008,0,0,1-2.017,0c0-.626-.99-1.329-2.312-1.329s-2.313.7-2.313,1.329Zm2.313,10.674a8.336,8.336,0,1,0-8.337-8.336,8.336,8.336,0,0,0,8.337,8.336Zm0-18.69A10.353,10.353,0,1,0,74.175,63.831,10.353,10.353,0,0,0,63.822,53.478Zm0,22.514A12.161,12.161,0,1,0,51.661,63.831,12.161,12.161,0,0,0,63.822,75.992Zm-25.33,0V71.424H51.854a14.294,14.294,0,0,0,4.688,4.568Zm-8.56-6.672a17.688,17.688,0,0,1-7.658-6.657C20.5,59.9,19.7,56.959,20.125,54.8,20.533,52.724,22,51.67,24.5,51.67a4.993,4.993,0,0,1,4.464,3.711,1.01,1.01,0,0,0,1.939,0,4.994,4.994,0,0,1,4.465-3.711c2.493,0,3.964,1.054,4.373,3.132.424,2.157-.379,5.1-2.148,7.861A17.69,17.69,0,0,1,29.932,69.32Zm19.749-4.48H38.555c-.023.032-.047.063-.071.095l.006,4.472h12.3a14.067,14.067,0,0,1-1.107-4.567ZM63.822,49.653a14.2,14.2,0,0,0-14.142,13.17H39.86c1.637-2.913,2.337-5.974,1.858-8.41-.594-3.025-2.909-4.76-6.352-4.76a6.7,6.7,0,0,0-5.434,3.09,6.7,6.7,0,0,0-5.433-3.09c-3.444,0-5.758,1.734-6.353,4.76-1.054,5.365,3.6,13.747,11.405,16.936a1.017,1.017,0,0,0,.763,0,19.086,19.086,0,0,0,6.146-4.094l.015,2.4a1.75,1.75,0,0,0,.173.756,1.748,1.748,0,0,0-.173.756v5.072a1.767,1.767,0,0,0,1.765,1.765H63.066A.937.937,0,0,0,63.224,78c.2.009.4.014.6.014a14.178,14.178,0,1,0,0-28.356ZM46.087,27.941a3.405,3.405,0,1,1-3.4,3.405,3.406,3.406,0,0,1,3.4-3.405Zm0,8.827a5.422,5.422,0,1,0-5.422-5.422A5.422,5.422,0,0,0,46.087,36.768Zm13.54-16.744a5.081,5.081,0,1,1-5.081,5.081,5.08,5.08,0,0,1,5.081-5.081Zm0,12.178a7.1,7.1,0,1,0-7.1-7.1,7.1,7.1,0,0,0,7.1,7.1Zm-27.08,4.373a12.486,12.486,0,0,1,8,2.864A10.848,10.848,0,0,0,35.4,46.778H20.172A12.557,12.557,0,0,1,32.548,36.575Zm16.86,4a8.865,8.865,0,0,0-11.949,6.2H54.715a8.81,8.81,0,0,0-5.163-6.141.91.91,0,0,1-.145-.062Zm10.22-4A12.555,12.555,0,0,1,72,46.778H56.772a10.849,10.849,0,0,0-5.146-7.339,12.486,12.486,0,0,1,8-2.864ZM19.007,48.795h54.16a1.008,1.008,0,0,0,1-1.111,14.62,14.62,0,0,0-24.542-9.172,10.876,10.876,0,0,0-7.082,0A14.62,14.62,0,0,0,18,47.684a1.01,1.01,0,0,0,1,1.111Zm13.541-28.77a5.081,5.081,0,1,1-5.081,5.081,5.08,5.08,0,0,1,5.081-5.081Zm0,12.178a7.1,7.1,0,1,0-7.1-7.1A7.1,7.1,0,0,0,32.548,32.2Z" transform="translate(-17.998 -18.009)" fill="#083642" fill-rule="evenodd"/>
      </g>
    </g>
  </g>
</svg>
