<svg xmlns="http://www.w3.org/2000/svg" xmlns:xlink="http://www.w3.org/1999/xlink" width="479.206" height="369.08" viewBox="0 0 479.206 369.08">
  <defs>
    <clipPath id="clip-path">
      <rect id="Rectángulo_405201" data-name="Rectángulo 405201" width="479.206" height="369.08" fill="none"/>
    </clipPath>
  </defs>
  <g id="Grupo_1144420" data-name="Grupo 1144420" transform="translate(0 0.004)">
    <g id="Grupo_1144419" data-name="Grupo 1144419" transform="translate(0 -0.004)" clip-path="url(#clip-path)">
      <path id="Trazado_979010" data-name="Trazado 979010" d="M213.709,367.223s-65.256-14.975-65.256-158.767c0-67.965,47.7-141.147,129.324-144.978,36.657-1.721,35.952-51.463,124.109-62.6C457.6-6.153,569.94,26.376,531.981,180.268c-23.026,93.349,65.61,68.793,51.863,188.1Z" transform="translate(-108.87 0.005)" fill="#fbecdb"/>
      <rect id="Rectángulo_405199" data-name="Rectángulo 405199" width="112.529" height="153.663" transform="translate(84.676 213.512)" fill="#f9ddbf"/>
      <rect id="Rectángulo_405200" data-name="Rectángulo 405200" width="87.415" height="153.669" transform="translate(197.206 213.512)" fill="#fff3e9"/>
      <path id="Trazado_979011" data-name="Trazado 979011" d="M437.389,554.918l-36.87,75.908H288.506l58.4-75.631Z" transform="translate(-211.579 -406.955)" fill="#ed9f4a"/>
      <path id="Trazado_979012" data-name="Trazado 979012" d="M453.967,554.918,417.1,630.826H305.084l58.4-75.631Z" transform="translate(-223.738 -406.955)" fill="#f9ddbf"/>
      <path id="Trazado_979013" data-name="Trazado 979013" d="M481.6,697.262H479.25a14.471,14.471,0,0,0-14.47,14.471V748.5H495.6V711.263a14,14,0,0,0-14-14" transform="translate(-340.853 -511.345)" fill="#efcdaf"/>
      <path id="Trazado_979014" data-name="Trazado 979014" d="M668.179,635.034H566.5l-60.1-80.121,33.831.007,66.092.011Z" transform="translate(-371.381 -406.952)" fill="#ed9f4a"/>
      <path id="Trazado_979015" data-name="Trazado 979015" d="M761.228,635.053H742.6l-109.31-80.114,66.092.011Z" transform="translate(-464.43 -406.971)" fill="#e58638"/>
      <path id="Trazado_979016" data-name="Trazado 979016" d="M186.775,919.118l-26.25,54.043H80.778l41.577-53.846Z" transform="translate(-59.24 -674.046)" fill="#ed9f4a"/>
      <path id="Trazado_979017" data-name="Trazado 979017" d="M195.736,919.118l-26.249,54.043H89.74l41.576-53.846Z" transform="translate(-65.812 -674.046)" fill="#f9ddbf"/>
      <path id="Trazado_979018" data-name="Trazado 979018" d="M169.317,1121.8v57.877h-26.4c-.883-.131-1.333-.219-1.333-.219a100.669,100.669,0,0,1-29.413-5.467,84.158,84.158,0,0,1-22.424-11.5V1121.8Z" transform="translate(-65.816 -822.686)" fill="#f9ddbf"/>
      <path id="Trazado_979019" data-name="Trazado 979019" d="M455.555,1121.8v47.047q-7.22,2.1-13.953,3.758a288.392,288.392,0,0,1-40.224,7.073h-13.2V1121.8Z" transform="translate(-284.672 -822.686)" fill="#fff3e9"/>
      <path id="Trazado_979020" data-name="Trazado 979020" d="M351.877,976.9H279.491L236.7,919.853l21.562,0,49.58.011Z" transform="translate(-173.59 -674.585)" fill="#ed9f4a"/>
      <path id="Trazado_979021" data-name="Trazado 979021" d="M207.371,1121.455v45.879h-2.778c-.884-.13-1.333-.219-1.333-.219a100.668,100.668,0,0,1-29.413-5.467v-39.64a17.041,17.041,0,0,1,17.039-17.039,16.49,16.49,0,0,1,16.485,16.485" transform="translate(-127.493 -810.343)" fill="#efcdaf"/>
      <path id="Trazado_979022" data-name="Trazado 979022" d="M222.6,1022.03a3.762,3.762,0,1,1,3.762,3.762,3.762,3.762,0,0,1-3.762-3.762" transform="translate(-163.245 -746.759)" fill="#efcdaf"/>
      <path id="Trazado_979023" data-name="Trazado 979023" d="M411.182,976.906H397.444l-79.873-57.039,49.58.011Z" transform="translate(-232.895 -674.596)" fill="#e58638"/>
      <path id="Trazado_979024" data-name="Trazado 979024" d="M464.134,1210.871c-44.5-13.191-98.434-25.317-142.743-14.705s-61.333,24.929-109.992-8.011a69.832,69.832,0,0,0-12.3-6.788c8.592-1.558,20.072-4.278,14.984-7.03-5.306-2.869-14.183,2.035-19.317,5.464q-1.927-.59-3.77-.964c11.723-8.394,32.514-24.272,22.843-24.8-9.541-.527-21.075,15.405-26.706,24.221q-1.447-.141-2.855-.165c-.5-4.58-2.332-12.693-9.065-13.2-6.882-.517,1.245,8.428,6.112,13.275-26.2,1.743-43.931,31.484-98.94,12.714-8.45-2.883-17.174-2.708-25.4-.93-5.173-11.427-20.533-42.507-33.235-39.274s18.74,30.143,30.668,39.885q-2.131.551-4.2,1.228c-7.222-5.325-20.766-13.933-28.5-10.153-7.563,3.694,11.4,8.98,23.739,11.875a109.936,109.936,0,0,0-28.725,17.329Z" transform="translate(-12.267 -843.69)" fill="#a8d29f"/>
      <path id="Trazado_979025" data-name="Trazado 979025" d="M1567.486,1219.114h-51.754c-2.8-2.347,1.9-7.7,6.81-8.064a30.166,30.166,0,0,1,7.9.934c.714-9.463,4.784-51.974,20.106-50.269,17.232,1.918,0,18.725-4.871,28.678a234.753,234.753,0,0,0-9.153,22.939c1.4.3,2.845.606,4.327.876,2.278-7.015,10.779-30.61,21.59-29.237,12.694,1.608,7.589,11.067-1.4,16.684-6.6,4.128-14.712,10-18.562,12.834a55.12,55.12,0,0,0,10.13.808c8.887-.209,13.216,2.415,14.882,3.817" transform="translate(-1110.967 -851.921)" fill="#a8d29f"/>
      <path id="Trazado_979026" data-name="Trazado 979026" d="M951.649,286.8s12.316,5.827,15.115,5.092,13.431-2.612,14.923-1.951c0,0,1.693,2.7.415,4.477s-11.621,6.582-15.358,6.756-17.92-2.4-20.93-4.747Z" transform="translate(-693.626 -210.329)" fill="#e8945b"/>
      <path id="Trazado_979027" data-name="Trazado 979027" d="M1077.32,296.556s4.749-1.971,6.3.231,2.436,4.434,2.243,5.563-3.4,1.625-4.683.748a31.179,31.179,0,0,0-4.458-2.1Z" transform="translate(-789.632 -216.887)" fill="#e8945b"/>
      <path id="Trazado_979028" data-name="Trazado 979028" d="M1156.723,1325.571a20.054,20.054,0,0,0-2.679,9.163,1.973,1.973,0,0,0,1.977,1.987h16.345a2.431,2.431,0,0,0,2.361-3.023c-.761-2.993-2.39-7.515-5.654-10.26-5.208-4.379-12.349,2.132-12.349,2.132" transform="translate(-846.333 -969.45)" fill="#163560"/>
      <path id="Trazado_979029" data-name="Trazado 979029" d="M964.179,1305.91s-.94,15.154-3.872,15.372c-.39.029-14.87.029-14.87.029H926.758s.315-4.561,5.718-5.5,14.447-4.739,17.72-11.881c3.443-7.513,13.982,1.983,13.982,1.983" transform="translate(-679.65 -954.13)" fill="#163560"/>
      <path id="Trazado_979030" data-name="Trazado 979030" d="M996.449,748.514c-.654,8.419-.738,15.064.125,18.215,3.855,14.094-6.947,77.736-6.947,77.736-7.964,3.809-19.273-.041-19.273-.041.687-8.816-3.5-87.735-7.4-135.88-1.633-20.213-2.858-34.355-2.858-34.355l47.705-5.554s-9.089,50.639-11.348,79.878" transform="translate(-704.096 -490.352)" fill="#2b478b"/>
      <path id="Trazado_979031" data-name="Trazado 979031" d="M1007.8,668.636s-9.089,50.639-11.348,79.878l-33.5-39.969c-1.633-20.213-2.857-34.355-2.857-34.355Z" transform="translate(-704.097 -490.352)" fill="#233862"/>
      <path id="Trazado_979032" data-name="Trazado 979032" d="M1051.242,691.408s24.148,140.611,28.3,167.839a30.5,30.5,0,0,0,18.279-1.387s1.194-65.34-1.967-85.023,1.684-80.53-3.411-86.19-41.2,4.761-41.2,4.761" transform="translate(-770.942 -502.325)" fill="#2b478b"/>
      <path id="Trazado_979033" data-name="Trazado 979033" d="M1057.141,256.749s-1.853,12.5-1.042,16.229,13.226,5.761,18.42,2.678,3.631-4.229,3.631-4.229-.793-14.306-1.522-15.326-19.488.65-19.488.65" transform="translate(-774.354 -187.571)" fill="#ffb27d"/>
      <path id="Trazado_979034" data-name="Trazado 979034" d="M930.548,371.621c1.643-15.7,1.222-27.513-.327-36.4-4.535-26.083-18.744-26.952-18.744-26.784,0,3.51-7.551,6.75-13.642,6.351-5.134-.336-8.464-4.238-8.464-6.351,0-.018-.1-.016-.269,0a90.049,90.049,0,0,0-13.176,1.12c-4.175.721-8.172,1.906-10.049,3.861-.969,1.008-4.423,3.832-8.861,7.67-11.3,9.774-28.975,26.135-28.194,35.884,0,0,21.845,16.042,35.689,5.986-.754,26.106-5.492,53.757-4.33,53.737,0,0,7.717,6.682,31.162,6.682a148.353,148.353,0,0,0,28.52-2.368c8.763-1.728,12.252-3.771,12.252-3.771,1.952-.029-2.135-40.2-1.568-45.619" transform="translate(-607.81 -226.184)" fill="#f99746"/>
      <path id="Trazado_979035" data-name="Trazado 979035" d="M1080.471,474.05s-3.489,2.042-12.252,3.771c-12.113-5.365-36.157-19.232-37.1-42.517-1.246-30.974,36.568-49.417,36.568-49.417s5.073,2.819,10.886,6.144c1.548,8.888,1.97,20.7.327,36.4-.568,5.419,3.52,45.59,1.568,45.619" transform="translate(-756.166 -282.994)" fill="#ed7d2b"/>
      <path id="Trazado_979036" data-name="Trazado 979036" d="M1059.834,264.724s4.815,6.787,9.907,6.849,10.289-6.742,10.289-6.742Z" transform="translate(-777.243 -194.138)" fill="#e8945b"/>
      <path id="Trazado_979037" data-name="Trazado 979037" d="M1050.39,189.03a32.658,32.658,0,0,0,6.749,3.456,8.339,8.339,0,0,0,5.771.122,76.435,76.435,0,0,0,8.142-3.133c2.55-1.546,2.386-4.674,2.516-9.024.157-5.148.676-9.192.1-12.16-.683-3.551-2.935-5.571-9.237-6.12-11.57-1-16.39,1.893-16.592,5.772-.052,1.042-.1,2.035-.134,2.976-.463,12.1.493,16.387,2.684,18.112" transform="translate(-768.265 -118.782)" fill="#ffb27d"/>
      <path id="Trazado_979038" data-name="Trazado 979038" d="M1039.077,140.39a4.862,4.862,0,0,1,5.455-1.7c3.561,1.1,3.926,4.138,10.012,3.652s7.546-3.367,8.642-1.927,1.729,9.948,1.729,9.948,12.236-27.9-12.564-27.9c0,0-25.557-1.544-13.273,26.816Z" transform="translate(-759.572 -89.799)" fill="#2c3a64"/>
      <path id="Trazado_979039" data-name="Trazado 979039" d="M879.263,288.83l.033.019c-.028.014-.033-.019-.033-.019" transform="translate(-644.819 -211.816)" fill="#ffb27d"/>
      <path id="Trazado_979040" data-name="Trazado 979040" d="M957.175,512.974a13.953,13.953,0,0,1-7.992,2.556s-4.842-5.336-8.922-10.5c-2.641-3.342-4.961-6.612-5.441-8.31-1.217-4.319-23.995-5.536-26.784-8.579s11.317-10.677,11.317-10.677,23.124,3.537,26.6,8.079c1.383,1.809,3.442,6.521,5.421,11.541,2.992,7.593,5.8,15.886,5.8,15.886" transform="translate(-665.652 -350.156)" fill="#e8945b"/>
      <path id="Trazado_979041" data-name="Trazado 979041" d="M971.95,350.146s4.383-8.508,6.548-8.261-4.976,17.612-5.625,26.051-.923-17.79-.923-17.79" transform="translate(-712.792 -250.721)" fill="#ed7d2b"/>
      <path id="Trazado_979042" data-name="Trazado 979042" d="M891,502.736a128.454,128.454,0,0,1-7.483,14.92c-.034.059-.054.09-.054.09h-.071c-.738-.007-7.086-.146-7.707-2.695,0,0-.2-8.822.146-15.83a37.093,37.093,0,0,1,.871-7.361s-34.433-.231-33.827-9.971,18.605-14.893,28.954-9.842c0,0,13.722,4.986,20.945,11.573,3.547,3.235,1.366,11.522-1.774,19.117" transform="translate(-618.128 -344.735)" fill="#ffb27d"/>
      <path id="Trazado_979043" data-name="Trazado 979043" d="M836.638,463.155s-4.584,6.738-3.51,13.025,14.155,9.646,23.309,10.046c0,0,26.179-6,22.12-16.436-.921-2.367-41.919-6.635-41.919-6.635" transform="translate(-610.866 -339.66)" fill="#2b478b"/>
      <path id="Trazado_979044" data-name="Trazado 979044" d="M822.735,138.872s-4.158-8.511-14.2-3.307-.265,24.812-5.536,29.712,1.91,8.109.841,11.623,1.986,7.51,9.015,7.04,14.429-.091,17.6-6.24,2.454-19.678,1.227-21.58-8.948-17.249-8.948-17.249" transform="translate(-587.455 -98.181)" fill="#aa443e"/>
      <path id="Trazado_979045" data-name="Trazado 979045" d="M896.464,268.756l-17.078-10.305c.095-.038.44-.554,1.717-4.247a20.629,20.629,0,0,0,.974-4.025c.014-.109.028-.213.038-.317a11.012,11.012,0,0,0,.047-2.483l3.741,1.353,6.919,2.507a8.569,8.569,0,0,0,.539,3.836A3.081,3.081,0,0,0,896,257.145Z" transform="translate(-644.909 -181.418)" fill="#ffb27d"/>
      <path id="Trazado_979046" data-name="Trazado 979046" d="M900.256,258.794a12.83,12.83,0,0,1-11.284-4.895c-.123-.161-.185-.251-.185-.251l.222-.066c.544-.161,2.019-.605,3.788-1.13l6.92,2.506a8.566,8.566,0,0,0,.539,3.836" transform="translate(-651.804 -185.138)" fill="#ed985f"/>
      <path id="Trazado_979047" data-name="Trazado 979047" d="M890.25,200.978s-14.857,1.632-15.161-8.414-2.5-14.643,7.779-15.538,12.708,2.807,13.313,6.206c1.893,10.618-1.746,17.3-5.931,17.746" transform="translate(-641.462 -129.724)" fill="#ffb27d"/>
      <path id="Trazado_979048" data-name="Trazado 979048" d="M865.568,157.894c-5.257-1.331-3.247,7.983-4.575,7.346-1.486-.713-4.04-.7-3.637,1.092a34.475,34.475,0,0,0,1.288,3.557c.3,1.12,0,3.339-1.225,2.892s-12.592-13.429-4.564-23.542,31.965-3.882,24.427,6.695c-1.326,1.86-7.971,2.908-11.714,1.961" transform="translate(-623.364 -105.685)" fill="#aa443e"/>
      <path id="Trazado_979049" data-name="Trazado 979049" d="M877.623,332.9a25.58,25.58,0,0,1-11.493,2.257c-4.478-.067-13.986-2.014-20.1-4.22-3.484-1.254-5.866-2.6-5.579-3.72.412-1.622,3.4-14.074,6.153-25.6,2.521-10.536,4.853-20.3,4.853-20.3s6.958,4.944,11.013,3.2,3.535-3.717,3.535-3.717a49.361,49.361,0,0,1,6.073-.434c2.069.243,9.376,2.907,9.376,2.907s.96,2.7-1.586,6.911c-2.109,3.489-4.162,4.166-4.162,4.166s5.971,18.825,1.916,38.543" transform="translate(-616.34 -205.595)" fill="#739af0"/>
      <path id="Trazado_979050" data-name="Trazado 979050" d="M894.176,413.628s4.291-.8,5.969.3,2.175,2.818.966,3.52c-3.787,2.2-7.626-.233-7.626-.233Z" transform="translate(-655.249 -303.131)" fill="#ffb27d"/>
      <path id="Trazado_979051" data-name="Trazado 979051" d="M846.032,382.879c-3.484-1.254-5.866-2.6-5.579-3.72.412-1.622,3.4-14.074,6.153-25.6.815-1.494,1.331-2.386,1.331-2.386s5.231,23.918-1.906,31.7" transform="translate(-616.34 -257.538)" fill="#4a82d3"/>
      <path id="Trazado_979052" data-name="Trazado 979052" d="M831.231,289.046s-13.216,2.8-18.428,23.344a6.23,6.23,0,0,0,1.407,5.7c2.4,2.656,7.68,6.54,19.966,7.97,1.341.156,1.522-3.247,1.522-3.247-.134.271-8.346-5.306-11.842-8.3a1.929,1.929,0,0,1-.15-2.376,55.881,55.881,0,0,0,3.829-6.518c.972-2.333,7.389-15.505,3.7-16.565" transform="translate(-595.94 -211.975)" fill="#ffb27d"/>
      <path id="Trazado_979053" data-name="Trazado 979053" d="M843,284.006s-7.771.553-14.106,9c0,0,2.144,7.771,12.209,9.846,0,0,6.2-13.992,1.9-18.846" transform="translate(-607.882 -208.278)" fill="#739af0"/>
      <path id="Trazado_979054" data-name="Trazado 979054" d="M981.1,582.9a128.438,128.438,0,0,1-7.483,14.92c-.042.029-.083.059-.124.09-.737-.007-7.086-.146-7.707-2.695,0,0-.2-8.822.146-15.83,1.01.969,4.91,3.861,15.168,3.515" transform="translate(-708.227 -424.895)" fill="#ebf2f9"/>
      <path id="Trazado_979055" data-name="Trazado 979055" d="M1046.814,566.938a13.954,13.954,0,0,1-7.992,2.556s-4.842-5.336-8.922-10.5c4.591-1.984,9.44-6.359,11.113-7.946,2.992,7.593,5.8,15.886,5.8,15.886" transform="translate(-755.291 -404.12)" fill="#ebf2f9"/>
      <path id="Trazado_979056" data-name="Trazado 979056" d="M975.111,649.054a1.46,1.46,0,0,1-1.734,1.158,67.346,67.346,0,0,1-6.769-1.642c-2.023-.736-5.9-3.029-7.928-3.765-.7-.253-2.367-.928-3.448-1.368a1.206,1.206,0,0,1-.7-1.455,25.544,25.544,0,0,1,2.042-5.092,1.851,1.851,0,0,1,.844-.749,7.859,7.859,0,0,0,4.919,1.777,10.757,10.757,0,0,0,4.437-.934c.138.282,2.9,5.847,4.852,6.558,1.759.64,4.061,2.319,3.492,5.512" transform="translate(-699.979 -466.521)" fill="#aa443e"/>
      <path id="Trazado_979057" data-name="Trazado 979057" d="M1079.379,599.028a1.461,1.461,0,0,1-.645,1.983,67.262,67.262,0,0,1-6.331,2.9c-2.044.675-6.512,1.279-8.556,1.954-.7.232-2.433.737-3.555,1.062a1.207,1.207,0,0,1-1.455-.706,25.567,25.567,0,0,1-1.551-5.263,1.855,1.855,0,0,1,.2-1.111,7.853,7.853,0,0,0,4.962-1.651,10.761,10.761,0,0,0,2.9-3.481c.282.136,5.9,2.8,7.87,2.144,1.777-.587,4.625-.694,6.156,2.165" transform="translate(-775.361 -436.144)" fill="#aa443e"/>
      <path id="Trazado_979058" data-name="Trazado 979058" d="M872.727,491.637s-.991,5.742-4.725,8.386c0,0-15.163-2.086-29.28-5.657-10.378-2.624-20.193-6.049-23-10.039-6.631-9.411,3.469-20.867,3.469-20.867s19.467,9.394,40.543,20.9c4.316,2.356,8.7,4.8,12.992,7.274" transform="translate(-596.567 -339.883)" fill="#f99746"/>
      <path id="Trazado_979059" data-name="Trazado 979059" d="M924.607,600.586s-4.5.366-6.208,2.07-4.286,6.66-2.447,8.625,10.6-2.342,10.845-3.049-2.19-7.646-2.19-7.646" transform="translate(-671.261 -440.447)" fill="#ffb27d"/>
      <path id="Trazado_979060" data-name="Trazado 979060" d="M942.189,549.132s-.991,5.742-4.725,8.386c0,0-15.163-2.086-29.28-5.657,6.636-5.769,15.307-8.642,21.013-10,4.316,2.356,8.7,4.8,12.992,7.274" transform="translate(-666.029 -397.378)" fill="#ed7d2b"/>
      <path id="Trazado_979061" data-name="Trazado 979061" d="M1021.047,316.292c-3.031-7.2-22.967-7.475-22.967-7.475-10.143,26.616-12.58,44.072-15.262,55.291a5.691,5.691,0,0,0-1.213,0s-14.248,5.56-35.427,20.94c0,0-2.215,6.073,1.762,11.045,0,0,36.492-8.054,46.685-14.029l.017,0,.3-.2q.232-.143.443-.285c33.147-21.538,29.994-54.994,25.658-65.3" transform="translate(-693.441 -226.474)" fill="#f99746"/>
      <path id="Trazado_979062" data-name="Trazado 979062" d="M861.5,1339.281a7.264,7.264,0,0,0,4.583,3.47,7.9,7.9,0,0,1,4.753,2.92,1.854,1.854,0,0,1-1.49,2.952H853.32a2.3,2.3,0,0,1-2.294-2.536c.12-1.187.245-2.57.3-3.631.119-2.314,2.437-4.178,2.437-4.178Z" transform="translate(-624.103 -981.443)" fill="#2c3a64"/>
      <path id="Trazado_979063" data-name="Trazado 979063" d="M814.81,1045.255c.669,12.188-.994,39.891-.994,39.891s-1.117,3.089-8.174,3.827a21.147,21.147,0,0,1-7.183-.587q-2.136-9.837-3.953-18.776c-8.712-42.744-12.111-69.147-12.111-69.147l34.391-7.995s-1.506,24.131-1.95,40.587c-.139,5.137-.173,9.526-.027,12.2" transform="translate(-573.78 -727.839)" fill="#35488b"/>
      <path id="Trazado_979064" data-name="Trazado 979064" d="M816.787,992.469s-1.506,24.131-1.95,40.587l-20.332,36.554c-8.712-42.744-12.11-69.147-12.11-69.147Z" transform="translate(-573.78 -727.839)" fill="#2c3a64"/>
      <path id="Trazado_979065" data-name="Trazado 979065" d="M703.77,777.128s-13.308-6.057-23.376-.758-3.913,49.038,10.484,53.277c0,0,26.973,8.625,12.892-52.519" transform="translate(-495.34 -567.766)" fill="#35488b"/>
      <path id="Trazado_979066" data-name="Trazado 979066" d="M898.788,831.962a1.592,1.592,0,0,0-.13-.169,22.427,22.427,0,0,1-1.247-2.621c2.677-13.105.875-20.683.875-20.683.318-3.815,2.6-30.47-2.65-42.818-2.531-5.958-6.77-5.968-6.77-5.968s.994,9.519.338,14.636c-.6,4.7,3.876,48.713,4.615,55.907-.012,0-.021,0-.025,0l.212,7.315,2.147-.508a1.545,1.545,0,0,0,.923-.668l1.734-2.747a1.548,1.548,0,0,0-.022-1.678m-4.084-1.187.091-.054-.045.059c-.006.007-.023,0-.046-.005" transform="translate(-651.862 -557.136)" fill="#e8945b"/>
      <path id="Trazado_979067" data-name="Trazado 979067" d="M756.853,1339.281a7.264,7.264,0,0,0,4.583,3.47,7.9,7.9,0,0,1,4.752,2.92,1.854,1.854,0,0,1-1.489,2.952H748.67a2.3,2.3,0,0,1-2.294-2.536c.119-1.187.245-2.57.3-3.631.119-2.314,2.437-4.178,2.437-4.178Z" transform="translate(-547.356 -981.443)" fill="#2c3a64"/>
      <path id="Trazado_979068" data-name="Trazado 979068" d="M774.367,576.485c-3.428,0-7.734,1.476-10.045,3.721-2.454,2.385-5.008,2.507-6.826,5.323-1.9,2.935-3.07,5.985-2.118,10.115,1.04,4.511.829,8.875,3.662,12.187,1.4,1.639,3.688,1.825,5.281,3.331,2.926,2.765,6.251,3.64,10.045,3.64,7.151,0,11.6-4.237,15.263-9.516,2.933-4.229,2.352-7.081,3.04-10.7,2.165-11.388-7.334-18.1-18.3-18.1" transform="translate(-553.719 -422.772)" fill="#35488b"/>
      <path id="Trazado_979069" data-name="Trazado 979069" d="M820.149,696.493l-13.671,6.987L803.739,694a29.083,29.083,0,0,0,2.529-8.659,36.1,36.1,0,0,0,.283-7.807l11.138,5.7a21.089,21.089,0,0,0-.444,2.55,18.533,18.533,0,0,0,.193,5.96,8.248,8.248,0,0,0,2.71,4.749" transform="translate(-589.433 -496.874)" fill="#ffb27d"/>
      <path id="Trazado_979070" data-name="Trazado 979070" d="M740.716,1003.951s-2.6,34.45-2.02,89.354a21.14,21.14,0,0,0,6.917,2.025c7.061.7,8.781-2.1,8.781-2.1s7.221-26.8,9.026-38.87c1.664-11.131,12.593-51.3,12.593-51.3Z" transform="translate(-541.671 -735.61)" fill="#35488b"/>
      <path id="Trazado_979071" data-name="Trazado 979071" d="M754.378,742.735a43.792,43.792,0,0,0-10.773-3.057c.06,1.965-.455,3.815-3.9,4.266-4.589.6-8.691-2.533-10.768-4.662h0s-3.235.347-7.007,1.172a43.992,43.992,0,0,0-5.726,1.622,12.157,12.157,0,0,0-5.124,3.067h0v0c-3.53,4.332-9.338,17.381-9.338,17.381s9.668,3.584,12.108,5.675l.056.467,1.514,12.566-4.507,25.03a3.8,3.8,0,0,0-.06.654,3.69,3.69,0,0,0,2.826,3.583s.387.065,1.1.163c4.778.671,24.173,2.984,39.38-1.144a7.383,7.383,0,0,0,5.389-7.728l-2.479-31.11c1.323-.227,2.85-.468,4.092-.606a7.718,7.718,0,0,1,2.206-.047s-1.718-24.295-8.98-27.293" transform="translate(-514.626 -542.161)" fill="#f99746"/>
      <path id="Trazado_979072" data-name="Trazado 979072" d="M750.739,868.807c-.193,8.734-5.915,18.994-10.912,21.76-.713-.1-1.1-.163-1.1-.163a3.69,3.69,0,0,1-2.826-3.583,3.8,3.8,0,0,1,.06-.654l4.507-25.03-1.514-12.566.112-.335s12.013,5.143,11.673,20.571" transform="translate(-539.682 -622.064)" fill="#ed7d2b"/>
      <path id="Trazado_979073" data-name="Trazado 979073" d="M909.365,820.6c-1.273.142-4.1.607-4.1.607l-1.431-13.032s4.782,9.186,5.53,12.424" transform="translate(-662.839 -592.682)" fill="#ed7d2b"/>
      <path id="Trazado_979074" data-name="Trazado 979074" d="M739.145,805.019l1.171-6.5c19.823-28.68,21.323-33.825,12.409-46.7a19,19,0,0,0-9.09-6.515,43.977,43.977,0,0,1,5.726-1.622,21.52,21.52,0,0,1,4.954,2.915c27.207,23.554-15.17,58.425-15.17,58.425" transform="translate(-542.062 -545.386)" fill="#35488b"/>
      <path id="Trazado_979075" data-name="Trazado 979075" d="M730.039,830.327c-7.761.537-8.836,8.489-8.836,8.489s-13.025,1.182-14.95,2.038c0,0,1.057-2.859,2.936-7.18-1.7-1.67-7.28-4.154-10.976-5.3-2.819,7.191-3.9,14.309-2.321,21.172a1.663,1.663,0,0,0,1.547,1.278c4.146.193,17.844.125,27.873-8.181l.177-.048c2.4-.143,4.655-2.527,5.521-5.662s.935-2.177,1.6-4.384-2.57-2.227-2.57-2.227" transform="translate(-509.807 -607.501)" fill="#ffb27d"/>
      <path id="Trazado_979076" data-name="Trazado 979076" d="M824.394,713.215c-6.333-.169-11.17-6.406-11.17-6.406l10.978.446a18.537,18.537,0,0,0,.193,5.96" transform="translate(-596.389 -518.347)" fill="#e8945b"/>
      <path id="Trazado_979077" data-name="Trazado 979077" d="M818.038,649.579s-13.994,1.706-14.292-8.153,5.534-16.245,9.428-16.172c7.763.145,9.044,3.283,9.944,6.549s1.363,17.082-5.079,17.776" transform="translate(-589.429 -458.536)" fill="#ffb27d"/>
      <path id="Trazado_979078" data-name="Trazado 979078" d="M843.342,692.886s.305,1.229,3.37,1c0,0,2.573-.189,2.478-1.543a8.285,8.285,0,0,0-5.848.54" transform="translate(-618.476 -507.526)" fill="#fff"/>
      <path id="Trazado_979079" data-name="Trazado 979079" d="M808.091,624.021s-11.959-.007-9.211,8.2c1.732,5.174-4.028,5.979-4.028,5.979l-2.771-8.294,1.736-6.462Z" transform="translate(-580.883 -457.213)" fill="#35488b"/>
      <path id="Trazado_979080" data-name="Trazado 979080" d="M1206.549,445.884c-2.979-4.949-4.829-27.04-6.98-32.957-1.359-3.74-5-8.21-4.614-8.488-3.873-2.283-14.351-3.381-14.351-3.381s0,.015,0,.022c-.409-.085-.815-.171-1.207-.248a2.893,2.893,0,0,1-2.583-2.259c0-.063-.012-.13-.019-.193a39.989,39.989,0,0,1-.176-4.552.232.232,0,0,1,0-.058c.034-2.266.207-3.949.207-3.949l-.042,0-13.583-2.184c-.185,4.241-.431,7.4-.691,9.752a3.723,3.723,0,0,1-3.471,3.313c-.271.015-.545.031-.818.051v0s-8.756-.341-12.106.682a5.4,5.4,0,0,0-.852.353c.2.213-32.247,32.736-31.41,36.5s15.076,25.156,20.238,29.1h5.167s-11.453-26.121-11.6-28.238c-.217-3.1,28.8-20.45,28.8-23.612,0-1.15,8.09-1.5,13.381-1.457,5.6.043,16.153-2.883,16.153-2.883s4.561,34.562,10.325,44.814c4.546,8.084,24.624,28.8,24.624,28.8l4.235-3.756s-11.407-23.175-18.624-35.161" transform="translate(-816.847 -284.274)" fill="#ffb27d"/>
      <path id="Trazado_979081" data-name="Trazado 979081" d="M1191.995,817.768c2.451,24.141-.519,55.753-.519,55.753h-8.318c-12.561-33.036-12.938-53.761-13.654-61.544-.389-4.241-6.115-21.191-11.254-37.493-4.294-13.613-8.174-26.775-8.2-31.707-.056-11.3,11.2-29.431,11.2-29.431s16.181,6.242,26.167,12.408c3.333,2.059,5.884,4.073,6.755,5.779,2.315,4.54,4.031,36.945-2.13,56.741-3.708,11.918-1.809,18.031-1.809,18.031a101.01,101.01,0,0,1,1.758,11.463" transform="translate(-843.404 -523.141)" fill="#c65447"/>
      <path id="Trazado_979082" data-name="Trazado 979082" d="M1192.046,788.274c-3.708,11.918-1.808,18.031-1.808,18.031A101.13,101.13,0,0,1,1192,817.768l-33.744-43.284c-4.294-13.612-8.174-26.775-8.2-31.707-.056-11.3,11.205-29.431,11.205-29.431s16.181,6.242,26.166,12.408c3.333,2.059,5.884,4.073,6.755,5.779,2.315,4.54,4.031,36.945-2.13,56.741" transform="translate(-843.404 -523.141)" fill="#b2443b"/>
      <path id="Trazado_979083" data-name="Trazado 979083" d="M1214.209,1314.071s-.471,5.425-1.169,6.541-3.627,4.884-6.977,6.14-12.929.6-13.674,4.086h33.767s.465-5.218-.838-8.652-2.791-8.115-2.791-8.115Z" transform="translate(-874.455 -963.69)" fill="#2b478b"/>
      <path id="Trazado_979084" data-name="Trazado 979084" d="M1460.073,1305.786a70.014,70.014,0,0,1,4.706,7.207c.93,2.046,7.068,10.711,6.325,10.784s-17.115,0-17.115,0-1.675-4.087-1.489-6.877-2.232-8.088-1.767-11.113,9.34,0,9.34,0" transform="translate(-1063.87 -956.628)" fill="#2b478b"/>
      <path id="Trazado_979085" data-name="Trazado 979085" d="M1320.141,868.078h-9.34s-36.42-52.65-37.673-66.036c-1.565-16.741-13.264-82.819-13.264-82.819l37.36-11.631s3.265,8.4,6,16.864c1.192,3.692,2.283,7.4,2.961,10.425,1.5,6.684-2.715,31.939-5.589,49.893-1.42,8.843-2.515,15.917-2.442,18.128.218,6.7,12.5,7.565,21.984,65.177" transform="translate(-923.938 -518.92)" fill="#c65447"/>
      <path id="Trazado_979086" data-name="Trazado 979086" d="M1298.1,401.377c-.021.338-.041.666-.064.984.021-.317.043-.646.064-.984" transform="translate(-951.93 -294.354)" fill="#2b478b"/>
      <path id="Trazado_979087" data-name="Trazado 979087" d="M1298.406,396.149c-.018.36-.039.712-.059,1.056.02-.344.038-.7.059-1.056" transform="translate(-952.16 -290.52)" fill="#2b478b"/>
      <path id="Trazado_979088" data-name="Trazado 979088" d="M1298.885,387.633q-.017.4-.036.782.017-.384.034-.782Z" transform="translate(-952.527 -284.275)" fill="#2b478b"/>
      <path id="Trazado_979089" data-name="Trazado 979089" d="M1248.973,520.655c1.217,3.66-16.361,5.8-35.87,5.542a63.741,63.741,0,0,1-14.859-1.838c-8.93-2.309-13.844-6.512-9.923-10.967,1.115-1.267,13.481-18.963,13.481-18.963.73-1.584-.061-6.776-3.837-19.115-1.546-5.045.469-8.184,1.19-10.185a.007.007,0,0,1,0,0,2.017,2.017,0,0,0,.077-1.709,41.979,41.979,0,0,0-6.335-7.978,62.524,62.524,0,0,0-5.3-4.827s7.241-7.892,11.289-9.92c4.171,4.372,13.216,12.2,24.575,12.293,9.8.075,19.321-5.446,25.119-9.634a4.038,4.038,0,0,1,1.031.814c3.622,4.25,4.655,11.917,4.655,11.917s-11.656,6.432-11.448,8.526c.578,5.771,1.124,7.459.87,9.519l0,.02a14.046,14.046,0,0,1-.6,2.51c-1.988,6.244-6.292,15.887-5.217,19.135.279.843,9.358,19.611,11.1,24.867" transform="translate(-870.472 -323.184)" fill="#2b478b"/>
      <path id="Trazado_979090" data-name="Trazado 979090" d="M1234.9,438.927c.188-.057.392-.111.612-.159-.219.05-.426.1-.614.161Z" transform="translate(-905.626 -321.775)" fill="#ffb27d"/>
      <path id="Trazado_979091" data-name="Trazado 979091" d="M1352.373,433.481a3.222,3.222,0,0,0,1.045.691,3.206,3.206,0,0,1-1.045-.691" transform="translate(-991.781 -317.898)" fill="#ffb27d"/>
      <path id="Trazado_979092" data-name="Trazado 979092" d="M1356.292,436.074a4.744,4.744,0,0,0,.449.163,3.818,3.818,0,0,1-.449-.163" transform="translate(-994.655 -319.8)" fill="#ffb27d"/>
      <path id="Trazado_979093" data-name="Trazado 979093" d="M1519.295,737.969s7.139,1.848,8.116,2.845,3.775,8.739,2.791,8.811a10.237,10.237,0,0,1-7.814-2.372c-3.093-3.4-7.714-3.947-7.485-6.439s4.392-2.845,4.392-2.845" transform="translate(-1110.968 -541.198)" fill="#ffb27d"/>
      <path id="Trazado_979094" data-name="Trazado 979094" d="M1175.58,686.724s-5.169,6.529-5.169,7.716,1.046,6.139,2.3,6.209,1.674-4.046,2.651-4.814,4.465-2.21,4.954-3.547.43-5.564.43-5.564Z" transform="translate(-858.336 -503.617)" fill="#ffb27d"/>
      <path id="Trazado_979095" data-name="Trazado 979095" d="M1296.563,396.624c6.417-.825,14.228-7.149,14.228-7.149-4.559-2.474-8.515-2.712-11.587-1.862a11.548,11.548,0,0,0-2.047.777Z" transform="translate(-950.852 -283.933)" fill="#e8945b"/>
      <path id="Trazado_979096" data-name="Trazado 979096" d="M1282.681,327.453s15.871,5.3,19.018-4.638,7.314-15.942-2.687-19.743-13.179-.638-15.036,2.423-5.342,20.324-1.295,21.958" transform="translate(-939.295 -220.983)" fill="#ffb27d"/>
      <path id="Trazado_979097" data-name="Trazado 979097" d="M1293.42,377.677s-.585,1.153-3.582.223c0,0-2.516-.78-2.11-2.105a8.458,8.458,0,0,1,5.692,1.882" transform="translate(-944.34 -275.578)" fill="#fff"/>
      <path id="Trazado_979098" data-name="Trazado 979098" d="M1329.668,270.4c-1.778-2.284,4.058-6.994-7.8-12.655-8.993-4.294-11.78,2.211-12.6,5.6-5.347-3.052-14.075-11.842-19.641-6.116-6.664,6.857.564,12.892.564,12.892,2.528,1.841,3.756,1.332,7.451,2.144s1.335,5.087,1.623,6.529a4.625,4.625,0,0,0,6.228,2.885c3.417-1.472,3.025,4.157-.224,5.315-.926.33-1.887,5.506-.546,5.725,1.128.183,5.2.222,5.615-3.1.246-1.973,2.752-3,5.41-5.04,1.839,1.749,4.424,2.642,5.85,2.437,2.1-.3,2.122-1.985,6.621-4.987s3.226-9.347,1.449-11.631" transform="translate(-943.695 -187.256)" fill="#c65447"/>
      <path id="Trazado_979099" data-name="Trazado 979099" d="M1198.243,672.161c-8.929-2.31-13.844-6.512-9.922-10.969,1.115-1.266,13.481-18.963,13.481-18.963s3.313,19.983-3.559,29.932" transform="translate(-870.471 -470.986)" fill="#233862"/>
      <path id="Trazado_979100" data-name="Trazado 979100" d="M478.542,1378.977H.663a.666.666,0,0,1-.663-.663v-.572a.665.665,0,0,1,.663-.663H478.542a.666.666,0,0,1,.664.663v.572a.666.666,0,0,1-.664.664" transform="translate(0 -1009.897)" fill="#2e3552"/>
    </g>
  </g>
</svg>
