<svg id="Grupo_1144423" data-name="Grupo 1144423" xmlns="http://www.w3.org/2000/svg" xmlns:xlink="http://www.w3.org/1999/xlink" width="500" height="532" viewBox="0 0 500 532">
  <defs>
    <clipPath id="clip-path">
      <rect id="Rectángulo_405246" data-name="Rectángulo 405246" width="500" height="500" fill="none"/>
    </clipPath>
  </defs>
  <rect id="Rectángulo_405202" data-name="Rectángulo 405202" width="500" height="532" fill="#f4eddf"/>
  <g id="Grupo_1144422" data-name="Grupo 1144422">
    <g id="Grupo_1144421" data-name="Grupo 1144421" transform="translate(0 23)" clip-path="url(#clip-path)">
      <path id="Trazado_979101" data-name="Trazado 979101" d="M79.239,452.369s-44.958-32.585-26.768-111.03C71.517,259.2,183.954,280.023,225.406,216.757S331.212,127.312,389.025,152.4s82.9,242.157,27.269,302.151Z" fill="#dbcbb9"/>
      <rect id="Rectángulo_405203" data-name="Rectángulo 405203" width="137.237" height="80.502" transform="translate(145.756 57.398)" fill="#dbcbb9"/>
      <rect id="Rectángulo_405204" data-name="Rectángulo 405204" width="128.238" height="69.802" transform="translate(150.256 62.748)" fill="#f4eddf"/>
      <rect id="Rectángulo_405205" data-name="Rectángulo 405205" width="59.901" height="4.594" transform="translate(167.244 79.86)" fill="#dbcbb9"/>
      <rect id="Rectángulo_405206" data-name="Rectángulo 405206" width="94.262" height="4.594" transform="translate(167.244 90.701)" fill="#dbcbb9"/>
      <rect id="Rectángulo_405207" data-name="Rectángulo 405207" width="94.262" height="4.594" transform="translate(167.244 100.072)" fill="#dbcbb9"/>
      <rect id="Rectángulo_405208" data-name="Rectángulo 405208" width="94.262" height="4.594" transform="translate(167.244 109.443)" fill="#dbcbb9"/>
      <rect id="Rectángulo_405209" data-name="Rectángulo 405209" width="94.262" height="4.594" transform="translate(167.244 118.814)" fill="#dbcbb9"/>
      <path id="Trazado_979102" data-name="Trazado 979102" d="M255.024,79.971a7.6,7.6,0,1,1-7.6-7.6,7.594,7.594,0,0,1,7.6,7.6" fill="#dbcbb9"/>
      <path id="Trazado_979103" data-name="Trazado 979103" d="M325.657,86.97s-3.1-3.664-1.268-17.334S336.931,47.651,348.2,49.06s23.416-1.394,36.078,13.811c7.907,9.5,11.556,46.084,2.114,61.163s-49.466,10.429-60.317,4.228-8.456-30.441-.423-41.292" fill="#101e1e"/>
      <path id="Trazado_979104" data-name="Trazado 979104" d="M323.574,126.625s-28.544,26.754-39.42,50.682l31.9,16.194,16.678-15.71,5.075-26.587s-.966-8.7-1.933-10.152-12.3-14.427-12.3-14.427" fill="#39577f"/>
      <path id="Trazado_979105" data-name="Trazado 979105" d="M325.042,130.592s-18.533,29.547-23.368,49.96,10.207,26.324,10.207,26.324l13.7-13.7,4.835-23.906,1.075-13.43Z" fill="#2a4056"/>
      <path id="Trazado_979106" data-name="Trazado 979106" d="M262.112,150.13s-11.316-13.609-13.747-12.9c-2.631.771,2.188,8.48,2.188,8.48s-16.8-10.755-19.517-10.368S238,143.2,238,143.2s-10.685-5.742-11.6-4.54,10.4,8.193,10.4,8.193-9.714-4.805-10.941-3.947,9.565,7.907,9.565,7.907-9.6-4.687-10.053-3.527,18.571,16.073,30.484,18.393c0,0,5.476-12.957,6.266-15.546" fill="#e5a187"/>
      <path id="Trazado_979107" data-name="Trazado 979107" d="M323.341,182.287s-4.743,21.862-20.917,21.829-60.964-10.894-60.964-10.894-2.141-25.128,18.884-49.336Z" fill="#39577f"/>
      <path id="Trazado_979108" data-name="Trazado 979108" d="M415.728,313.529s-59.952,14.532-118.1-.6c0,0,2.542-28.326,7.512-68.048.584-4.591,1.189-9.336,1.835-14.2,4.16-31.739,9.715-68.837,16.6-104.05h68.448s6.651,40.839,12.933,86.833c2.132,15.526,4.212,31.636,5.985,46.957,2.326,20.077,4.12,38.81,4.786,53.117" fill="#39577f"/>
      <path id="Trazado_979109" data-name="Trazado 979109" d="M382.677,139.086s-15.3,31.033-21.335,54.955c0,0,21.335,7.758,22.413,6.681S387.2,184.99,387.2,184.99s.215-17.672-.431-19.181-.647-10.129-.647-10.129Z" fill="#2a4056"/>
      <path id="Trazado_979110" data-name="Trazado 979110" d="M410.942,260.412c-42.418,2.357-91.988-11.4-105.8-15.536.584-4.591,1.189-9.336,1.835-14.2,3.73-8.373,8.25-17.719,9.91-17.924,3.023-.38,28.326-1.138,28.326-1.138l59.747,1.845c2.132,15.526,4.212,31.636,5.985,46.957" fill="#2a4056"/>
      <path id="Trazado_979111" data-name="Trazado 979111" d="M391.54,126.377c16.747-.12,25.247,73.23,25.247,73.23L378.3,203.174s-6.912-76.653,13.238-76.8" fill="#39577f"/>
      <path id="Trazado_979112" data-name="Trazado 979112" d="M363.354,100.074l.9,29.333s-14.281,3.088-22.643.129l5.4-26.374Z" fill="#dc786e"/>
      <path id="Trazado_979113" data-name="Trazado 979113" d="M327.172,77.669c-3.063,10.346-8.376,34.356,13.291,38.614s25.13-20.012,25.13-20.012,6.556-4.631,6.91-10.627-2.822-9.295-6.4-7.509-4.409,9.984-4.409,9.984a12.648,12.648,0,0,1-4.838-7.567s-16.226-3.4-20.716-12.482c0,0-7.372,4.225-8.963,9.6" fill="#e5a187"/>
      <path id="Trazado_979114" data-name="Trazado 979114" d="M336.282,92.592a23.7,23.7,0,0,0-1.243,5.888c-.1,1.653.508,3.531,2.266,4.03a.543.543,0,0,0,.289-1.047c-1.545-.438-1.568-2.36-1.406-3.649a26.585,26.585,0,0,1,1.141-4.933c.218-.666-.83-.951-1.047-.289" fill="#dc786e"/>
      <path id="Trazado_979115" data-name="Trazado 979115" d="M367.694,80.443a2.5,2.5,0,0,0-1.476,1.328A25.289,25.289,0,0,0,365.1,84.11a12.883,12.883,0,0,0-1.228,5.116,2.159,2.159,0,0,0,.9,1.924,1.179,1.179,0,0,0,1.722-.379,4.3,4.3,0,0,0,.06-2.265,5.959,5.959,0,0,0-.922-2.278c-.385-.579-1.326-.035-.937.549a5.013,5.013,0,0,1,.853,3.237c-.024.259-.027.363-.287.158a1.021,1.021,0,0,1-.291-.708,6.547,6.547,0,0,1,.142-1.819,15.4,15.4,0,0,1,1.144-3.477c.243-.541.5-1.076.773-1.6.217-.424.458-.938.955-1.074a.543.543,0,0,0-.289-1.047" fill="#dc786e"/>
      <path id="Trazado_979116" data-name="Trazado 979116" d="M347.675,92.6c0,2.3-1.1,4.165-2.463,4.165s-2.463-1.865-2.463-4.165,1.1-4.165,2.463-4.165,2.463,1.865,2.463,4.165" fill="#101e1e"/>
      <path id="Trazado_979117" data-name="Trazado 979117" d="M345.668,86.1a4.618,4.618,0,0,1,1.818.682,4.07,4.07,0,0,1,.722.561c.122.117.239.239.35.368a3.142,3.142,0,0,1,.279.366.512.512,0,0,0,.685.179.506.506,0,0,0,.18-.685,5.728,5.728,0,0,0-3.768-2.437.516.516,0,0,0-.616.35.5.5,0,0,0,.35.616" fill="#101e1e"/>
      <path id="Trazado_979118" data-name="Trazado 979118" d="M328.12,92.6c0,2.3,1.1,4.165,2.463,4.165s2.463-1.865,2.463-4.165-1.1-4.165-2.463-4.165S328.12,90.3,328.12,92.6" fill="#101e1e"/>
      <path id="Trazado_979119" data-name="Trazado 979119" d="M329.861,85.129a5.729,5.729,0,0,0-3.768,2.437.5.5,0,0,0,.866.506,4.369,4.369,0,0,1,.609-.715,4.885,4.885,0,0,1,.384-.334c.077-.06-.092.064.047-.035l.087-.062c.073-.052.147-.1.223-.149a4.63,4.63,0,0,1,1.818-.682.5.5,0,0,0,.35-.616.512.512,0,0,0-.616-.35" fill="#101e1e"/>
      <path id="Trazado_979120" data-name="Trazado 979120" d="M333.4,105.761s8.823.108,13.039-.917c0,0-2.663,4.357-6.858,4.578s-6.181-3.661-6.181-3.661" fill="#fff"/>
      <path id="Trazado_979121" data-name="Trazado 979121" d="M336.107,124.968s-8.014,26.287-9.3,47.766c0,0,23.082,6.09,43.6.32,0,0,1.458-34.891-1.427-48.035,0,0-21.654-3.577-32.874-.051" fill="#fff"/>
      <path id="Trazado_979122" data-name="Trazado 979122" d="M343.832,241.4H292.009L281.9,157.1h51.824Z" fill="#873d2a"/>
      <path id="Trazado_979123" data-name="Trazado 979123" d="M340.45,241.4H288.627l-10.11-84.3H330.34Z" fill="#b64a30"/>
      <path id="Trazado_979124" data-name="Trazado 979124" d="M348.051,191.971s-15.5-8.549-17.5-7c-2.169,1.677,5.128,7.1,5.128,7.1s-19.565-3.894-21.953-2.544,9.344,4.776,9.344,4.776-12.043-1.454-12.458,0,12.666,3.841,12.666,3.841-10.8-.935-11.628.31,11.789,3.879,11.789,3.879-10.647-.867-10.647.379,23.151,8.2,35.09,6.021c0,0,.378-14.062.171-16.762" fill="#e5a187"/>
      <path id="Trazado_979125" data-name="Trazado 979125" d="M416.788,199.607s3.549,22.088-11.525,27.95-60.742,12.069-60.742,12.069-11.15-22.621-.392-52.825Z" fill="#39577f"/>
      <rect id="Rectángulo_405210" data-name="Rectángulo 405210" width="130.59" height="217.236" transform="translate(294.871 233.09)" fill="#7c3c0e"/>
      <rect id="Rectángulo_405211" data-name="Rectángulo 405211" width="130.59" height="217.236" transform="translate(275.227 233.09)" fill="#984911"/>
      <rect id="Rectángulo_405212" data-name="Rectángulo 405212" width="194.128" height="18.562" transform="translate(253.935 233.09)" fill="#d5992f"/>
      <path id="Trazado_979126" data-name="Trazado 979126" d="M215.039,173.715H182.148l16.445-91.82Zm-32.1-.666h31.3L198.593,85.67Z" fill="#d5992f"/>
      <path id="Trazado_979127" data-name="Trazado 979127" d="M218.093,174.2c0,6.684-8.73,12.1-19.5,12.1s-19.5-5.416-19.5-12.1Z" fill="#7c3c0e"/>
      <rect id="Rectángulo_405213" data-name="Rectángulo 405213" width="43.706" height="2.63" transform="translate(176.741 172.363)" fill="#d5992f"/>
      <path id="Trazado_979128" data-name="Trazado 979128" d="M90.236,173.715H57.345l16.446-91.82Zm-32.1-.666h31.3L73.791,85.67Z" fill="#d5992f"/>
      <path id="Trazado_979129" data-name="Trazado 979129" d="M93.289,174.2c0,6.684-8.73,12.1-19.5,12.1s-19.5-5.416-19.5-12.1Z" fill="#7c3c0e"/>
      <rect id="Rectángulo_405214" data-name="Rectángulo 405214" width="43.707" height="2.63" transform="translate(51.937 172.363)" fill="#d5992f"/>
      <rect id="Rectángulo_405215" data-name="Rectángulo 405215" width="4.481" height="109.126" transform="translate(133.951 71.547)" fill="#7c3c0e"/>
      <rect id="Rectángulo_405216" data-name="Rectángulo 405216" width="8.463" height="41.666" transform="translate(131.961 175.84)" fill="#7c3c0e"/>
      <rect id="Rectángulo_405217" data-name="Rectángulo 405217" width="8.463" height="1.458" transform="translate(131.961 175.841)" fill="#d5992f"/>
      <rect id="Rectángulo_405218" data-name="Rectángulo 405218" width="28.203" height="6.657" transform="translate(122.091 213.518)" fill="#da7c2e"/>
      <rect id="Rectángulo_405219" data-name="Rectángulo 405219" width="47.327" height="9.078" transform="translate(112.529 216.907)" fill="#7c3c0e"/>
      <path id="Trazado_979130" data-name="Trazado 979130" d="M199.106,79.97v2.188H163.68a24.572,24.572,0,0,0-11.572,2.881c-3.676,1.964-9.438,3.227-15.915,3.227S123.953,87,120.277,85.04a24.558,24.558,0,0,0-11.572-2.882H73.279V79.97Z" fill="#7c3c0e"/>
      <path id="Trazado_979131" data-name="Trazado 979131" d="M140.3,69.182a4.106,4.106,0,1,1-4.106-4.106,4.106,4.106,0,0,1,4.106,4.106" fill="#da7c2e"/>
      <path id="Trazado_979132" data-name="Trazado 979132" d="M203.221,81.038a4.106,4.106,0,1,1-4.106-4.106,4.106,4.106,0,0,1,4.106,4.106" fill="#da7c2e"/>
      <path id="Trazado_979133" data-name="Trazado 979133" d="M77.376,81.038a4.106,4.106,0,1,1-4.106-4.106,4.106,4.106,0,0,1,4.106,4.106" fill="#da7c2e"/>
      <rect id="Rectángulo_405220" data-name="Rectángulo 405220" width="67.595" height="166.969" transform="translate(102.395 236.968)" fill="#d5992f"/>
      <rect id="Rectángulo_405221" data-name="Rectángulo 405221" width="1.59" height="153.569" transform="translate(106.659 243.668)" fill="#b36023"/>
      <rect id="Rectángulo_405222" data-name="Rectángulo 405222" width="1.59" height="153.569" transform="translate(116.239 243.668)" fill="#b36023"/>
      <rect id="Rectángulo_405223" data-name="Rectángulo 405223" width="1.59" height="153.569" transform="translate(125.818 243.668)" fill="#b36023"/>
      <rect id="Rectángulo_405224" data-name="Rectángulo 405224" width="1.59" height="153.569" transform="translate(135.397 243.668)" fill="#b36023"/>
      <rect id="Rectángulo_405225" data-name="Rectángulo 405225" width="1.59" height="153.569" transform="translate(144.977 243.668)" fill="#b36023"/>
      <rect id="Rectángulo_405226" data-name="Rectángulo 405226" width="1.59" height="153.569" transform="translate(154.556 243.668)" fill="#b36023"/>
      <rect id="Rectángulo_405227" data-name="Rectángulo 405227" width="1.59" height="153.569" transform="translate(164.136 243.668)" fill="#b36023"/>
      <path id="Trazado_979134" data-name="Trazado 979134" d="M180.295,253.724H92.09a13.8,13.8,0,0,1,0-27.606h88.205a13.8,13.8,0,1,1,0,27.606" fill="#b36023"/>
      <path id="Trazado_979135" data-name="Trazado 979135" d="M189.609,239.921a7.182,7.182,0,1,1-7.182-7.182,7.181,7.181,0,0,1,7.182,7.182" fill="#d5992f"/>
      <path id="Trazado_979136" data-name="Trazado 979136" d="M97.364,239.921a7.182,7.182,0,1,1-7.182-7.182,7.182,7.182,0,0,1,7.182,7.182" fill="#d5992f"/>
      <rect id="Rectángulo_405228" data-name="Rectángulo 405228" width="101.818" height="12.121" transform="translate(85.284 397.902)" fill="#d5992f"/>
      <rect id="Rectángulo_405229" data-name="Rectángulo 405229" width="146.364" height="45.152" transform="translate(63.01 405.174)" fill="#b36023"/>
      <rect id="Rectángulo_405230" data-name="Rectángulo 405230" width="78.91" height="128.628" transform="translate(263.242 321.622)" fill="#2a4056"/>
      <rect id="Rectángulo_405231" data-name="Rectángulo 405231" width="78.91" height="128.628" transform="translate(263.242 321.622)" fill="#2a4056"/>
      <rect id="Rectángulo_405232" data-name="Rectángulo 405232" width="39.543" height="128.628" transform="translate(263.241 321.622)" fill="#39577f"/>
      <rect id="Rectángulo_405233" data-name="Rectángulo 405233" width="20.453" height="99.539" transform="translate(272.786 336.166)" fill="#d5992f"/>
      <rect id="Rectángulo_405234" data-name="Rectángulo 405234" width="78.91" height="128.628" transform="translate(316.197 321.622)" fill="#2a4056"/>
      <rect id="Rectángulo_405235" data-name="Rectángulo 405235" width="78.91" height="128.628" transform="translate(316.197 321.622)" fill="#873d2a"/>
      <rect id="Rectángulo_405236" data-name="Rectángulo 405236" width="39.543" height="128.628" transform="translate(316.197 321.622)" fill="#b64a30"/>
      <rect id="Rectángulo_405237" data-name="Rectángulo 405237" width="20.453" height="99.539" transform="translate(325.742 336.166)" fill="#d5992f"/>
      <rect id="Rectángulo_405238" data-name="Rectángulo 405238" width="78.91" height="128.628" transform="translate(369.153 321.622)" fill="#2a4056"/>
      <rect id="Rectángulo_405239" data-name="Rectángulo 405239" width="78.91" height="128.628" transform="translate(369.153 321.622)" fill="#636219"/>
      <rect id="Rectángulo_405240" data-name="Rectángulo 405240" width="39.543" height="128.628" transform="translate(369.152 321.622)" fill="#7d7c34"/>
      <rect id="Rectángulo_405241" data-name="Rectángulo 405241" width="20.453" height="99.539" transform="translate(378.697 336.166)" fill="#d5992f"/>
      <rect id="Rectángulo_405242" data-name="Rectángulo 405242" width="173.402" height="51.147" transform="translate(247.451 399.103)" fill="#873d2a"/>
      <rect id="Rectángulo_405243" data-name="Rectángulo 405243" width="173.402" height="51.147" transform="translate(190.751 399.103)" fill="#b64a30"/>
      <rect id="Rectángulo_405244" data-name="Rectángulo 405244" width="166.885" height="42.109" transform="translate(190.75 403.622)" fill="#f4eddf"/>
      <rect id="Rectángulo_405245" data-name="Rectángulo 405245" width="166.885" height="23.726" transform="translate(190.75 422.005)" fill="#dbcbb9"/>
      <path id="Trazado_979137" data-name="Trazado 979137" d="M319.059,445.671l-9.467-4.441-9.4,4.441V417.7h18.869Z" fill="#d5992f"/>
      <path id="Trazado_979138" data-name="Trazado 979138" d="M239.566,330.909a46.585,46.585,0,1,1-46.585-46.585,46.585,46.585,0,0,1,46.585,46.585" fill="#b36023"/>
      <path id="Trazado_979139" data-name="Trazado 979139" d="M234.514,330.909a41.533,41.533,0,1,1-41.533-41.533,41.533,41.533,0,0,1,41.533,41.533" fill="#d5992f"/>
      <path id="Trazado_979140" data-name="Trazado 979140" d="M218.839,318.463,185.39,350.238l-18.268-22.479,7.371-5.987,11.792,14.518L212.3,311.581Z" fill="#b36023"/>
      <path id="Trazado_979141" data-name="Trazado 979141" d="M451.576,460.022H48.425a4.862,4.862,0,1,1,0-9.724H451.576a4.862,4.862,0,1,1,0,9.724" fill="#d5992f"/>
    </g>
  </g>
</svg>
