<svg xmlns="http://www.w3.org/2000/svg" xmlns:xlink="http://www.w3.org/1999/xlink" width="108" height="108" viewBox="0 0 108 108">
  <defs>
    <filter id="Fondo" x="0" y="0" width="108" height="108" filterUnits="userSpaceOnUse">
      <feOffset dy="3" input="SourceAlpha"/>
      <feGaussianBlur stdDeviation="3" result="blur"/>
      <feFlood flood-opacity="0.161"/>
      <feComposite operator="in" in2="blur"/>
      <feComposite in="SourceGraphic"/>
    </filter>
  </defs>
  <g id="Grupo_1144463" data-name="Grupo 1144463" transform="translate(-325.999 -1609)">
    <g transform="matrix(1, 0, 0, 1, 326, 1609)" filter="url(#Fondo)">
      <g id="Fondo-2" data-name="Fondo" transform="translate(9 6)" fill="#fbf8e2" stroke="#bca724" stroke-width="3">
        <circle cx="45" cy="45" r="45" stroke="none"/>
        <circle cx="45" cy="45" r="43.5" fill="none"/>
      </g>
    </g>
    <g id="Grupo_1144425" data-name="Grupo 1144425" transform="translate(345.735 1624.205)">
      <path id="Trazado_979142" data-name="Trazado 979142" d="M33.138,14.262C30.844,9.394,23,9.973,23,16.012c0,5.782,7.982,11.565,10.138,13.012,2.156-1.449,10.138-7.231,10.138-13.012C43.277,9.973,35.433,9.394,33.138,14.262Z" transform="translate(1.142 1.138)" fill="#ff8088"/>
      <g id="Grupo_1144424" data-name="Grupo 1144424" transform="translate(15.098 36.921)">
        <circle id="Elipse_11563" data-name="Elipse 11563" cx="5.632" cy="5.632" r="5.632" transform="translate(13.518 3.379)" fill="#99aecc"/>
        <path id="Trazado_979143" data-name="Trazado 979143" d="M48.8,33l-.393,1.126C47.176,39.041,45.034,41.876,42.089,46l-.166.231a3.378,3.378,0,0,1-2.75,1.416H29.1a3.379,3.379,0,0,1-2.75-1.415L26.186,46c-2.945-4.123-5.087-6.957-6.316-11.872L19.477,33H14.971a29.7,29.7,0,0,0,5.1,13.622l6.168,8.908V65.668h15.8V55.53l6.168-8.908A29.7,29.7,0,0,0,53.3,33Z" transform="translate(-14.971 -33)" fill="#99aecc"/>
      </g>
      <path id="Trazado_979144" data-name="Trazado 979144" d="M54.551,33.25A1.127,1.127,0,0,0,53.431,32H48.925a1.127,1.127,0,0,0-1.063.755l-.422,1.226c-1.119,4.474-3.051,7.174-5.726,10.911l-.579.81a2.259,2.259,0,0,1-1.834.943h-.029a6.759,6.759,0,1,0-10.048,0,2.261,2.261,0,0,1-1.828-.939l-.584-.818c-2.674-3.734-4.605-6.435-5.752-11.006l-.394-1.126A1.127,1.127,0,0,0,19.6,32H15.1a1.127,1.127,0,0,0-1.12,1.25,30.919,30.919,0,0,0,5.291,14.139l5.967,8.619v9.787h2.253V55.656a1.125,1.125,0,0,0-.2-.641l-6.168-8.908a28.666,28.666,0,0,1-4.737-11.853h2.423l.1.273c1.221,4.889,3.364,7.882,6.076,11.672l.581.814A4.525,4.525,0,0,0,29.228,48.9H39.3a4.515,4.515,0,0,0,3.668-1.889l.577-.807c2.714-3.791,4.857-6.785,6.05-11.577l.13-.372h2.419a28.636,28.636,0,0,1-4.737,11.853l-6.168,8.908a1.138,1.138,0,0,0-.2.642V65.795h2.253V56.008l5.967-8.619A30.9,30.9,0,0,0,54.551,33.25Zm-20.3,13.394a4.506,4.506,0,1,1,4.506-4.506A4.511,4.511,0,0,1,34.248,46.644Z" transform="translate(0 3.795)"/>
      <path id="Trazado_979145" data-name="Trazado 979145" d="M32.636,30.085a1.127,1.127,0,0,0,1.257,0c2.5-1.677,10.636-7.639,10.636-13.948a5.79,5.79,0,0,0-4.6-5.977,6.978,6.978,0,0,0-6.667,2.18A6.969,6.969,0,0,0,26.6,10.16,5.79,5.79,0,0,0,22,16.137c0,6.309,8.141,12.271,10.636,13.948ZM27.091,12.359a4.359,4.359,0,0,1,.963-.1,4.59,4.59,0,0,1,4.193,2.615,1.126,1.126,0,0,0,2.037,0,4.621,4.621,0,0,1,5.156-2.511,3.545,3.545,0,0,1,2.838,3.779c0,4.817-6.563,9.911-9.012,11.645-2.449-1.734-9.012-6.828-9.012-11.645a3.542,3.542,0,0,1,2.838-3.778Z" transform="translate(1.016 1.012)"/>
      <path id="Trazado_979146" data-name="Trazado 979146" d="M45,16h4.506v2.253H45Z" transform="translate(3.925 1.771)"/>
      <path id="Trazado_979147" data-name="Trazado 979147" d="M15,16h4.506v2.253H15Z" transform="translate(0.13 1.771)"/>
      <path id="Trazado_979148" data-name="Trazado 979148" d="M31,2h2.253V6.506H31Z" transform="translate(2.154)"/>
      <path id="Trazado_979149" data-name="Trazado 979149" d="M0,0H2.253V4.506H0Z" transform="translate(19.939 7.304) rotate(-45)"/>
      <path id="Trazado_979150" data-name="Trazado 979150" d="M0,0H4.506V2.253H0Z" transform="translate(43.832 8.896) rotate(-45)"/>
    </g>
  </g>
</svg>
