<svg xmlns="http://www.w3.org/2000/svg" xmlns:xlink="http://www.w3.org/1999/xlink" width="108" height="108" viewBox="0 0 108 108">
  <defs>
    <filter id="Fondo" x="0" y="0" width="108" height="108" filterUnits="userSpaceOnUse">
      <feOffset dy="3" input="SourceAlpha"/>
      <feGaussianBlur stdDeviation="3" result="blur"/>
      <feFlood flood-opacity="0.161"/>
      <feComposite operator="in" in2="blur"/>
      <feComposite in="SourceGraphic"/>
    </filter>
  </defs>
  <g id="Grupo_1144464" data-name="Grupo 1144464" transform="translate(-746 -1609)">
    <g transform="matrix(1, 0, 0, 1, 746, 1609)" filter="url(#Fondo)">
      <g id="Fondo-2" data-name="Fondo" transform="translate(9 6)" fill="#fbf8e2" stroke="#bca724" stroke-width="3">
        <circle cx="45" cy="45" r="45" stroke="none"/>
        <circle cx="45" cy="45" r="43.5" fill="none"/>
      </g>
    </g>
    <g id="Grupo_1144447" data-name="Grupo 1144447" transform="translate(769.233 1618.96)">
      <g id="Grupo_1144445" data-name="Grupo 1144445" transform="translate(0.901 12.577)">
        <g id="Grupo_1144428" data-name="Grupo 1144428" transform="translate(19.685 0)">
          <path id="Trazado_979171" data-name="Trazado 979171" d="M182.177,41.469l7-5.084a6.009,6.009,0,0,0,2.477-4.862V22.181a3,3,0,0,0-3-3H174.295a3,3,0,0,0-3,3v9.343a6.009,6.009,0,0,0,2.477,4.862l7,5.084A1.2,1.2,0,0,0,182.177,41.469Z" transform="translate(-171.29 -19.176)" fill="#a2e62e"/>
          <path id="Trazado_979172" data-name="Trazado 979172" d="M235.911,19.176h-1.272V29.219a6.009,6.009,0,0,1-2.477,4.862l-7.151,5.2,3.018,2.193a1.2,1.2,0,0,0,1.413,0l7-5.084a6.009,6.009,0,0,0,2.477-4.862V22.181a3,3,0,0,0-3-3Z" transform="translate(-218.554 -19.176)" fill="#97d729"/>
          <g id="Grupo_1144427" data-name="Grupo 1144427" transform="translate(3.573 5.267)">
            <path id="Trazado_979173" data-name="Trazado 979173" d="M206.507,72.543a1.816,1.816,0,0,1-1.285-.532l-3.674-3.674a1.817,1.817,0,0,1,2.569-2.569l2.389,2.39,4.624-4.624A1.817,1.817,0,1,1,213.7,66.1l-5.909,5.909A1.817,1.817,0,0,1,206.507,72.543Z" transform="translate(-201.016 -63)" fill="#fff"/>
          </g>
        </g>
        <g id="Grupo_1144433" data-name="Grupo 1144433" transform="translate(12.99 22.232)">
          <g id="Grupo_1144430" data-name="Grupo 1144430" transform="translate(21.602)">
            <path id="Trazado_979174" data-name="Trazado 979174" d="M303.259,286.5h-3.71a4.222,4.222,0,0,0-4.222,4.222v1.786a4.088,4.088,0,0,1,1.183,2.878v5.235h4.357V299.11a4.694,4.694,0,0,1,1.384-3.341l5.225-5.225A4.221,4.221,0,0,0,303.259,286.5Z" transform="translate(-295.327 -276.606)" fill="#26a6fe"/>
            <g id="Grupo_1144429" data-name="Grupo 1144429" transform="translate(1.183 9.901)">
              <path id="Trazado_979175" data-name="Trazado 979175" d="M363.072,294.337l3.76-3.76a4.221,4.221,0,0,0-4.041-4.037,4.209,4.209,0,0,1,.28,1.513Z" transform="translate(-355.866 -286.539)" fill="#0593fc"/>
              <path id="Trazado_979176" data-name="Trazado 979176" d="M305.167,381.5v2.7h4.357v-1.514a4.749,4.749,0,0,1,.151-1.191Z" transform="translate(-305.167 -370.085)" fill="#0593fc"/>
            </g>
            <circle id="Elipse_11564" data-name="Elipse 11564" cx="3.448" cy="3.448" r="3.448" transform="translate(2.629 0)" fill="#ffb09e"/>
            <path id="Trazado_979177" data-name="Trazado 979177" d="M327.035,204.158c-.087,0-.173,0-.258.011a3.446,3.446,0,0,1-2.317,5.729,3.448,3.448,0,1,0,2.575-5.739Z" transform="translate(-320.959 -204.158)" fill="#f89580"/>
          </g>
          <g id="Grupo_1144431" data-name="Grupo 1144431" transform="translate(0 0)">
            <path id="Trazado_979178" data-name="Trazado 979178" d="M126.457,300.623v-5.235a4.089,4.089,0,0,1,1.278-2.971v-1.694a4.222,4.222,0,0,0-4.222-4.222H119.8a4.221,4.221,0,0,0-4.217,4.042l5.225,5.225a4.694,4.694,0,0,1,1.384,3.341v1.514Z" transform="translate(-115.586 -276.606)" fill="#26a6fe"/>
            <path id="Trazado_979179" data-name="Trazado 979179" d="M173.733,300.652v-5.235a4.089,4.089,0,0,1,1.278-2.971v-1.694a4.221,4.221,0,0,0-4.072-4.218,4.209,4.209,0,0,1,.281,1.514v8.7a1.2,1.2,0,0,1-1.2,1.2h-.7a4.755,4.755,0,0,1,.151,1.191v1.514Z" transform="translate(-162.861 -276.634)" fill="#0593fc"/>
            <circle id="Elipse_11565" data-name="Elipse 11565" cx="3.448" cy="3.448" r="3.448" transform="translate(2.624)" fill="#ffb09e"/>
          </g>
          <g id="Grupo_1144432" data-name="Grupo 1144432" transform="translate(10.751 4.664)">
            <path id="Trazado_979180" data-name="Trazado 979180" d="M217.2,334.766v-5.236a4.222,4.222,0,0,0-4.222-4.222h-3.71a4.222,4.222,0,0,0-4.222,4.222v5.236Z" transform="translate(-205.042 -315.413)" fill="#8ac9fe"/>
            <path id="Trazado_979181" data-name="Trazado 979181" d="M214.077,326.53a4.213,4.213,0,0,1,.229,1.371v4.034a1.2,1.2,0,0,1-1.2,1.2h-8.062v2.7H217.2v-5.236A4.223,4.223,0,0,0,214.077,326.53Z" transform="translate(-205.042 -316.487)" fill="#60b7ff"/>
            <circle id="Elipse_11566" data-name="Elipse 11566" cx="3.448" cy="3.448" r="3.448" transform="translate(2.629)" fill="#ffb09e"/>
          </g>
        </g>
        <g id="Grupo_1144443" data-name="Grupo 1144443" transform="translate(0 18.996)">
          <g id="Grupo_1144438" data-name="Grupo 1144438" transform="translate(0 0)">
            <g id="Grupo_1144437" data-name="Grupo 1144437">
              <g id="Grupo_1144436" data-name="Grupo 1144436">
                <g id="Grupo_1144435" data-name="Grupo 1144435">
                  <path id="Trazado_979182" data-name="Trazado 979182" d="M27.22,214.561V202.973a4.845,4.845,0,0,0-1.419-3.426l-9.363-9.363a1.335,1.335,0,0,0-1.882-.008,4.09,4.09,0,0,0-.464.552v-8.822a4.673,4.673,0,0,0-4.651-4.673A1.929,1.929,0,0,0,7.5,179.157v16.328a5.149,5.149,0,0,0,1.508,3.641L17.4,207.52a3.028,3.028,0,0,1,.887,2.141v4.9a.6.6,0,0,0,.6.6h7.729a.6.6,0,0,0,.6-.6Z" transform="translate(-7.5 -177.233)" fill="#ffb09e"/>
                  <g id="Grupo_1144434" data-name="Grupo 1144434" transform="translate(10.789 20.419)">
                    <path id="Trazado_979183" data-name="Trazado 979183" d="M106.2,352.451a4.845,4.845,0,0,0-1.419-3.426l-1.9-1.9v12.6a1.8,1.8,0,0,1-1.8,1.8H97.271v2.5a.6.6,0,0,0,.6.6H105.6a.6.6,0,0,0,.6-.6Z" transform="translate(-97.271 -347.13)" fill="#f89580"/>
                  </g>
                </g>
              </g>
            </g>
          </g>
          <g id="Grupo_1144442" data-name="Grupo 1144442" transform="translate(40.012)">
            <g id="Grupo_1144441" data-name="Grupo 1144441">
              <g id="Grupo_1144440" data-name="Grupo 1144440">
                <g id="Grupo_1144439" data-name="Grupo 1144439">
                  <path id="Trazado_979184" data-name="Trazado 979184" d="M340.422,214.561V202.973a4.845,4.845,0,0,1,1.419-3.426l9.363-9.363a1.335,1.335,0,0,1,1.882-.008,4.09,4.09,0,0,1,.464.552v-8.822a4.673,4.673,0,0,1,4.651-4.673,1.929,1.929,0,0,1,1.941,1.924v16.328a5.149,5.149,0,0,1-1.508,3.641l-8.394,8.394a3.028,3.028,0,0,0-.887,2.141v4.9a.6.6,0,0,1-.6.6h-7.729A.6.6,0,0,1,340.422,214.561Z" transform="translate(-340.422 -177.233)" fill="#ffb09e"/>
                  <path id="Trazado_979185" data-name="Trazado 979185" d="M360.142,179.156a1.92,1.92,0,0,0-1.9-1.924,4.678,4.678,0,0,0-1.161.142v15.006a5.149,5.149,0,0,1-1.508,3.641l-8.394,8.394a3.028,3.028,0,0,0-.887,2.141v3.7a1.8,1.8,0,0,1-1.8,1.8h-4.063v2.5a.6.6,0,0,0,.6.6h7.729a.6.6,0,0,0,.6-.6v-4.9a3.028,3.028,0,0,1,.887-2.141l8.394-8.394a5.149,5.149,0,0,0,1.508-3.641Z" transform="translate(-340.422 -177.232)" fill="#f89580"/>
                </g>
              </g>
            </g>
          </g>
        </g>
        <g id="Grupo_1144444" data-name="Grupo 1144444" transform="translate(16.487 22.232)">
          <path id="Trazado_979186" data-name="Trazado 979186" d="M236.75,242.966c-.087,0-.173,0-.258.011a3.446,3.446,0,0,1-2.317,5.729,3.448,3.448,0,1,0,2.575-5.739Z" transform="translate(-223.419 -238.302)" fill="#f89580"/>
          <path id="Trazado_979187" data-name="Trazado 979187" d="M147.257,204.158c-.087,0-.173,0-.258.011a3.446,3.446,0,0,1-2.317,5.729,3.448,3.448,0,1,0,2.575-5.739Z" transform="translate(-144.682 -204.158)" fill="#f89580"/>
        </g>
      </g>
      <g id="Grupo_1144446" data-name="Grupo 1144446" transform="translate(0 11.676)">
        <path id="Trazado_979188" data-name="Trazado 979188" d="M166.638,30.516l7,5.084a2.1,2.1,0,0,0,2.473,0l7-5.084a6.931,6.931,0,0,0,2.849-5.591V15.582a3.91,3.91,0,0,0-3.906-3.906H167.7a3.91,3.91,0,0,0-3.906,3.906v3.464a.9.9,0,1,0,1.8,0V15.582a2.106,2.106,0,0,1,2.1-2.1h14.352a2.106,2.106,0,0,1,2.1,2.1v9.343a5.123,5.123,0,0,1-2.105,4.132l-7,5.084a.3.3,0,0,1-.353,0l-7-5.084a5.123,5.123,0,0,1-2.106-4.132V23.253a.9.9,0,1,0-1.8,0v1.673a6.932,6.932,0,0,0,2.849,5.591Z" transform="translate(-144.104 -11.676)"/>
        <path id="Trazado_979189" data-name="Trazado 979189" d="M197.985,66.059a2.718,2.718,0,0,0,3.844,0l5.909-5.909a2.718,2.718,0,0,0-3.844-3.844l-3.987,3.987-1.752-1.752a2.718,2.718,0,1,0-3.844,3.844Zm-2.4-6.243a.915.915,0,0,1,1.294,0l2.389,2.389a.9.9,0,0,0,1.275,0l4.624-4.624a.915.915,0,1,1,1.295,1.295l-5.909,5.909a.915.915,0,0,1-1.294,0l-3.674-3.674a.915.915,0,0,1,0-1.294Z" transform="translate(-170.258 -50.243)"/>
        <path id="Trazado_979190" data-name="Trazado 979190" d="M60.7,170.557a2.817,2.817,0,0,0-2-.826h-.014a5.586,5.586,0,0,0-5.548,5.574v7.043a2.254,2.254,0,0,0-.5-.058,2.224,2.224,0,0,0-1.583.656L48.1,185.9a5.153,5.153,0,0,0-4.676-3.04h-3.71a5.128,5.128,0,0,0-5.122,5.079,5.093,5.093,0,0,0-2.019-.415h-3.71a5.093,5.093,0,0,0-1.925.377,5.128,5.128,0,0,0-5.121-5.041h-3.71a5.153,5.153,0,0,0-4.676,3.04l-2.957-2.957a2.223,2.223,0,0,0-1.583-.656,2.246,2.246,0,0,0-.5.058v-7.043a5.586,5.586,0,0,0-5.548-5.574,2.833,2.833,0,0,0-2.015.826,2.8,2.8,0,0,0-.832,2v16.328a6.011,6.011,0,0,0,1.772,4.278l1.791,1.791a.9.9,0,1,0,1.275-1.275l-1.791-1.791a4.22,4.22,0,0,1-1.244-3V172.557a1.012,1.012,0,0,1,.3-.722,1.027,1.027,0,0,1,.729-.3h.005a3.78,3.78,0,0,1,3.753,3.772v8.554a4.971,4.971,0,0,0,.719,6.106l4.054,4.054a.9.9,0,0,0,1.275-1.275L8.585,188.69a3.16,3.16,0,0,1,0-4.469.435.435,0,0,1,.616,0l9.363,9.363a3.917,3.917,0,0,1,1.155,2.788V207.66H12.592v-4.6a3.9,3.9,0,0,0-1.151-2.778l-3.628-3.628a.9.9,0,1,0-1.275,1.275l3.628,3.628a2.112,2.112,0,0,1,.623,1.5v4.9a1.5,1.5,0,0,0,1.5,1.5H20.02a1.5,1.5,0,0,0,1.5-1.5v-9.173h18.49v1.142a.9.9,0,1,0,1.8,0v-3.557a3.917,3.917,0,0,1,1.155-2.788l9.363-9.363a.435.435,0,0,1,.616,0,3.16,3.16,0,0,1,0,4.469l-4.054,4.054a.9.9,0,0,0,1.275,1.275l4.054-4.054a4.971,4.971,0,0,0,.719-6.106v-8.554a3.78,3.78,0,0,1,3.753-3.772H58.7a1.027,1.027,0,0,1,.729.3,1.012,1.012,0,0,1,.3.722v16.328a4.22,4.22,0,0,1-1.244,3l-8.394,8.394a3.9,3.9,0,0,0-1.151,2.778v4.6H41.814v-3.524a.9.9,0,1,0-1.8,0v3.825a1.5,1.5,0,0,0,1.5,1.5h7.729a1.5,1.5,0,0,0,1.5-1.5v-4.9a2.112,2.112,0,0,1,.623-1.5l8.394-8.394a6.011,6.011,0,0,0,1.772-4.278V172.557a2.8,2.8,0,0,0-.832-2ZM25.139,189.139a5.1,5.1,0,0,0-1.4,3.512v4.334H21.522v-.612a5.709,5.709,0,0,0-1.683-4.063l-4.983-4.983a3.338,3.338,0,0,1,3.252-2.661h3.71a3.324,3.324,0,0,1,3.32,3.32ZM35.9,196.985H25.544v-4.334a3.324,3.324,0,0,1,3.32-3.32h3.71a3.324,3.324,0,0,1,3.32,3.32Zm5.8-4.675a5.708,5.708,0,0,0-1.683,4.063v.612H37.7v-4.334a5.1,5.1,0,0,0-1.3-3.409v-1.255a3.324,3.324,0,0,1,3.32-3.32h3.71a3.338,3.338,0,0,1,3.252,2.661Z" transform="translate(0 -150.735)"/>
        <path id="Trazado_979191" data-name="Trazado 979191" d="M309.7,201.007a4.349,4.349,0,1,0,4.349-4.349A4.354,4.354,0,0,0,309.7,201.007Zm6.9,0a2.546,2.546,0,1,1-2.546-2.546A2.549,2.549,0,0,1,316.6,201.007Z" transform="translate(-272.48 -174.426)"/>
        <path id="Trazado_979192" data-name="Trazado 979192" d="M134.272,205.356a4.349,4.349,0,1,0-4.349-4.349A4.354,4.354,0,0,0,134.272,205.356Zm0-6.9a2.546,2.546,0,1,1-2.546,2.546A2.549,2.549,0,0,1,134.272,198.461Z" transform="translate(-114.308 -174.426)"/>
        <path id="Trazado_979193" data-name="Trazado 979193" d="M219.417,239.815a4.349,4.349,0,1,0,4.349-4.349,4.354,4.354,0,0,0-4.349,4.349Zm6.9,0a2.546,2.546,0,1,1-2.546-2.546A2.549,2.549,0,0,1,226.313,239.815Z" transform="translate(-193.047 -208.57)"/>
      </g>
    </g>
  </g>
</svg>
