<svg xmlns="http://www.w3.org/2000/svg" xmlns:xlink="http://www.w3.org/1999/xlink" width="108" height="108" viewBox="0 0 108 108">
  <defs>
    <filter id="Fondo" x="0" y="0" width="108" height="108" filterUnits="userSpaceOnUse">
      <feOffset dy="3" input="SourceAlpha"/>
      <feGaussianBlur stdDeviation="3" result="blur"/>
      <feFlood flood-opacity="0.161"/>
      <feComposite operator="in" in2="blur"/>
      <feComposite in="SourceGraphic"/>
    </filter>
  </defs>
  <g id="Grupo_1144497" data-name="Grupo 1144497" transform="translate(-1166 -1609)">
    <g transform="matrix(1, 0, 0, 1, 1166, 1609)" filter="url(#Fondo)">
      <g id="Fondo-2" data-name="Fondo" transform="translate(9 6)" fill="#fbf8e2" stroke="#bca724" stroke-width="3">
        <circle cx="45" cy="45" r="45" stroke="none"/>
        <circle cx="45" cy="45" r="43.5" fill="none"/>
      </g>
    </g>
    <g id="relationship" transform="translate(1191.166 1634.167)">
      <path id="Trazado_979151" data-name="Trazado 979151" d="M55,38h5.367V57.678H55Z" transform="translate(-5.595 -3.8)" fill="#c0ab91"/>
      <path id="Trazado_979152" data-name="Trazado 979152" d="M57,38h3.578V57.678H57Z" transform="translate(-5.806 -3.8)" fill="#b39a7c"/>
      <path id="Trazado_979153" data-name="Trazado 979153" d="M50.355,41V55.311L39.622,58.889H26.205L12.19,53.942A1.789,1.789,0,0,1,11,52.252v-.814a1.789,1.789,0,0,1,2.29-1.717l12.916,3.8h7.155l8.05-4.472H30.678a1.794,1.794,0,0,1-1.789-1.789v-.447A1.782,1.782,0,0,1,30.177,45.1L44.094,41Z" transform="translate(-0.95 -4.117)" fill="#ffdaaa"/>
      <path id="Trazado_979154" data-name="Trazado 979154" d="M50.355,41V55.311L39.622,58.889H26.205L12.19,53.942A1.789,1.789,0,0,1,11,52.252v-.814a1.882,1.882,0,0,1,.018-.224l11.61,4.1H36.044l10.733-3.578V41Z" transform="translate(-0.95 -4.117)" fill="#ffc477"/>
      <path id="Trazado_979155" data-name="Trazado 979155" d="M48.355,9.637v.814a1.789,1.789,0,0,1-2.29,1.717L33.15,8.367H25.994l-8.05,4.472H28.678a1.794,1.794,0,0,1,1.789,1.789v.447a1.782,1.782,0,0,1-1.288,1.717l-13.917,4.1H9V6.578L19.733,3H33.15L47.165,7.946A1.789,1.789,0,0,1,48.355,9.637Z" transform="translate(-0.739 -0.106)" fill="#ffdaaa"/>
      <path id="Trazado_979156" data-name="Trazado 979156" d="M48.355,9.637v.814a1.884,1.884,0,0,1-.018.224l-11.61-4.1H23.311L12.578,10.155V20.889H9V6.578L19.733,3H33.15L47.165,7.946A1.789,1.789,0,0,1,48.355,9.637Z" transform="translate(-0.739 -0.106)" fill="#ffc477"/>
      <path id="Trazado_979157" data-name="Trazado 979157" d="M39.889,28.472v.894c0,6.261-8.944,10.733-8.944,10.733S22,35.628,22,29.367v-.894A4.472,4.472,0,0,1,26.472,24c2.469,0,4.472,2,4.472,5.367,0-3.363,2-5.367,4.472-5.367a4.472,4.472,0,0,1,4.472,4.472Z" transform="translate(-2.111 -2.322)" fill="#ff3051"/>
      <path id="Trazado_979158" data-name="Trazado 979158" d="M8.367,20.994v2.683H3V4H8.367V20.994Z" transform="translate(-0.106 -0.211)" fill="#c0ab91"/>
      <path id="Trazado_979159" data-name="Trazado 979159" d="M40.531,28.485v.894c0,6.261-8.944,10.733-8.944,10.733a24.123,24.123,0,0,1-3.506-2.245c.51.3.823.456.823.456s8.944-4.472,8.944-10.733V26.7a4.5,4.5,0,0,0-.814-2.576,4.472,4.472,0,0,1,3.5,4.365Z" transform="translate(-2.753 -2.335)" fill="#cd2a00"/>
      <path id="Trazado_979160" data-name="Trazado 979160" d="M46.722,7,32.706,2.054a.822.822,0,0,0-.3-.054H18.994a1.06,1.06,0,0,0-.286.045L9.155,5.229V3.789a.894.894,0,0,0-.894-.894H2.894A.894.894,0,0,0,2,3.789V23.466a.894.894,0,0,0,.894.894H8.261a.894.894,0,0,0,.894-.894V21.678h5.367a.772.772,0,0,0,.25-.036l13.926-4.1a2.7,2.7,0,0,0,1.923-2.576v-.447a2.691,2.691,0,0,0-2.683-2.683H20.658l4.83-2.683h6.8l12.781,3.766a2.706,2.706,0,0,0,2.37-.429,2.669,2.669,0,0,0,1.073-2.147V9.531A2.683,2.683,0,0,0,46.722,7ZM7.367,22.572H3.789V4.683H7.367ZM46.722,10.345a.894.894,0,0,1-1.145.859L32.661,7.4a.772.772,0,0,0-.25-.036H25.255a.847.847,0,0,0-.438.116l-8.05,4.472a.894.894,0,0,0,.438,1.673H27.939a.894.894,0,0,1,.894.894v.447a.9.9,0,0,1-.644.859L14.4,19.889H9.155V7.116l9.982-3.327H32.259L46.122,8.681a.894.894,0,0,1,.6.85Z" transform="translate(0 0)"/>
      <path id="Trazado_979161" data-name="Trazado 979161" d="M55.616,37H50.25a.894.894,0,0,0-.894.894v1.789H43.988a.772.772,0,0,0-.25.036l-13.926,4.1a2.7,2.7,0,0,0-1.923,2.576v.447a2.691,2.691,0,0,0,2.683,2.683h7.281l-4.83,2.683h-6.8L13.444,48.44a2.706,2.706,0,0,0-2.37.429A2.669,2.669,0,0,0,10,51.016v.814a2.683,2.683,0,0,0,1.789,2.531L25.8,59.307a.822.822,0,0,0,.3.054H39.516a1.06,1.06,0,0,0,.286-.045l9.553-3.184v1.44a.894.894,0,0,0,.894.894h5.367a.894.894,0,0,0,.894-.894V37.894A.894.894,0,0,0,55.616,37ZM49.355,54.245l-9.982,3.327H26.252L12.388,52.679a.894.894,0,0,1-.6-.85v-.814a.894.894,0,0,1,1.145-.859l12.916,3.8a.772.772,0,0,0,.25.036h7.155a.847.847,0,0,0,.438-.116l8.05-4.472a.894.894,0,0,0-.438-1.673H30.572a.894.894,0,0,1-.894-.894v-.447a.9.9,0,0,1,.644-.859l13.792-4.061h5.241Zm5.367,2.433H51.144V38.789h3.578Z" transform="translate(-0.845 -3.695)"/>
      <path id="Trazado_979162" data-name="Trazado 979162" d="M35.311,23a5.016,5.016,0,0,0-4.472,2.612A5.016,5.016,0,0,0,26.367,23,5.367,5.367,0,0,0,21,28.367v.894C21,36,30.052,40.6,30.436,40.79a.872.872,0,0,0,.8,0c.385-.188,9.436-4.794,9.436-11.529v-.894A5.367,5.367,0,0,0,35.311,23Zm3.578,6.261c0,4.91-6.368,8.783-8.05,9.722-1.682-.939-8.05-4.812-8.05-9.722v-.894a3.578,3.578,0,0,1,3.578-3.578c2.138,0,3.578,1.8,3.578,4.472a.894.894,0,0,0,1.789,0c0-2.674,1.44-4.472,3.578-4.472a3.578,3.578,0,0,1,3.578,3.578Z" transform="translate(-2.006 -2.217)"/>
      <path id="Trazado_979163" data-name="Trazado 979163" d="M45,31h1.789v1.789H45Z" transform="translate(-4.539 -3.061)"/>
      <path id="Trazado_979164" data-name="Trazado 979164" d="M49,31h5.367v1.789H49Z" transform="translate(-4.962 -3.061)"/>
      <path id="Trazado_979165" data-name="Trazado 979165" d="M0,0H1.789V1.789H0Z" transform="translate(36.418 19.98) rotate(-45)"/>
      <path id="Trazado_979166" data-name="Trazado 979166" d="M0,0H5.367V1.789H0Z" transform="translate(38.946 17.452) rotate(-45)"/>
      <path id="Trazado_979167" data-name="Trazado 979167" d="M17,31h1.789v1.789H17Z" transform="translate(-1.583 -3.061)"/>
      <path id="Trazado_979168" data-name="Trazado 979168" d="M9,31h5.367v1.789H9Z" transform="translate(-0.739 -3.061)"/>
      <path id="Trazado_979169" data-name="Trazado 979169" d="M0,0H1.789V1.789H0Z" transform="translate(18.709 37.686) rotate(-45)"/>
      <path id="Trazado_979170" data-name="Trazado 979170" d="M0,0H5.367V1.789H0Z" transform="translate(13.648 42.744) rotate(-45)"/>
    </g>
  </g>
</svg>
