<svg xmlns="http://www.w3.org/2000/svg" xmlns:xlink="http://www.w3.org/1999/xlink" width="108" height="108" viewBox="0 0 108 108">
  <defs>
    <filter id="Fondo" x="0" y="0" width="108" height="108" filterUnits="userSpaceOnUse">
      <feOffset dy="3" input="SourceAlpha"/>
      <feGaussianBlur stdDeviation="3" result="blur"/>
      <feFlood flood-opacity="0.161"/>
      <feComposite operator="in" in2="blur"/>
      <feComposite in="SourceGraphic"/>
    </filter>
  </defs>
  <g id="Grupo_1144449" data-name="Grupo 1144449" transform="translate(-746 -2337)">
    <g transform="matrix(1, 0, 0, 1, 746, 2337)" filter="url(#Fondo)">
      <g id="Fondo-2" data-name="Fondo" transform="translate(9 6)" fill="#fbf8e2" stroke="#bca724" stroke-width="3">
        <circle cx="45" cy="45" r="45" stroke="none"/>
        <circle cx="45" cy="45" r="43.5" fill="none"/>
      </g>
    </g>
    <g id="Grupo_1144450" data-name="Grupo 1144450" transform="translate(709.103 2354.428)">
      <g id="Grupo_1144449-2" data-name="Grupo 1144449" transform="translate(67.29 1.305)">
        <path id="Trazado_979194" data-name="Trazado 979194" d="M111.957,42.206h39.036a1.918,1.918,0,0,1,.25-1.506c2.6-3.872.78-5.662-1.811-5.933-2.061-.215-4.411-.077-4.9-.833-1.732-2.7-3.182-3.234-4.813-3.4-10.971-1.136-5.06-5.238-8.439-6.978-4.108-2.116,2.086-9.371,6.551-9.56,2.926-.124-.566-8.034-7.773-1.407-1.221,1.123-5.123,2.206-7.257,2.833-2.46.722-1.172,1.674-3.211,4.731-1.967,2.948-1.708.3-2.632,2.127-1.161,2.29-2.232,2.565-3.09,2.631-2.408.186-4.635,4.431-2.99,6.767,1.8,2.561.582,9.065.828,9.664A4.325,4.325,0,0,1,111.957,42.206Z" transform="translate(-105.811 -9.943)" fill="#ffc144" fill-rule="evenodd"/>
        <path id="Trazado_979195" data-name="Trazado 979195" d="M121.154,255.943H82.119c.475,2.616-1,6.275-3.18,6.4-4.161.247-1.252,2.08-2.623,2.911-1.292.784,1.447,3.225,1.917,3.206,2.936-.116,5.81,5.7,7.482,2.827.209-.359,1.857.079,3.642.783h23.03c.649-1.493,2.2-.837,2.783-1.957,1.01-1.947-1.262-3.624.166-4.479,2.829-1.695,4.48,2.909,7.142,1.331,2.289-1.357-1.805-5.5-.527-6.93.92-1.026-.5-2.6-.8-4.1Z" transform="translate(-75.972 -223.68)" fill="#60a4ff" fill-rule="evenodd"/>
        <path id="Trazado_979196" data-name="Trazado 979196" d="M201.054,378.943H178.025c2.245.885,4.7,2.189,4.786,2.858.313,2.562,1.941,1.051,1.907,2.185-.08,2.693,1.933,1.714,2.04,2.487.5,3.648,5.163,1.816,6.306,1.683,5.389-.63,2.894,7.441,6.128,6.892s1.505-4.473,1.989-7.75c.335-2.268,1.354-2.483.656-5.029-.446-1.629-1.294-2.084-.8-3.279Z" transform="translate(-164.641 -330.549)" fill="#ff5a58" fill-rule="evenodd"/>
      </g>
      <path id="Trazado_979197" data-name="Trazado 979197" d="M113.611,203.567a1.312,1.312,0,0,0,1.312-1.311h0a1.311,1.311,0,1,0-1.312,1.312Z" transform="translate(-40.245 -174.589)"/>
      <path id="Trazado_979198" data-name="Trazado 979198" d="M115.777,42.77a10.408,10.408,0,0,0-.844-2.562,7.783,7.783,0,0,1-.609-1.761c1.059-1.29.367-2.84-.1-3.875-.377-.844-.628-1.466-.417-1.779,1.47-2.192,1.853-4.077,1.139-5.6a4.551,4.551,0,0,0-3.9-2.366c-.588-.062-1.182-.095-1.755-.127a12.052,12.052,0,0,1-2.265-.25c-1.9-2.907-3.656-3.648-5.691-3.859-3.533-.366-4.934-1.028-5.487-1.52-.461-.41-.494-.835-.519-1.68a3.658,3.658,0,0,0-1.968-3.639c-.482-.248-.765-.587-.58-1.43.493-2.241,3.983-5.544,6.586-5.654a2.289,2.289,0,0,0,2.209-1.755A4.116,4.116,0,0,0,99.465.688C98.313,0,95.147-1.15,90.653,2.983c-.914.84-4.543,1.9-6.288,2.408l-.451.132a3.454,3.454,0,0,0-2.774,2.764,8.387,8.387,0,0,1-1.159,2.5,6.527,6.527,0,0,1-.654.859c-1.252-.187-1.83.954-2.057,1.4-.929,1.832-1.586,1.883-2.021,1.917a4.73,4.73,0,0,0-3.271,1.977,6.709,6.709,0,0,0-1.422,5.046,1.312,1.312,0,0,0,2.586-.441,4.142,4.142,0,0,1,.9-2.992,2.279,2.279,0,0,1,1.4-.975c1.18-.091,2.711-.546,4.113-3.258,1.006-.031,1.785-.86,2.6-2.08A10.968,10.968,0,0,0,83.65,9.05c.239-.786.239-.786,1-1.011l.447-.13c3.142-.917,6.068-1.836,7.328-3,2.229-2.05,4.293-2.776,5.662-1.991a1.937,1.937,0,0,1,.923,1.138A10,10,0,0,0,93.6,6.678a10.171,10.171,0,0,0-3.378,5.078,3.667,3.667,0,0,0,1.94,4.326c.461.237.517.38.547,1.385a4.479,4.479,0,0,0,1.4,3.564c1.259,1.118,3.47,1.807,6.959,2.168,1.2.124,2.314.421,3.844,2.806.716,1.116,2.269,1.2,4.235,1.313.542.03,1.1.062,1.629.117a2.186,2.186,0,0,1,1.8.87c.284.607-.059,1.711-.943,3.028a3.035,3.035,0,0,0-.421.925H73.436a1.311,1.311,0,0,0-1.29,1.546,5.821,5.821,0,0,1-1,4.2,1.572,1.572,0,0,1-.965.66c-1.668.1-2.614.445-3.164,1.158a2.442,2.442,0,0,0-.334,2.092l.007.037a2.024,2.024,0,0,0-.6,2.217c.369,1.224,2.244,3.288,3.517,3.232h.036c.773,0,1.891.955,2.791,1.724,1.22,1.042,2.376,2.026,3.713,1.888h.044a1.3,1.3,0,0,0,.681-.192,2.622,2.622,0,0,0,.894-.677,18.148,18.148,0,0,1,3.246,1.114A14.139,14.139,0,0,1,84.2,53a2.629,2.629,0,0,0,1.881,2.421,2.761,2.761,0,0,0,2.16,2.633A3.567,3.567,0,0,0,89.656,60.1c1.713,1.172,4.126.6,5.568.254.25-.06.534-.127.641-.14,1.612-.189,2.024.529,2.6,3.094a8.836,8.836,0,0,0,.8,2.452,2.545,2.545,0,0,0,2.273,1.382,3.145,3.145,0,0,0,.526-.046,3.407,3.407,0,0,0,2.909-2.533,10.623,10.623,0,0,0,.146-3.439,14.482,14.482,0,0,1,.012-2.879,6.838,6.838,0,0,1,.444-1.581,5.454,5.454,0,0,0,.18-3.986,8.749,8.749,0,0,0-.654-1.644c-.287-.581-.282-.593-.2-.791.094-.229.145-.273.72-.442a2.972,2.972,0,0,0,2.033-1.456,4.369,4.369,0,0,0,.008-3.662c-.042-.124-.094-.274-.131-.4.533-.228.987-.012,2.078.725,1.128.762,2.834,1.914,4.857.714a2.767,2.767,0,0,0,1.314-2.953ZM103.121,55.732a9.389,9.389,0,0,0-.587,2.13,16.657,16.657,0,0,0-.036,3.42c.166,2.749-.031,3.085-.876,3.229l-.049.007a7.011,7.011,0,0,1-.548-1.785A9.481,9.481,0,0,0,99.764,59.3a4.051,4.051,0,0,0-3.487-1.738,6.153,6.153,0,0,0-.716.043,8.774,8.774,0,0,0-.944.193c-.885.21-2.725.649-3.48.133a1.139,1.139,0,0,1-.43-.886,1.868,1.868,0,0,0-1.641-1.5,2.283,2.283,0,0,1-.31-.083,1.663,1.663,0,0,1-.077-.688,1.73,1.73,0,0,0-1.734-1.864l-.073-.008a2.249,2.249,0,0,1-.111-.511,2.119,2.119,0,0,0-.857-1.387h16.383a5.039,5.039,0,0,0,.458,1.185,6.2,6.2,0,0,1,.476,1.175A2.943,2.943,0,0,1,103.121,55.732Zm10.062-12.309a.241.241,0,0,1-.058.042c-.5.3-.825.2-2.051-.631-1.172-.791-2.942-1.987-5.1-.7-1.629.976-1.07,2.609-.8,3.395.239.7.375,1.151.15,1.6a2.86,2.86,0,0,1-.448.155,3.6,3.6,0,0,0-1.9,1.1H80.921a17.553,17.553,0,0,0-2.566-.8c-.505-.1-1.846-.38-2.457.669a1.276,1.276,0,0,1-.079.122,8.978,8.978,0,0,1-1.686-1.25c-1.25-1.068-2.656-2.269-4.317-2.348a5.2,5.2,0,0,1-1.078-1.1,2.352,2.352,0,0,0,.52-2.259,5.964,5.964,0,0,1,1.076-.141,3.965,3.965,0,0,0,2.873-1.658,8.435,8.435,0,0,0,1.625-4.744h36.678c.107.275.221.531.324.762a5.116,5.116,0,0,1,.429,1.18c-1.089,1.257-.374,2.934.258,4.415a6.046,6.046,0,0,1,.663,2.187Z" transform="translate(0 0)"/>
    </g>
  </g>
</svg>
