<svg xmlns="http://www.w3.org/2000/svg" xmlns:xlink="http://www.w3.org/1999/xlink" width="108" height="108" viewBox="0 0 108 108">
  <defs>
    <filter id="Fondo" x="0" y="0" width="108" height="108" filterUnits="userSpaceOnUse">
      <feOffset dy="3" input="SourceAlpha"/>
      <feGaussianBlur stdDeviation="3" result="blur"/>
      <feFlood flood-opacity="0.161"/>
      <feComposite operator="in" in2="blur"/>
      <feComposite in="SourceGraphic"/>
    </filter>
  </defs>
  <g id="Grupo_1144451" data-name="Grupo 1144451" transform="translate(-1166 -2337)">
    <g transform="matrix(1, 0, 0, 1, 1166, 2337)" filter="url(#Fondo)">
      <g id="Fondo-2" data-name="Fondo" transform="translate(9 6)" fill="#fbf8e2" stroke="#bca724" stroke-width="3">
        <circle cx="45" cy="45" r="45" stroke="none"/>
        <circle cx="45" cy="45" r="43.5" fill="none"/>
      </g>
    </g>
    <g id="Grupo_1144462" data-name="Grupo 1144462" transform="translate(1188.919 2355.841)">
      <g id="Grupo_1144460" data-name="Grupo 1144460" transform="translate(0.911 3.616)">
        <g id="Grupo_1144454" data-name="Grupo 1144454" transform="translate(31.688 1.096)">
          <path id="Trazado_979218" data-name="Trazado 979218" d="M295.418,58.6a7.331,7.331,0,0,0,1.682-5.653l-.816-6.918a19.716,19.716,0,0,0-13.458-16.266L275.305,32.3a7.933,7.933,0,0,0-5.11,6.725l-1.643,13.93a7.331,7.331,0,0,0,1.682,5.653,5.776,5.776,0,0,0,4.344,2.046h16.5a5.776,5.776,0,0,0,4.344-2.046Z" transform="translate(-268.5 -28.489)" fill="#c86d36"/>
          <path id="Trazado_979219" data-name="Trazado 979219" d="M388.542,52.951l-.816-6.918a19.716,19.716,0,0,0-13.458-16.266l-1.69.568a19.645,19.645,0,0,1,11.964,15.7l.816,6.918a7.331,7.331,0,0,1-1.682,5.653,5.775,5.775,0,0,1-4.344,2.046h3.185a5.775,5.775,0,0,0,4.344-2.046,7.331,7.331,0,0,0,1.681-5.653Z" transform="translate(-359.942 -28.489)" fill="#ac5e2e"/>
          <path id="Trazado_979220" data-name="Trazado 979220" d="M306.206,289.7a5.562,5.562,0,0,0-5.562-5.562H286.019a5.562,5.562,0,0,0-5.562,5.563v10.127h25.749C306.206,293.721,306.206,295.232,306.206,289.7Z" transform="translate(-279.005 -251.976)" fill="#f58a97"/>
          <path id="Trazado_979221" data-name="Trazado 979221" d="M431.164,289.7a5.562,5.562,0,0,0-5.562-5.562h-2.92a5.562,5.562,0,0,1,5.562,5.563v10.127h2.92Z" transform="translate(-403.963 -251.976)" fill="#f07281"/>
          <path id="Trazado_979222" data-name="Trazado 979222" d="M353.721,214.064a4.53,4.53,0,0,1-4.53-4.53v-10.9h9.059v10.9A4.529,4.529,0,0,1,353.721,214.064Z" transform="translate(-339.394 -176.853)" fill="#ffb09e"/>
          <path id="Trazado_979223" data-name="Trazado 979223" d="M349.191,207.6a10.5,10.5,0,0,0,3.175.908h0a10.665,10.665,0,0,0,5.888-.94v-8.931h-9.059V207.6Z" transform="translate(-339.394 -176.855)" fill="#ffa78f"/>
          <path id="Trazado_979224" data-name="Trazado 979224" d="M431.264,135.261h5.159a3.591,3.591,0,0,1,3.591,3.591v.022a3.591,3.591,0,0,1-3.591,3.591h-5.159Z" transform="translate(-411.503 -121.174)" fill="#ffa78f"/>
          <path id="Trazado_979225" data-name="Trazado 979225" d="M277.871,142.464h-5.159a3.591,3.591,0,0,1-3.591-3.591v-.022a3.591,3.591,0,0,1,3.591-3.591h5.159Z" transform="translate(-269.046 -121.173)" fill="#ffb09e"/>
          <path id="Trazado_979226" data-name="Trazado 979226" d="M309.311,62.374a10.576,10.576,0,0,0-10.48,10.575V76.7a10.48,10.48,0,1,0,20.959,0V72.949a10.576,10.576,0,0,0-10.48-10.575Z" transform="translate(-295.148 -57.136)" fill="#ffcebf"/>
          <path id="Trazado_979227" data-name="Trazado 979227" d="M320.382,194.779H318.82a.7.7,0,1,0,0,1.4h1.562a.7.7,0,0,0,0-1.4Z" transform="translate(-312.094 -173.466)" fill="#fe8f83"/>
          <path id="Trazado_979228" data-name="Trazado 979228" d="M376.672,62.364H376.6a10.688,10.688,0,0,0-1.291.079,10.578,10.578,0,0,1,9.285,10.5v3.749a10.578,10.578,0,0,1-9.285,10.5,10.689,10.689,0,0,0,1.291.079h.072a10.576,10.576,0,0,0,10.576-10.576V72.94A10.576,10.576,0,0,0,376.672,62.364Z" transform="translate(-362.341 -57.127)" fill="#ffb09e"/>
          <path id="Trazado_979229" data-name="Trazado 979229" d="M432.715,194.779h-1.562a.7.7,0,0,0,0,1.4h1.562a.7.7,0,1,0,0-1.4Z" transform="translate(-410.789 -173.466)" fill="#fe8f83"/>
          <path id="Trazado_979230" data-name="Trazado 979230" d="M312.951,73.477h2.123l4.575-7.248-5.431-2.351a10.592,10.592,0,0,0-7.678,6.037A7.543,7.543,0,0,0,312.951,73.477Z" transform="translate(-301.922 -58.457)" fill="#ffb09e"/>
          <path id="Trazado_979231" data-name="Trazado 979231" d="M336.373,34.254H322.19a7.55,7.55,0,0,1-7.55-7.55v-.5a6.972,6.972,0,0,1,6.972-6.972h5.04a9.721,9.721,0,0,1,9.721,9.721v5.3Z" transform="translate(-309.038 -19.234)" fill="#d77f4a"/>
          <path id="Trazado_979232" data-name="Trazado 979232" d="M387.987,19.233h-3.274a9.732,9.732,0,0,1,9.951,9.5v5.523h3.274V28.73A9.732,9.732,0,0,0,387.987,19.233Z" transform="translate(-370.604 -19.233)" fill="#c86d36"/>
        </g>
        <g id="Grupo_1144456" data-name="Grupo 1144456">
          <g id="Grupo_1144455" data-name="Grupo 1144455">
            <path id="Trazado_979233" data-name="Trazado 979233" d="M38.516,292.027a5.171,5.171,0,0,0-5.171-5.171H12.671A5.171,5.171,0,0,0,7.5,292.027v10.189H38.516V292.027Z" transform="translate(-7.5 -253.268)" fill="#3c87d0"/>
            <path id="Trazado_979234" data-name="Trazado 979234" d="M102.663,219.577a4.5,4.5,0,0,1-4.5-4.5V204.245h9v10.832a4.5,4.5,0,0,1-4.5,4.5Z" transform="translate(-87.155 -180.687)" fill="#ffb09e"/>
            <path id="Trazado_979235" data-name="Trazado 979235" d="M38.081,37.753H28.994a5.365,5.365,0,0,0-5.329,5.989l1.168,9.968H38.081V37.753Z" transform="translate(-21.67 -34.408)" fill="#aa6a51"/>
            <path id="Trazado_979236" data-name="Trazado 979236" d="M98.162,212.79a10.764,10.764,0,0,0,4.435.952h.1a10.764,10.764,0,0,0,4.463-.965v-8.532h-9Z" transform="translate(-87.155 -180.687)" fill="#ffa78f"/>
            <path id="Trazado_979237" data-name="Trazado 979237" d="M24.541,132.339H18.925a3.685,3.685,0,1,0,0,7.37h5.616Z" transform="translate(-14.3 -117.511)" fill="#ffb09e"/>
            <path id="Trazado_979238" data-name="Trazado 979238" d="M184.335,132.339H178.77v7.37h5.564a3.685,3.685,0,0,0,0-7.37Z" transform="translate(-157.976 -117.511)" fill="#ffa78f"/>
            <path id="Trazado_979239" data-name="Trazado 979239" d="M56.577,83.216h-.1A10.808,10.808,0,0,1,45.665,72.408V68.538A10.808,10.808,0,0,1,56.473,57.73h.1A10.808,10.808,0,0,1,67.386,68.538v3.869A10.808,10.808,0,0,1,56.577,83.216Z" transform="translate(-41.031 -51.96)" fill="#ffcebf"/>
            <path id="Trazado_979240" data-name="Trazado 979240" d="M68.737,193.552h-1.6a.719.719,0,1,0,0,1.437h1.6a.719.719,0,1,0,0-1.437Z" transform="translate(-59.267 -171.292)" fill="#fe8f83"/>
            <path id="Trazado_979241" data-name="Trazado 979241" d="M126.129,57.73h-.1a10.74,10.74,0,0,0-1.2.07,10.809,10.809,0,0,1,9.591,10.738v3.869a10.809,10.809,0,0,1-9.591,10.738,10.714,10.714,0,0,0,1.2.07h.1a10.809,10.809,0,0,0,10.809-10.808V68.538A10.809,10.809,0,0,0,126.129,57.73Z" transform="translate(-110.583 -51.96)" fill="#ffb09e"/>
            <path id="Trazado_979242" data-name="Trazado 979242" d="M74.239,66.788v-.061a10.809,10.809,0,0,0-10.654-9h-.1a10.808,10.808,0,0,0-9.84,6.339,7.4,7.4,0,0,0,5.738,2.719Z" transform="translate(-48.038 -51.96)" fill="#ffb09e"/>
            <path id="Trazado_979243" data-name="Trazado 979243" d="M82.854,25.033H67.993a7.414,7.414,0,0,1-7.414-7.414v-2A5.418,5.418,0,0,1,66,10.205h9.532a7.325,7.325,0,0,1,7.325,7.325Z" transform="translate(-54.135 -10.205)" fill="#aa6a51"/>
            <path id="Trazado_979244" data-name="Trazado 979244" d="M160.13,10.2h-3.26a7.325,7.325,0,0,1,7.325,7.325v7.5h3.26v-7.5A7.325,7.325,0,0,0,160.13,10.2Z" transform="translate(-138.735 -10.205)" fill="#935b44"/>
            <path id="Trazado_979245" data-name="Trazado 979245" d="M181.086,193.552h-1.6a.719.719,0,1,0,0,1.437h1.6a.719.719,0,1,0,0-1.437Z" transform="translate(-157.975 -171.292)" fill="#fe8f83"/>
            <path id="Trazado_979246" data-name="Trazado 979246" d="M196.789,286.856h-3.26a5.171,5.171,0,0,1,5.171,5.171v10.189h3.26V292.027A5.171,5.171,0,0,0,196.789,286.856Z" transform="translate(-170.943 -253.268)" fill="#0078c8"/>
          </g>
        </g>
        <g id="Grupo_1144459" data-name="Grupo 1144459" transform="translate(18.432 21.95)">
          <g id="Grupo_1144458" data-name="Grupo 1144458">
            <path id="Trazado_979247" data-name="Trazado 979247" d="M172.107,417.4v6.7h21.531v-6.7a4.032,4.032,0,0,0-4.032-4.032H176.139A4.032,4.032,0,0,0,172.107,417.4Z" transform="translate(-170.554 -386.371)" fill="#0ab69f"/>
            <path id="Trazado_979248" data-name="Trazado 979248" d="M290.195,413.368h-3.6a4.032,4.032,0,0,1,4.032,4.032v6.7h3.6v-6.7A4.032,4.032,0,0,0,290.195,413.368Z" transform="translate(-271.143 -386.37)" fill="#01998d"/>
            <path id="Trazado_979249" data-name="Trazado 979249" d="M233.236,350.917a3.806,3.806,0,0,1-3.806-3.806v-9.159h7.612v9.159A3.806,3.806,0,0,1,233.236,350.917Z" transform="translate(-220.917 -320.11)" fill="#ffb09e"/>
            <path id="Trazado_979250" data-name="Trazado 979250" d="M229.43,347.112c0,.036,0,.071,0,.107a9.121,9.121,0,0,0,7.605.045c0-.051,0-.1,0-.152v-9.159H229.43Z" transform="translate(-220.917 -320.111)" fill="#ffa78f"/>
            <path id="Trazado_979251" data-name="Trazado 979251" d="M187.549,205.353H179.46a7.117,7.117,0,0,0-7.117,7.117v8.6h10.723V213.61h4.484Z" transform="translate(-170.761 -203.61)" fill="#aa6a51"/>
            <path id="Trazado_979252" data-name="Trazado 979252" d="M302.3,304.223h-4.705v-6.232H302.3a3.116,3.116,0,0,1,0,6.232Z" transform="translate(-280.804 -285.001)" fill="#ffa78f"/>
            <path id="Trazado_979253" data-name="Trazado 979253" d="M167.134,304.224h-4.705a3.116,3.116,0,1,1,0-6.232h4.705Z" transform="translate(-159.313 -285.002)" fill="#ffb09e"/>
            <path id="Trazado_979254" data-name="Trazado 979254" d="M195.17,256.453a9.122,9.122,0,0,1-9.122-9.122v-3.307a9.122,9.122,0,1,1,18.244,0v3.307a9.122,9.122,0,0,1-9.122,9.122Z" transform="translate(-182.802 -229.572)" fill="#ffcebf"/>
            <path id="Trazado_979255" data-name="Trazado 979255" d="M204.548,352.981H203.2a.608.608,0,1,0,0,1.216h1.351a.608.608,0,0,0,0-1.216Z" transform="translate(-197.335 -333.315)" fill="#fe8f83"/>
            <path id="Trazado_979256" data-name="Trazado 979256" d="M253.372,234.9a9.187,9.187,0,0,0-1.08.066,9.122,9.122,0,0,1,8.043,9.056v3.307a9.122,9.122,0,0,1-8.043,9.056,9.109,9.109,0,0,0,10.2-9.056v-3.307A9.122,9.122,0,0,0,253.372,234.9Z" transform="translate(-241.003 -229.572)" fill="#ffb09e"/>
            <path id="Trazado_979257" data-name="Trazado 979257" d="M204.784,191H203.2a8.4,8.4,0,0,0-8.2,6.6h0a15.751,15.751,0,0,0-.234,3.4s2.989,4.519,5.663,3.731a4.531,4.531,0,0,1-.76-1.94c1.188,1.238,2.8,2.427,4.445,1.94a4.531,4.531,0,0,1-.76-1.94c1.115,1.161,2.709,2.381,4.206,1.94l-.267-.456A2.191,2.191,0,0,1,209.2,201a2.4,2.4,0,0,1,2.288,1.635,9.117,9.117,0,0,1,.335,1.356c.042,0,.084,0,.127,0a3.1,3.1,0,0,1,1.565.422v-4.679A8.728,8.728,0,0,0,204.784,191Z" transform="translate(-190.457 -191.002)" fill="#aa6a51"/>
            <g id="Grupo_1144457" data-name="Grupo 1144457" transform="translate(12.168)">
              <path id="Trazado_979258" data-name="Trazado 979258" d="M261.7,191c-1.755,0-1.753-.006-2.159.021a8.729,8.729,0,0,1,8.123,8.707v1.829a2.357,2.357,0,0,1,.736,1.077,9.115,9.115,0,0,1,.335,1.356c.042,0,.084,0,.127,0a3.1,3.1,0,0,1,1.565.422v-4.679A8.728,8.728,0,0,0,261.7,191Z" transform="translate(-259.538 -190.998)" fill="#935b44"/>
            </g>
            <path id="Trazado_979259" data-name="Trazado 979259" d="M299.55,352.981H298.2a.608.608,0,0,0,0,1.216h1.351a.608.608,0,1,0,0-1.216Z" transform="translate(-280.803 -333.315)" fill="#fe8f83"/>
          </g>
        </g>
      </g>
      <g id="Grupo_1144461" data-name="Grupo 1144461" transform="translate(0 2.705)">
        <path id="Trazado_979260" data-name="Trazado 979260" d="M362.715,200.634A3.291,3.291,0,0,0,366,197.348a.911.911,0,1,0-1.821,0,1.466,1.466,0,1,1-2.931,0,.911.911,0,1,0-1.821,0A3.291,3.291,0,0,0,362.715,200.634Z" transform="translate(-315.79 -172.916)"/>
        <path id="Trazado_979261" data-name="Trazado 979261" d="M424.078,162.831a.911.911,0,0,0,.911-.911v-.961a.911.911,0,0,0-.025-1.821h-.886a.911.911,0,0,0-.911.911v1.872A.911.911,0,0,0,424.078,162.831Z" transform="translate(-371.791 -140.146)"/>
        <path id="Trazado_979262" data-name="Trazado 979262" d="M328.146,160.959v.961a.911.911,0,1,0,1.821,0v-1.872a.911.911,0,0,0-.911-.911h-.886a.911.911,0,0,0-.025,1.821Z" transform="translate(-287.528 -140.146)"/>
        <path id="Trazado_979263" data-name="Trazado 979263" d="M114.257,197.608a.911.911,0,0,0-.911.911,1.4,1.4,0,0,1-2.793,0,.911.911,0,1,0-1.821,0,3.218,3.218,0,0,0,6.435,0A.911.911,0,0,0,114.257,197.608Z" transform="translate(-95.531 -173.945)"/>
        <path id="Trazado_979264" data-name="Trazado 979264" d="M84.972,153.164a.911.911,0,0,0-.911.911v2a.911.911,0,0,0,1.821,0v-2A.911.911,0,0,0,84.972,153.164Z" transform="translate(-73.855 -134.897)"/>
        <path id="Trazado_979265" data-name="Trazado 979265" d="M173.228,154.075a.911.911,0,0,0-1.821,0v2a.911.911,0,0,0,1.821,0Z" transform="translate(-150.597 -134.897)"/>
        <path id="Trazado_979266" data-name="Trazado 979266" d="M239.955,359.374a2.865,2.865,0,0,0,2.861-2.861.911.911,0,0,0-1.821,0,1.04,1.04,0,1,1-2.08,0,.911.911,0,0,0-1.821,0A2.865,2.865,0,0,0,239.955,359.374Z" transform="translate(-208.309 -312.757)"/>
        <path id="Trazado_979267" data-name="Trazado 979267" d="M217.143,320.43a.911.911,0,0,0-.911.911v1.106a.911.911,0,0,0,1.821,0v-1.106A.911.911,0,0,0,217.143,320.43Z" transform="translate(-189.979 -281.855)"/>
        <path id="Trazado_979268" data-name="Trazado 979268" d="M291,323.357a.911.911,0,0,0,.911-.911v-1.106a.911.911,0,1,0-1.821,0v1.106A.91.91,0,0,0,291,323.357Z" transform="translate(-254.872 -281.855)"/>
        <path id="Trazado_979269" data-name="Trazado 979269" d="M57.955,37.142A7.015,7.015,0,0,0,60.2,35.426a8.2,8.2,0,0,0,1.9-6.359l-.55-4.662a4.472,4.472,0,0,0,.467-1.994V22.39a4.512,4.512,0,0,0-1.177-3.033V14.433a10.545,10.545,0,0,0-2.1-6.344.911.911,0,1,0-1.461,1.088,8.737,8.737,0,0,1,1.739,5.256v4.388H45.75a6.643,6.643,0,0,1-6.64-6.64v-.5a6.07,6.07,0,0,1,6.061-6.061h5.04a8.82,8.82,0,0,1,4.181,1.053.911.911,0,0,0,.866-1.6A10.648,10.648,0,0,0,50.212,3.8h-5.04A7.888,7.888,0,0,0,38.186,8.04a8.992,8.992,0,0,0-4.8,7.1l-.505,4.284A4.487,4.487,0,0,0,31.834,21.6a4.584,4.584,0,0,0-1.377-2.78.906.906,0,0,0,.084-.38v-7.5a8.245,8.245,0,0,0-8.235-8.235H12.773A6.334,6.334,0,0,0,7.144,6.147,6.274,6.274,0,0,0,2,13.056l.645,5.5a4.592,4.592,0,0,0,2.283,8.124,11.765,11.765,0,0,0,6.078,7.808v1.8H6.082A6.088,6.088,0,0,0,0,42.375v3.073a.911.911,0,0,0,1.821,0V42.375a4.265,4.265,0,0,1,4.26-4.26h4.927a5.41,5.41,0,0,0,7.628,4.827,4.045,4.045,0,0,0,3.317,2.726,10.042,10.042,0,0,0,4.161,5.986H1.821V49.705a.911.911,0,0,0-1.821,0v2.858a.911.911,0,0,0,.911.911H21.1A4.919,4.919,0,0,0,19.985,56.6v6.7a.911.911,0,0,0,.911.911H42.426a.911.911,0,0,0,.911-.911V56.6a4.919,4.919,0,0,0-1.114-3.122H59.8a.911.911,0,0,0,.911-.911V42.436a6.469,6.469,0,0,0-2.755-5.294Zm.2-16.5h1.4a2.7,2.7,0,0,1-1.425,4.38C58.163,24.45,58.151,24.265,58.151,20.642Zm-.3,6.259.026,0a4.471,4.471,0,0,0,2.057-.689l.362,3.072a6.461,6.461,0,0,1-1.463,4.947,5.271,5.271,0,0,1-4.594,1.735H52.365V34.25a11.542,11.542,0,0,0,2.456-1.889A11.415,11.415,0,0,0,57.849,26.9ZM38.256,16.111a8.477,8.477,0,0,0,7.495,4.531H56.329c0,4.01.032,4.189-.125,5.168a9.709,9.709,0,0,1-8.466,8.069h0a9.209,9.209,0,0,1-4.486-.639,9.671,9.671,0,0,0-1.1-3.529l-.008-.016a9.639,9.639,0,0,0-4.885-4.349,45.1,45.1,0,0,1,.067-6.4c0-.005,0-.011,0-.017a9.5,9.5,0,0,1,.933-2.819ZM50.544,35.089v2.3a3.618,3.618,0,0,1-5.99,2.732A4.094,4.094,0,0,0,43.548,38.7a3.579,3.579,0,0,1-.24-1.194V35.2a11.061,11.061,0,0,0,4.387.515,11.453,11.453,0,0,0,2.849-.624Zm-8.807,4.569a2.206,2.206,0,0,1,0,4.024C41.747,43.39,41.746,39.934,41.736,39.658ZM35.2,15.351a7.55,7.55,0,0,1,2.135-4.5,11.063,11.063,0,0,0,.135,3.058,11.361,11.361,0,0,0-1.8,4.017,4.637,4.637,0,0,0-.793.179ZM33.584,22.39a2.685,2.685,0,0,1,1.805-2.534c-.03.514-.027,4.509-.007,4.954-.039-.007-.333-.055-.44-.069a2.679,2.679,0,0,1-1.359-2.329V22.39Zm-1.791.537a4.5,4.5,0,0,0,.567,1.729,10.207,10.207,0,0,0-1.295.058A4.57,4.57,0,0,0,31.794,22.926Zm-1.75-.8a2.779,2.779,0,0,1-1.889,2.629c.035-.576.03-4.759,0-5.259A2.779,2.779,0,0,1,30.043,22.129ZM8.265,9.034a4.514,4.514,0,0,1,4.508-4.508h9.532a6.421,6.421,0,0,1,6.414,6.414v6.593c-15.1,0-14,0-14.246-.008a6.532,6.532,0,0,1-4.316-1.915C7.939,13.377,8.265,10.89,8.265,9.034Zm-5.5,13.095A2.776,2.776,0,0,1,4.654,19.5c-.042.7-.038,4.56,0,5.261a2.779,2.779,0,0,1-1.894-2.631Zm2.168-4.555a4.872,4.872,0,0,0-.551.108L3.81,12.844A4.465,4.465,0,0,1,6.5,8.222a17.562,17.562,0,0,0,.3,5.2,11.581,11.581,0,0,0-1.864,4.155ZM19.974,38.505A4.034,4.034,0,0,0,18.5,40.929a3.589,3.589,0,0,1-5.673-2.923V35.241a12.08,12.08,0,0,0,7.181-.009,29.222,29.222,0,0,1-.036,3.273Zm1.712,1.1c-.013.313-.014,3.8,0,4.128a2.207,2.207,0,0,1,0-4.128ZM20.1,33.266a9.809,9.809,0,0,1-3.745.695,9.915,9.915,0,0,1-9.769-8.309,41.219,41.219,0,0,1,0-7.062,9.87,9.87,0,0,1,1.106-3.177,8.359,8.359,0,0,0,7.071,3.941H26.317a55.879,55.879,0,0,1-.094,6.313.028.028,0,0,1,0,0,9.913,9.913,0,0,1-.215.991,8,8,0,0,0-5.91,6.606Zm1.855,4.41-.061.009-.057.008c0-3.915.019-3.731.019-3.731a6.205,6.205,0,0,1,5.1-5.646.907.907,0,0,0,.448-.193,7.4,7.4,0,0,1,4.681-1.647,23.28,23.28,0,0,1,2.33.036,4.472,4.472,0,0,0,1.827.4,7.708,7.708,0,0,1,1.224.549l.1.059a7.854,7.854,0,0,1,3.918,6.684c0,3.3,0,3.49,0,3.49l-.03,0c-.03-.122-.125-.483-.222-.776a3.3,3.3,0,0,0-3.152-2.26,3.112,3.112,0,0,0-3.062,3.658,6.824,6.824,0,0,1-2.128-1.588.911.911,0,0,0-1.561.742,4.8,4.8,0,0,0,.2.915,6,6,0,0,1-2.327-1.657.913.913,0,0,0-1.561.742,4.929,4.929,0,0,0,.171.817,9.711,9.711,0,0,1-3.342-3.121l-.027-.038a.9.9,0,0,0-.069-.087l-.007-.008a.91.91,0,0,0-1.184-.141,7.137,7.137,0,0,0-1.237,2.787Zm1.922,8.1-.012-.038c-.451-1.462-.364-2.13-.364-5.724a8.239,8.239,0,0,1,.423-2.6c3.157,3.68,5.754,3.1,6.184,2.325a4.083,4.083,0,0,0,3.148.429.911.911,0,0,0,.538-.431,3.791,3.791,0,0,0,2.907.431.91.91,0,0,0,.545-.443.9.9,0,0,0,.044-.095c.369-.931-1-1.344-.321-2.51a1.277,1.277,0,0,1,1.116-.646,1.487,1.487,0,0,1,1.423,1.01c.518,1.568.416,2.3.416,5.839a8.327,8.327,0,0,1-.367,2.431l0,.016a8.212,8.212,0,0,1-15.676.009ZM34.53,52.954a2.894,2.894,0,0,1-5.741-.03,10.067,10.067,0,0,0,5.741.03Zm6.986,9.435H21.806V56.6a3.125,3.125,0,0,1,3.122-3.122h2.1a4.717,4.717,0,0,0,9.257,0h2.1A3.125,3.125,0,0,1,41.516,56.6ZM58.889,51.653H37.306a10.018,10.018,0,0,0,4.165-6A4.041,4.041,0,0,0,44.8,42.4a5.445,5.445,0,0,0,1.769.419l.089.006a5.447,5.447,0,0,0,5.7-5.042h1.886a4.657,4.657,0,0,1,4.652,4.652v9.216Z" transform="translate(0 -2.705)"/>
      </g>
    </g>
  </g>
</svg>
